<?xml version="1.0" encoding="utf-8"?>
<!DOCTYPE svg PUBLIC "-//W3C//DTD SVG 1.1//EN" "http://www.w3.org/Graphics/SVG/1.1/DTD/svg11.dtd">
<svg version="1.1" xmlns="http://www.w3.org/2000/svg" xmlns:xlink="http://www.w3.org/1999/xlink" x="0px" y="0px" viewBox="0 0 48 352" enable-background="new 0 0 48 352" xml:space="preserve">
  <g id="ellipsis">
    <ellipse id="GDSId_1" fill="#AAAAAA" cx="2" cy="8" rx="2" ry="2"/>
    <ellipse id="GDSId_2" fill="#AAAAAA" cx="8" cy="8" rx="2" ry="2"/>
    <ellipse id="GDSId_3" fill="#AAAAAA" cx="14" cy="8" rx="2" ry="2"/>
    <ellipse id="GDSId_4" cx="18" cy="8" rx="2" ry="2"/>
    <ellipse id="GDSId_5" cx="24" cy="8" rx="2" ry="2"/>
    <ellipse id="GDSId_6" cx="30" cy="8" rx="2" ry="2"/>
    <ellipse id="GDSId_7" fill="#FFFFFF" cx="34" cy="8" rx="2" ry="2"/>
    <ellipse id="GDSId_8" fill="#FFFFFF" cx="40" cy="8" rx="2" ry="2"/>
    <ellipse id="GDSId_9" fill="#FFFFFF" cx="46" cy="8" rx="2" ry="2"/>
  </g>
  <g id="whatsapp">
    <path id="SOCWhp_1" fill="#4DC247" d="M15.96113 343.96112c0 4.40039-3.56074 7.96112-7.96113 7.96112 -1.50049 0-2.8999-0.41205-4.09718-1.13507L0.11662 352l1.22838-3.6618c-0.8241-1.25949-1.30612-2.75998-1.30612-4.37708C0.03887 339.56073 3.59961 336 8 336S15.96113 339.56073 15.96113 343.96112zM12.48591 346.20798c-0.04665-0.09329-0.19436-0.15549-0.41205-0.27213 -0.21769-0.11661-1.29057-0.69971-1.48494-0.77744 -0.20214-0.08554-0.34985-0.12439-0.50535 0.09329s-0.59864 0.69971-0.73858 0.83963c-0.13217 0.14774-0.26433 0.15552-0.48202 0.03888 -0.21769-0.11661-0.92517-0.38095-1.7415-1.16617 -0.63751-0.6142-1.05734-1.36057-1.17396-1.586 -0.12439-0.22546 0-0.3421 0.10884-0.44318 0.10884-0.10104 0.23324-0.25656 0.34985-0.38095s0.15549-0.21768 0.23324-0.3576c0.08552-0.14774 0.05442-0.27991 0-0.38873 -0.05442-0.11664-0.45092-1.22061-0.62196-1.67154 -0.17104-0.45093-0.35763-0.38873-0.48202-0.38873 -0.13217-0.00775-0.27988-0.0311-0.4276-0.03885 -0.14772-0.00778-0.38873 0.03885-0.59864 0.25656 -0.21769 0.21768-0.80855 0.7308-0.84742 1.81924 -0.03887 1.09619 0.71526 2.17685 0.81633 2.33234 0.10884 0.14774 1.44606 2.5112 3.66181 3.49078 2.22352 0.9718 2.23907 0.67639 2.64334 0.65305 0.41205-0.02332 1.32945-0.48978 1.53936-1.0029C12.52478 346.7522 12.54033 346.30127 12.48591 346.20798z"/>
    <path id="SOCWhp_2" d="M31.96113 343.96112c0 4.40039-3.56074 7.96112-7.96113 7.96112 -1.50049 0-2.8999-0.41205-4.09718-1.13507L16.11662 352l1.22838-3.6618c-0.8241-1.25949-1.30612-2.75998-1.30612-4.37708C16.03887 339.56073 19.59961 336 24 336S31.96113 339.56073 31.96113 343.96112zM28.48591 346.20798c-0.04665-0.09329-0.19436-0.15549-0.41205-0.27213 -0.21769-0.11661-1.29057-0.69971-1.48494-0.77744 -0.20214-0.08554-0.34985-0.12439-0.50534 0.09329s-0.59864 0.69971-0.73858 0.83963c-0.13217 0.14774-0.26434 0.15552-0.48202 0.03888 -0.21769-0.11661-0.92517-0.38095-1.7415-1.16617 -0.63751-0.6142-1.05734-1.36057-1.17396-1.586 -0.12439-0.22546 0-0.3421 0.10884-0.44318 0.10884-0.10104 0.23324-0.25656 0.34985-0.38095 0.11662-0.12439 0.15549-0.21768 0.23324-0.3576 0.08552-0.14774 0.05442-0.27991 0-0.38873 -0.05442-0.11664-0.45092-1.22061-0.62196-1.67154s-0.35763-0.38873-0.48202-0.38873c-0.13217-0.00775-0.27988-0.0311-0.4276-0.03885 -0.14772-0.00778-0.38873 0.03885-0.59864 0.25656 -0.21769 0.21768-0.80855 0.7308-0.84742 1.81924 -0.03887 1.09619 0.71526 2.17685 0.81633 2.33234 0.10884 0.14774 1.44606 2.5112 3.66181 3.49078 2.22352 0.9718 2.23907 0.67639 2.64334 0.65305 0.41205-0.02332 1.32944-0.48978 1.53936-1.0029C28.52478 346.7522 28.54033 346.30127 28.48591 346.20798z"/>
    <path id="SOCWhp_3" fill="#FFFFFF" d="M47.96113 343.96112c0 4.40039-3.56074 7.96112-7.96113 7.96112 -1.50048 0-2.8999-0.41205-4.09718-1.13507L32.11662 352l1.22837-3.6618c-0.8241-1.25949-1.30612-2.75998-1.30612-4.37708C32.03887 339.56073 35.59961 336 40 336S47.96113 339.56073 47.96113 343.96112zM44.48591 346.20798c-0.04665-0.09329-0.19436-0.15549-0.41205-0.27213 -0.21769-0.11661-1.29057-0.69971-1.48494-0.77744 -0.20214-0.08554-0.34985-0.12439-0.50534 0.09329s-0.59864 0.69971-0.73858 0.83963c-0.13216 0.14774-0.26433 0.15552-0.48202 0.03888 -0.21769-0.11661-0.92517-0.38095-1.74149-1.16617 -0.63751-0.6142-1.05734-1.36057-1.17396-1.586 -0.12439-0.22546 0-0.3421 0.10884-0.44318 0.10884-0.10104 0.23323-0.25656 0.34985-0.38095s0.15549-0.21768 0.23323-0.3576c0.08552-0.14774 0.05442-0.27991 0-0.38873 -0.05442-0.11664-0.45092-1.22061-0.62196-1.67154s-0.35763-0.38873-0.48202-0.38873c-0.13217-0.00775-0.27988-0.0311-0.4276-0.03885 -0.14772-0.00778-0.38873 0.03885-0.59864 0.25656 -0.21769 0.21768-0.80855 0.7308-0.84742 1.81924 -0.03887 1.09619 0.71526 2.17685 0.81633 2.33234 0.10884 0.14774 1.44606 2.5112 3.66181 3.49078 2.22352 0.9718 2.23907 0.67639 2.64334 0.65305 0.41205-0.02332 1.32945-0.48978 1.53936-1.0029C44.52478 346.7522 44.54033 346.30127 44.48591 346.20798z"/>
  </g>
  <g id="pinterest">
    <path id="SOCPin_1" fill="#CC2127" d="M14.188 277.258C14.188 280.868 12.188 283.555 9.242 283.555 8.242 283.555 7.313 283.04 6.984 282.43 6.984 282.43 6.461 284.54 6.336 284.946 5.945 286.391 4.781 287.836 4.688 287.946 4.609 288.04 4.484 288 4.461 287.907 4.445 287.719 4.148 285.891 4.5 284.407 4.664 283.665 5.664 279.407 5.664 279.407 5.664 279.407 5.391 278.813 5.391 277.946 5.391 276.571 6.164 275.571 7.148 275.571 7.984 275.571 8.391 276.188 8.391 276.946 8.391 277.782 7.852 279.04 7.57 280.204 7.352 281.188 8.07 281.985 9.039 281.985 10.781 281.985 11.945 279.743 11.945 277.094 11.945 275.071 10.594 273.571 8.133 273.571 5.336 273.571 3.594 275.649 3.594 277.961 3.594 278.782 3.836 279.336 4.203 279.782 4.367 279.985 4.391 280.055 4.336 280.282 4.297 280.461 4.188 280.868 4.148 281.016 4.094 281.258 3.906 281.336 3.688 281.258 2.406 280.719 1.813 279.313 1.813 277.743 1.813 275.133 4 272 8.367 272 11.891 272 14.188 274.54 14.188 277.258z"/>
    <path id="SOCPin_2" d="M30.188 277.258C30.188 280.868 28.188 283.555 25.242 283.555 24.242 283.555 23.313 283.04 22.984 282.43 22.984 282.43 22.461 284.54 22.336 284.946 21.945 286.391 20.781 287.836 20.688 287.946 20.609 288.04 20.484 288 20.461 287.907 20.445 287.719 20.148 285.891 20.5 284.407 20.664 283.665 21.664 279.407 21.664 279.407 21.664 279.407 21.391 278.813 21.391 277.946 21.391 276.571 22.164 275.571 23.148 275.571 23.984 275.571 24.391 276.188 24.391 276.946 24.391 277.782 23.852 279.04 23.57 280.204 23.352 281.188 24.07 281.985 25.039 281.985 26.781 281.985 27.945 279.743 27.945 277.094 27.945 275.071 26.594 273.571 24.133 273.571 21.336 273.571 19.594 275.649 19.594 277.961 19.594 278.782 19.836 279.336 20.203 279.782 20.367 279.985 20.391 280.055 20.336 280.282 20.297 280.461 20.188 280.868 20.148 281.016 20.094 281.258 19.906 281.336 19.688 281.258 18.406 280.719 17.813 279.313 17.813 277.743 17.813 275.133 20 272 24.367 272 27.891 272 30.188 274.54 30.188 277.258z"/>
    <path id="SOCPin_3" fill="#FFFFFF" d="M38.71 282.689C38.289 284.848 37.776 286.919 36.256 288 35.787 284.736 36.945 282.285 37.483 279.683 36.565 278.17 37.593 275.125 39.527 275.876 41.907 276.798 37.466 281.501 40.447 282.089 43.56 282.702 44.83 276.795 42.9 274.875 40.112 272.101 34.783 274.81 35.439 278.782 35.598 279.753 36.621 280.047 35.848 281.388 34.063 281.001 33.53 279.621 33.599 277.781 33.709 274.769 36.358 272.662 39.016 272.37 42.377 272 45.531 273.579 45.967 276.678 46.457 280.176 44.45 283.965 40.856 283.693 39.882 283.618 39.474 283.145 38.71 282.69z"/>
  </g>
  <g id="search">
    <path id="GDSId_10" fill="#AAAAAA" d="M15.888 29.05L11.34 24.518C13.23 20.612 10.374 16 5.964 16 2.676 16 0 18.667 0 21.945 0 26.269 4.493 29.119 8.401 27.37L12.987 31.941C14.291 32.05 16 30.396 15.888 29.05ZM5.964 25.913C3.769 25.913 1.982 24.132 1.982 21.945 1.982 19.757 3.769 17.976 5.964 17.976 8.16 17.976 9.946 19.757 9.946 21.945 9.946 24.132 8.16 25.913 5.964 25.913z"/>
    <path id="GDSId_12" d="M31.888 29.05L27.34 24.518C29.23 20.612 26.374 16 21.964 16 18.676 16 16 18.667 16 21.945 16 26.269 20.493 29.119 24.401 27.37L28.987 31.941C30.291 32.05 32 30.396 31.888 29.05ZM21.964 25.913C19.769 25.913 17.982 24.132 17.982 21.945 17.982 19.757 19.769 17.976 21.964 17.976 24.16 17.976 25.946 19.757 25.946 21.945 25.946 24.132 24.16 25.913 21.964 25.913z"/>
    <path id="GDSId_13" fill="#FFFFFF" d="M47.888 29.05L43.34 24.518C45.23 20.612 42.374 16 37.964 16 34.676 16 32 18.667 32 21.945 32 26.269 36.493 29.119 40.401 27.37L44.987 31.941C46.291 32.05 48 30.396 47.888 29.05ZM37.964 25.913C35.769 25.913 33.982 24.132 33.982 21.945 33.982 19.757 35.769 17.976 37.964 17.976 40.16 17.976 41.946 19.757 41.946 21.945 41.946 24.132 40.16 25.913 37.964 25.913z"/>
  </g>
  <g id="user">
    <path id="GDSId_14" fill="#AAAAAA" d="M13.503 43.934C11.36 43.423 9.365 42.974 10.331 41.087 13.273 35.342 11.11 32.27 8.005 32.27 4.838 32.27 2.73 35.46 5.679 41.087 6.675 42.985 4.604 43.434 2.507 43.934 0.591 44.392 0.52 45.376 0.527 47.095L0.528 47.74 15.48 47.74 15.483 47.115C15.49 45.383 15.425 44.394 13.503 43.934z"/>
    <path id="GDSId_15" d="M29.503 43.934C27.36 43.423 25.365 42.974 26.331 41.087 29.273 35.342 27.11 32.27 24.005 32.27 20.838 32.27 18.73 35.46 21.679 41.087 22.675 42.985 20.604 43.434 18.507 43.934 16.591 44.392 16.52 45.376 16.527 47.095L16.528 47.74 31.48 47.74 31.483 47.115C31.49 45.383 31.425 44.394 29.503 43.934z"/>
    <path id="GDSId_16" fill="#FFFFFF" d="M45.503 43.934C43.36 43.423 41.365 42.974 42.331 41.087 45.273 35.342 43.11 32.27 40.005 32.27 36.838 32.27 34.73 35.46 37.679 41.087 38.675 42.985 36.604 43.434 34.507 43.934 32.591 44.392 32.52 45.376 32.527 47.095L32.528 47.74 47.48 47.74 47.483 47.115C47.49 45.383 47.425 44.394 45.503 43.934z"/>
  </g>
  <g id="mail">
    <path id="GDSId_17" fill="#AAAAAA" d="M8 56.476L0.01 50 15.99 50 8 56.476ZM8 58.192L0 51.708 0 62 16 62 16 51.708 8 58.192z"/>
    <path id="GDSId_18" d="M24 56.476L16.01 50 31.99 50 24 56.476ZM24 58.192L16 51.708 16 62 32 62 32 51.708 24 58.192z"/>
    <path id="GDSId_19" fill="#FFFFFF" d="M40 56.476L32.01 50 47.99 50 40 56.476ZM40 58.192L32 51.708 32 62 48 62 48 51.708 40 58.192z"/>
  </g>
  <g id="speaker">
    <path id="GDSId_20" fill="#AAAAAA" d="M1.77 106.754C1.213 107.477 0.742 107.693 0 107.451L1.765 111.173C1.936 110.284 2.308 109.786 3.101 109.562L13.333 106.532 9.11 97.629 1.77 106.754ZM9.317 108.95L9.005 110.669C8.943 110.976 8.745 111.216 8.493 111.294L6.525 111.924C6.281 112 6.023 111.913 5.846 111.696L4.797 110.306 5.867 109.986 6.297 110.61C6.415 110.755 6.585 110.812 6.747 110.762L7.812 110.416C7.98 110.365 8.111 110.205 8.153 110.001L8.261 109.266 9.317 108.95ZM15.129 99.808L13.34 101.115 12.836 100.091 14.627 98.784 15.129 99.808ZM12.199 98.864L11.309 98.365 12.203 96 13.093 96.501 12.199 98.864ZM15.945 103.861L13.81 103.72 13.864 102.528 16 102.67 15.945 103.861z"/>
    <path id="GDSId_21" d="M17.77 106.754C17.213 107.477 16.742 107.693 16 107.451L17.765 111.173C17.936 110.284 18.308 109.786 19.101 109.562L29.333 106.532 25.11 97.629 17.77 106.754ZM25.317 108.95L25.005 110.669C24.943 110.976 24.745 111.216 24.493 111.294L22.525 111.924C22.281 112 22.023 111.913 21.846 111.696L20.797 110.306 21.867 109.986 22.297 110.61C22.415 110.755 22.585 110.812 22.747 110.762L23.812 110.416C23.98 110.365 24.111 110.205 24.153 110.001L24.261 109.266 25.317 108.95ZM31.129 99.808L29.34 101.115 28.836 100.091 30.627 98.784 31.129 99.808ZM28.199 98.864L27.309 98.365 28.203 96 29.093 96.501 28.199 98.864ZM31.945 103.861L29.81 103.72 29.864 102.528 32 102.67 31.945 103.861z"/>
    <path id="GDSId_22" fill="#FFFFFF" d="M33.77 106.754C33.213 107.477 32.742 107.693 32 107.451L33.765 111.173C33.936 110.284 34.308 109.786 35.101 109.562L45.333 106.532 41.11 97.629 33.77 106.754ZM41.317 108.95L41.005 110.669C40.943 110.976 40.745 111.216 40.493 111.294L38.525 111.924C38.281 112 38.023 111.913 37.846 111.696L36.797 110.306 37.867 109.986 38.297 110.61C38.415 110.755 38.585 110.812 38.747 110.762L39.812 110.416C39.98 110.365 40.111 110.205 40.153 110.001L40.261 109.266 41.317 108.95ZM47.129 99.808L45.34 101.115 44.836 100.091 46.627 98.784 47.129 99.808ZM44.199 98.864L43.309 98.365 44.203 96 45.093 96.501 44.199 98.864ZM47.945 103.861L45.81 103.72 45.864 102.528 48 102.67 47.945 103.861z"/>
  </g>
  <g id="location">
    <path id="GDSId_23" fill="#AAAAAA" d="M8 112C4.851 112 2 114.269 2 117.068 2 119.867 4.602 123.208 8 128 11.398 123.208 14 119.867 14 117.068 14 114.269 11.15 112 8 112ZM8 119.333C6.758 119.333 5.75 118.438 5.75 117.333 5.75 116.229 6.758 115.333 8 115.333 9.242 115.333 10.25 116.229 10.25 117.333 10.25 118.438 9.242 119.333 8 119.333z"/>
    <path id="GDSId_24" d="M24 112C20.851 112 18 114.269 18 117.068 18 119.867 20.602 123.208 24 128 27.398 123.208 30 119.867 30 117.068 30 114.269 27.15 112 24 112ZM24 119.333C22.758 119.333 21.75 118.438 21.75 117.333 21.75 116.229 22.758 115.333 24 115.333 25.242 115.333 26.25 116.229 26.25 117.333 26.25 118.438 25.242 119.333 24 119.333z"/>
    <path id="GDSId_25" fill="#FFFFFF" d="M40 112C36.851 112 34 114.269 34 117.068 34 119.867 36.602 123.208 40 128 43.398 123.208 46 119.867 46 117.068 46 114.269 43.15 112 40 112ZM40 119.333C38.758 119.333 37.75 118.438 37.75 117.333 37.75 116.229 38.758 115.333 40 115.333 41.242 115.333 42.25 116.229 42.25 117.333 42.25 118.438 41.242 119.333 40 119.333z"/>
  </g>
  <g id="comment">
    <path id="GDSId_26" fill="#AAAAAA" d="M1.6 128L14.4 128C15.267 128 16 128.758 16 129.655L16 138.758C16 139.655 15.267 140.413 14.4 140.413L6.785 140.413 4.197 143.358C4.146 143.416 4.074 143.448 4 143.448 3.968 143.448 3.935 143.442 3.904 143.429 3.801 143.388 3.733 143.286 3.733 143.172L3.733 140.413 1.6 140.413C0.733 140.413 0 139.655 0 138.758L0 129.655C0 128.758 0.733 128 1.6 128z"/>
    <path id="GDSId_27" d="M17.6 128L30.4 128C31.267 128 32 128.758 32 129.655L32 138.758C32 139.655 31.267 140.413 30.4 140.413L22.785 140.413 20.197 143.358C20.146 143.416 20.074 143.448 20 143.448 19.968 143.448 19.935 143.442 19.904 143.429 19.801 143.388 19.733 143.286 19.733 143.172L19.733 140.413 17.6 140.413C16.733 140.413 16 139.655 16 138.758L16 129.655C16 128.758 16.733 128 17.6 128z"/>
    <path id="GDSId_28" fill="#FFFFFF" d="M33.6 128L46.4 128C47.267 128 48 128.758 48 129.655L48 138.758C48 139.655 47.267 140.413 46.4 140.413L38.785 140.413 36.197 143.358C36.146 143.416 36.074 143.448 36 143.448 35.968 143.448 35.935 143.442 35.904 143.429 35.801 143.388 35.733 143.286 35.733 143.172L35.733 140.413 33.6 140.413C32.733 140.413 32 139.655 32 138.758L32 129.655C32 128.758 32.733 128 33.6 128z"/>
  </g>
  <g id="calendar">
    <path id="GDSId_29" fill="#AAAAAA" d="M13.333 157.333L10.667 157.333 10.667 154.667 13.333 154.667 13.333 157.333ZM9.333 150.667L6.667 150.667 6.667 153.333 9.333 153.333 9.333 150.667ZM13.333 150.667L10.667 150.667 10.667 153.333 13.333 153.333 13.333 150.667ZM5.333 154.667L2.667 154.667 2.667 157.333 5.333 157.333 5.333 154.667ZM9.333 154.667L6.667 154.667 6.667 157.333 9.333 157.333 9.333 154.667ZM5.333 150.667L2.667 150.667 2.667 153.333 5.333 153.333 5.333 150.667ZM16 145.333L16 160 0 160 0 145.333 2 145.333 2 146C2 146.735 2.598 147.333 3.333 147.333 4.069 147.333 4.667 146.735 4.667 146L4.667 145.333 11.333 145.333 11.333 146C11.333 146.735 11.931 147.333 12.667 147.333 13.402 147.333 14 146.735 14 146L14 145.333 16 145.333ZM14.667 149.333L1.333 149.333 1.333 158.667 14.667 158.667 14.667 149.333ZM13.333 144.667C13.333 144.299 13.035 144 12.667 144 12.298 144 12 144.299 12 144.667L12 146C12 146.368 12.298 146.667 12.667 146.667 13.035 146.667 13.333 146.368 13.333 146L13.333 144.667ZM4 146C4 146.368 3.702 146.667 3.333 146.667 2.965 146.667 2.667 146.368 2.667 146L2.667 144.667C2.667 144.299 2.965 144 3.333 144 3.702 144 4 144.299 4 144.667L4 146z"/>
    <path id="GDSId_30" d="M29.333 157.333L26.667 157.333 26.667 154.667 29.333 154.667 29.333 157.333ZM25.333 150.667L22.667 150.667 22.667 153.333 25.333 153.333 25.333 150.667ZM29.333 150.667L26.667 150.667 26.667 153.333 29.333 153.333 29.333 150.667ZM21.333 154.667L18.667 154.667 18.667 157.333 21.333 157.333 21.333 154.667ZM25.333 154.667L22.667 154.667 22.667 157.333 25.333 157.333 25.333 154.667ZM21.333 150.667L18.667 150.667 18.667 153.333 21.333 153.333 21.333 150.667ZM32 145.333L32 160 16 160 16 145.333 18 145.333 18 146C18 146.735 18.598 147.333 19.333 147.333 20.069 147.333 20.667 146.735 20.667 146L20.667 145.333 27.333 145.333 27.333 146C27.333 146.735 27.931 147.333 28.667 147.333 29.402 147.333 30 146.735 30 146L30 145.333 32 145.333ZM30.667 149.333L17.333 149.333 17.333 158.667 30.667 158.667 30.667 149.333ZM29.333 144.667C29.333 144.299 29.035 144 28.667 144 28.298 144 28 144.299 28 144.667L28 146C28 146.368 28.298 146.667 28.667 146.667 29.035 146.667 29.333 146.368 29.333 146L29.333 144.667ZM20 146C20 146.368 19.702 146.667 19.333 146.667 18.965 146.667 18.667 146.368 18.667 146L18.667 144.667C18.667 144.299 18.965 144 19.333 144 19.702 144 20 144.299 20 144.667L20 146z"/>
    <path id="GDSId_31" fill="#FFFFFF" d="M45.333 157.333L42.667 157.333 42.667 154.667 45.333 154.667 45.333 157.333ZM41.333 150.667L38.667 150.667 38.667 153.333 41.333 153.333 41.333 150.667ZM45.333 150.667L42.667 150.667 42.667 153.333 45.333 153.333 45.333 150.667ZM37.333 154.667L34.667 154.667 34.667 157.333 37.333 157.333 37.333 154.667ZM41.333 154.667L38.667 154.667 38.667 157.333 41.333 157.333 41.333 154.667ZM37.333 150.667L34.667 150.667 34.667 153.333 37.333 153.333 37.333 150.667ZM48 145.333L48 160 32 160 32 145.333 34 145.333 34 146C34 146.735 34.598 147.333 35.333 147.333 36.069 147.333 36.667 146.735 36.667 146L36.667 145.333 43.333 145.333 43.333 146C43.333 146.735 43.931 147.333 44.667 147.333 45.402 147.333 46 146.735 46 146L46 145.333 48 145.333ZM46.667 149.333L33.333 149.333 33.333 158.667 46.667 158.667 46.667 149.333ZM45.333 144.667C45.333 144.299 45.035 144 44.667 144 44.298 144 44 144.299 44 144.667L44 146C44 146.368 44.298 146.667 44.667 146.667 45.035 146.667 45.333 146.368 45.333 146L45.333 144.667ZM36 146C36 146.368 35.702 146.667 35.333 146.667 34.965 146.667 34.667 146.368 34.667 146L34.667 144.667C34.667 144.299 34.965 144 35.333 144 35.702 144 36 144.299 36 144.667L36 146z"/>
  </g>
  <g id="rss">
    <path id="GDSId_32" fill="#FF6600" d="M4.335 173.835C4.335 175.031 3.365 176 2.168 176 0.971 176 0 175.031 0 173.835 0 172.639 0.971 171.669 2.168 171.669 3.365 171.67 4.335 172.639 4.335 173.835ZM0 165.453L0 168.661C4.033 168.702 7.307 171.971 7.348 176L10.559 176C10.518 170.193 5.814 165.495 0 165.453ZM0 163.208C7.053 163.239 12.768 168.937 12.789 176L16 176C15.98 167.179 8.83 160.031 0 160L0 163.208z"/>
    <path id="GDSId_33" d="M20.335 173.835C20.335 175.031 19.365 176 18.168 176 16.971 176 16 175.031 16 173.835 16 172.639 16.971 171.669 18.168 171.669 19.365 171.67 20.335 172.639 20.335 173.835ZM16 165.453L16 168.661C20.033 168.702 23.307 171.971 23.348 176L26.559 176C26.518 170.193 21.814 165.495 16 165.453ZM16 163.208C23.053 163.239 28.768 168.937 28.789 176L32 176C31.98 167.179 24.83 160.031 16 160L16 163.208z"/>
    <path id="GDSId_34" fill="#FFFFFF" d="M36.335 173.835C36.335 175.031 35.365 176 34.168 176 32.971 176 32 175.031 32 173.835 32 172.639 32.971 171.669 34.168 171.669 35.365 171.67 36.335 172.639 36.335 173.835ZM32 165.453L32 168.661C36.033 168.702 39.307 171.971 39.348 176L42.559 176C42.518 170.193 37.814 165.495 32 165.453ZM32 163.208C39.053 163.239 44.768 168.937 44.789 176L48 176C47.98 167.179 40.83 160.031 32 160L32 163.208z"/>
  </g>
  <g id="facebook">
    <path id="SOCFcb_1" fill="#3B5998" d="M16 177v14c0 0.54688-0.45312 1-1 1h-4v-6.21875h2l0.33594-2.30469H11v-1.8125c0-0.65625 0.33594-1.03125 1-1.03125h1.5v-2.07812c0 0-0.67188-0.10938-1.64062-0.10938 -2.19531 0-3.30469 1.21875-3.30469 3.03906v1.99219h-2v2.30469h2V192H1c-0.54688 0-1-0.45312-1-1v-14c0-0.54688 0.45312-1 1-1h14C15.54688 176 16 176.45312 16 177z"/>
    <path id="SOCFcb_2" d="M32 177v14c0 0.54688-0.45312 1-1 1h-4v-6.21875h2l0.33594-2.30469H27v-1.8125c0-0.65625 0.33594-1.03125 1-1.03125h1.5v-2.07812c0 0-0.67188-0.10938-1.64062-0.10938 -2.19531 0-3.30469 1.21875-3.30469 3.03906v1.99219h-2v2.30469h2V192H17c-0.54688 0-1-0.45312-1-1v-14c0-0.54688 0.45313-1 1-1h14C31.54688 176 32 176.45312 32 177z"/>
    <path id="SOCFcb_3" fill="#FFFFFF" d="M47.99759 177v14c0 0.54688-0.45312 1-1 1h-4v-6.21875h2l0.33594-2.30469h-2.33594v-1.8125c0-0.65625 0.33594-1.03125 1-1.03125h1.5v-2.07812c0 0-0.67188-0.10938-1.64062-0.10938 -2.19531 0-3.30469 1.21875-3.30469 3.03906v1.99219h-2v2.30469h2V192h-7.55469c-0.54688 0-1-0.45312-1-1v-14c0-0.54688 0.45312-1 1-1h14C47.54446 176 47.99759 176.45312 47.99759 177z"/>
  </g>
  <g id="bookmark">
    <path id="GDSId_35" fill="#3B5998" d="M13 192H3c-0.55 0-1 0.45-1 1v14.49904c0 0.42392 0.49443 0.6555 0.82009 0.38411l4.85982-4.04984c0.18542-0.15453 0.45476-0.15453 0.64018 0l4.85982 4.04984C13.50557 208.15454 14 207.92296 14 207.49904V193C14 192.45 13.55 192 13 192z"/>
    <path id="GDSId_36" d="M29 192H19c-0.55 0-1 0.45-1 1v14.49904c0 0.42392 0.49443 0.6555 0.82009 0.38411l4.85982-4.04984c0.18542-0.15453 0.45476-0.15453 0.64018 0l4.85982 4.04984C29.50557 208.15454 30 207.92296 30 207.49904V193C30 192.45 29.55 192 29 192z"/>
    <path id="GDSId_37" fill="#FFFFFF" d="M45 192H35c-0.55 0-1 0.45-1 1v14.49904c0 0.42392 0.49443 0.6555 0.82009 0.38411l4.85982-4.04984c0.18542-0.15453 0.45476-0.15453 0.64018 0l4.85982 4.04984C45.50557 208.15454 46 207.92296 46 207.49904V193C46 192.45 45.55 192 45 192z"/>
  </g>
  <g id="twitter">
    <path id="SOCTwt_1" fill="#55ACEE" d="M16.004 211.037C15.416 211.3 14.782 211.475 14.12 211.553 14.798 211.147 15.317 210.503 15.564 209.737 14.93 210.112 14.226 210.387 13.48 210.534 12.88 209.896 12.027 209.5 11.083 209.5 9.27 209.5 7.802 210.969 7.802 212.781 7.802 213.037 7.83 213.287 7.886 213.528 5.158 213.39 2.739 212.084 1.12 210.097 0.839 210.581 0.676 211.147 0.676 211.747 0.676 212.885 1.254 213.891 2.135 214.478 1.597 214.462 1.091 214.312 0.647 214.069 0.647 214.082 0.647 214.097 0.647 214.11 0.647 215.701 1.778 217.029 3.281 217.329 3.006 217.404 2.715 217.445 2.415 217.445 2.203 217.445 1.999 217.423 1.796 217.386 2.215 218.689 3.427 219.639 4.862 219.667 3.737 220.548 2.324 221.073 0.784 221.073 0.518 221.073 0.259 221.057 0 221.026 1.456 221.96 3.181 222.501 5.034 222.501 11.071 222.501 14.375 217.498 14.375 213.16 14.375 213.016 14.372 212.876 14.366 212.735 15.007 212.276 15.563 211.697 16.003 211.038z"/>
    <path id="SOCTwt_2" d="M32.004 211.037C31.416 211.3 30.782 211.475 30.12 211.553 30.798 211.147 31.317 210.503 31.564 209.737 30.93 210.112 30.226 210.387 29.48 210.534 28.88 209.896 28.027 209.5 27.083 209.5 25.27 209.5 23.802 210.969 23.802 212.781 23.802 213.037 23.83 213.287 23.886 213.528 21.158 213.39 18.739 212.084 17.12 210.097 16.839 210.581 16.676 211.147 16.676 211.747 16.676 212.885 17.254 213.891 18.135 214.478 17.597 214.462 17.091 214.312 16.647 214.069 16.647 214.082 16.647 214.097 16.647 214.11 16.647 215.701 17.778 217.029 19.281 217.329 19.006 217.404 18.715 217.445 18.415 217.445 18.203 217.445 17.999 217.423 17.796 217.386 18.215 218.689 19.427 219.639 20.862 219.667 19.737 220.548 18.324 221.073 16.784 221.073 16.518 221.073 16.259 221.057 16 221.026 17.456 221.96 19.181 222.501 21.034 222.501 27.071 222.501 30.375 217.498 30.375 213.16 30.375 213.016 30.372 212.876 30.366 212.735 31.007 212.276 31.563 211.697 32.003 211.038z"/>
    <path id="SOCTwt_3" fill="#FFFFFF" d="M48.004 211.037C47.416 211.3 46.782 211.475 46.12 211.553 46.798 211.147 47.317 210.503 47.564 209.737 46.93 210.112 46.226 210.387 45.48 210.534 44.88 209.896 44.027 209.5 43.083 209.5 41.27 209.5 39.802 210.969 39.802 212.781 39.802 213.037 39.83 213.287 39.886 213.528 37.158 213.39 34.739 212.084 33.12 210.097 32.839 210.581 32.676 211.147 32.676 211.747 32.676 212.885 33.254 213.891 34.135 214.478 33.597 214.462 33.091 214.312 32.647 214.069 32.647 214.082 32.647 214.097 32.647 214.11 32.647 215.701 33.778 217.029 35.281 217.329 35.006 217.404 34.715 217.445 34.415 217.445 34.203 217.445 33.999 217.423 33.796 217.386 34.215 218.689 35.427 219.639 36.862 219.667 35.737 220.548 34.324 221.073 32.784 221.073 32.518 221.073 32.259 221.057 32 221.026 33.456 221.96 35.181 222.501 37.034 222.501 43.071 222.501 46.375 217.498 46.375 213.16 46.375 213.016 46.372 212.876 46.366 212.735 47.007 212.276 47.563 211.697 48.003 211.038z"/>
  </g>
  <g id="googleplus">
    <path id="SOCGpl_1" fill="#DC4E41" d="M16 231.33333h-1.66667v-1.66666H13v1.66666h-1.66667v1.33334H13v1.66666h1.33333v-1.66666H16M5.33333 231v2.08H8.24c-0.22333 1.25333-1.31 2.16667-2.90667 2.16667 -1.76 0-3.19-1.49001-3.19-3.25 0-1.76001 1.43-3.24667 3.19-3.24667 0.79333 0 1.50333 0.27333 2.06333 0.80667V229.56L8.9 228.05667c-0.92333-0.86-2.12667-1.39-3.56667-1.39C2.38666 226.66667 0 229.05333 0 232s2.38667 5.33333 5.33333 5.33333c3.08 0 5.12-2.16666 5.12-5.21333 0-0.39-0.03667-0.76334-0.10333-1.12H5.33333z"/>
    <path id="SOCGpl_2" d="M32 231.33333h-1.66667v-1.66666H29v1.66666h-1.66667v1.33334H29v1.66666h1.33333v-1.66666H32M21.33333 231v2.08H24.24c-0.22333 1.25333-1.31 2.16667-2.90667 2.16667 -1.76 0-3.19-1.49001-3.19-3.25 0-1.76001 1.43-3.24667 3.19-3.24667 0.79333 0 1.50333 0.27333 2.06333 0.80667V229.56L24.9 228.05667c-0.92333-0.86-2.12667-1.39-3.56667-1.39C18.38666 226.66667 16 229.05333 16 232s2.38667 5.33333 5.33333 5.33333c3.08 0 5.12-2.16666 5.12-5.21333 0-0.39-0.03667-0.76334-0.10333-1.12H21.33333z"/>
    <path id="SOCGpl_3" fill="#FFFFFF" d="M48 231.33333h-1.66666v-1.66666H45v1.66666h-1.66666v1.33334H45v1.66666h1.33334v-1.66666H48M37.33333 231v2.08H40.24c-0.22334 1.25333-1.31 2.16667-2.90667 2.16667 -1.76 0-3.19-1.49001-3.19-3.25 0-1.76001 1.43-3.24667 3.19-3.24667 0.79333 0 1.50333 0.27333 2.06333 0.80667V229.56L40.9 228.05667c-0.92333-0.86-2.12667-1.39-3.56667-1.39C34.38667 226.66667 32 229.05333 32 232s2.38667 5.33333 5.33333 5.33333c3.08 0 5.12-2.16666 5.12-5.21333 0-0.39-0.03667-0.76334-0.10333-1.12H37.33333z"/>
  </g>
  <g id="youtube">
    <path id="SOCYtb_1" fill="#CD201F" d="M15.99759 248c0 5.66406 0 5.66406-8 5.66406s-8 0-8-5.66406 0-5.66406 8-5.66406S15.99759 242.33594 15.99759 248zM10.99759 248l-5-3v6L10.99759 248z"/>
    <path id="SOCYtb_2" d="M31.99759 248c0 5.66406 0 5.66406-8 5.66406s-8 0-8-5.66406 0-5.66406 8-5.66406S31.99759 242.33594 31.99759 248zM26.99759 248l-5-3v6L26.99759 248z"/>
    <path id="SOCYtb_3" fill="#FFFFFF" d="M48 248c0 5.66406 0 5.66406-8 5.66406s-8 0-8-5.66406 0-5.66406 8-5.66406S48 242.33594 48 248zM43 248l-5-3v6L43 248z"/>
  </g>
  <g id="instagram">
    <path id="SOCIns_1" fill="#3F729B" d="M14.154 256L1.846 256C0.827 256 0 256.827 0 257.846L0 270.153C0 271.173 0.827 272 1.846 272L14.155 272C15.174 272 16 271.173 16 270.153L16 257.846C16 256.827 15.174 256 14.154 256ZM8 260.923C9.699 260.923 11.077 262.3 11.077 264 11.077 265.699 9.699 267.077 8 267.077 6.301 267.077 4.923 265.699 4.923 264 4.923 262.3 6.301 260.923 8 260.923ZM14 269.385C14 269.725 13.725 270 13.384 270L2.616 270C2.275 270 2 269.725 2 269.385L2 262.667 3.265 262.667C3.206 262.877 3.163 263.093 3.131 263.314 3.098 263.539 3.077 263.767 3.077 264 3.077 266.719 5.281 268.923 8 268.923 10.719 268.923 12.923 266.719 12.923 264 12.923 263.767 12.902 263.539 12.869 263.315 12.837 263.094 12.794 262.877 12.735 262.667L14 262.667 14 269.385ZM14 260.065C14 260.405 13.725 260.681 13.384 260.681L11.935 260.681C11.594 260.681 11.319 260.405 11.319 260.065L11.319 258.615C11.319 258.275 11.594 258 11.935 258L13.384 258C13.725 258 14 258.275 14 258.615L14 260.065z"/>
    <path id="SOCIns_2" d="M30.154 256L17.846 256C16.827 256 16 256.827 16 257.846L16 270.153C16 271.173 16.827 272 17.846 272L30.155 272C31.174 272 32 271.173 32 270.153L32 257.846C32 256.827 31.174 256 30.154 256ZM24 260.923C25.699 260.923 27.077 262.3 27.077 264 27.077 265.699 25.699 267.077 24 267.077 22.301 267.077 20.923 265.699 20.923 264 20.923 262.3 22.301 260.923 24 260.923ZM30 269.385C30 269.725 29.725 270 29.384 270L18.616 270C18.275 270 18 269.725 18 269.385L18 262.667 19.265 262.667C19.206 262.877 19.163 263.093 19.131 263.314 19.098 263.539 19.077 263.767 19.077 264 19.077 266.719 21.281 268.923 24 268.923 26.719 268.923 28.923 266.719 28.923 264 28.923 263.767 28.902 263.539 28.869 263.315 28.837 263.094 28.794 262.877 28.735 262.667L30 262.667 30 269.385ZM30 260.065C30 260.405 29.725 260.681 29.384 260.681L27.935 260.681C27.594 260.681 27.319 260.405 27.319 260.065L27.319 258.615C27.319 258.275 27.594 258 27.935 258L29.384 258C29.725 258 30 258.275 30 258.615L30 260.065z"/>
    <path id="SOCIns_3" fill="#FFFFFF" d="M46.154 256L33.846 256C32.827 256 32 256.827 32 257.846L32 270.153C32 271.173 32.827 272 33.846 272L46.155 272C47.174 272 48 271.173 48 270.153L48 257.846C48 256.827 47.174 256 46.154 256ZM40 260.923C41.699 260.923 43.077 262.3 43.077 264 43.077 265.699 41.699 267.077 40 267.077 38.301 267.077 36.923 265.699 36.923 264 36.923 262.3 38.301 260.923 40 260.923ZM46 269.385C46 269.725 45.725 270 45.384 270L34.616 270C34.275 270 34 269.725 34 269.385L34 262.667 35.265 262.667C35.206 262.877 35.163 263.093 35.131 263.314 35.098 263.539 35.077 263.767 35.077 264 35.077 266.719 37.281 268.923 40 268.923 42.719 268.923 44.923 266.719 44.923 264 44.923 263.767 44.902 263.539 44.869 263.315 44.837 263.094 44.794 262.877 44.735 262.667L46 262.667 46 269.385ZM46 260.065C46 260.405 45.725 260.681 45.384 260.681L43.935 260.681C43.594 260.681 43.319 260.405 43.319 260.065L43.319 258.615C43.319 258.275 43.594 258 43.935 258L45.384 258C45.725 258 46 258.275 46 258.615L46 260.065z"/>
  </g>
  <g id="linkedin">
    <path id="SOCLkd_1" fill="#0077B5" d="M1.98438 291.83228H1.96094c-1.17969 0-1.96094-0.8125-1.96094-1.83594 0-1.03125 0.79688-1.82812 2.01562-1.82812 1.20312 0 1.96875 0.79688 1.98438 1.82812C4 291.01978 3.21875 291.83228 1.98438 291.83228zM3.66406 293.49634v10.33594H0.33594v-10.33594H3.66406zM9 303.83228H5.66406v-8c0 0-0.05469-1.98438-0.05469-2.33594h3.28125L9 294.92603c0.66406-1 1.66406-1.75781 3-1.75781 2.33594 0 4 1.66406 4 4.66406v6h-3.33594v-5.66406c0-1.67188-0.8125-2.33594-1.8125-2.33594S9 296.49634 9 297.83228V303.83228z"/>
    <path id="SOCLkd_2" d="M17.98438 291.83228h-0.02344c-1.17969 0-1.96094-0.8125-1.96094-1.83594 0-1.03125 0.79688-1.82812 2.01562-1.82812 1.20312 0 1.96875 0.79688 1.98438 1.82812C20 291.01978 19.21875 291.83228 17.98438 291.83228zM19.66406 293.49634v10.33594h-3.32812v-10.33594H19.66406zM25 303.83228h-3.33594v-8c0 0-0.05469-1.98438-0.05469-2.33594h3.28125L25 294.92603c0.66406-1 1.66406-1.75781 3-1.75781 2.33594 0 4 1.66406 4 4.66406v6h-3.33594v-5.66406c0-1.67188-0.8125-2.33594-1.8125-2.33594S25 296.49634 25 297.83228V303.83228z"/>
    <path id="SOCLkd_3" fill="#FFFFFF" d="M33.98438 291.83228h-0.02344c-1.17969 0-1.96094-0.8125-1.96094-1.83594 0-1.03125 0.79688-1.82812 2.01562-1.82812 1.20312 0 1.96875 0.79688 1.98438 1.82812C36 291.01978 35.21875 291.83228 33.98438 291.83228zM35.66406 293.49634v10.33594h-3.32812v-10.33594H35.66406zM41 303.83228h-3.33594v-8c0 0-0.05469-1.98438-0.05469-2.33594h3.28125L41 294.92603c0.66406-1 1.66406-1.75781 3-1.75781 2.33594 0 4 1.66406 4 4.66406v6h-3.33594v-5.66406c0-1.67188-0.8125-2.33594-1.8125-2.33594S41 296.49634 41 297.83228V303.83228z"/>
  </g>
  <g id="blogger">
    <path id="SOCBlg_1" fill="#f26500" d="M15.209 326.021L13.909 326.021C13.243 326.021 13.119 325.511 13.119 324.883 13.12 322.186 10.938 320 8.247 320L4.873 320C2.181 320 0 322.186 0 324.883L0 331.117C0 333.814 2.181 336 4.873 336L11.128 336C13.819 336 16 333.814 16 331.117L16 326.813C16 326.375 15.646 326.021 15.209 326.021ZM4.924 324L7.743 324C8.253 324 8.667 324.447 8.667 325 8.667 325.553 8.253 326 7.743 326L4.924 326C4.413 326 4 325.553 4 325 4 324.447 4.413 324 4.924 324ZM11.013 332L4.987 332C4.442 332 4 331.552 4 331 4 330.447 4.442 330 4.987 330L11.013 330C11.557 330 11.999 330.447 11.999 331 12 331.552 11.558 332 11.013 332z"/>
    <path id="SOCBlg_2" d="M31.209 326.021L29.909 326.021C29.243 326.021 29.119 325.511 29.119 324.883 29.12 322.186 26.938 320 24.247 320L20.873 320C18.181 320 16 322.186 16 324.883L16 331.117C16 333.814 18.181 336 20.873 336L27.128 336C29.819 336 32 333.814 32 331.117L32 326.813C32 326.375 31.646 326.021 31.209 326.021ZM20.924 324L23.743 324C24.253 324 24.667 324.447 24.667 325 24.667 325.553 24.253 326 23.743 326L20.924 326C20.413 326 20 325.553 20 325 20 324.447 20.413 324 20.924 324ZM27.013 332L20.987 332C20.442 332 20 331.552 20 331 20 330.447 20.442 330 20.987 330L27.013 330C27.557 330 27.999 330.447 27.999 331 28 331.552 27.558 332 27.013 332z"/>
    <path id="SOCBlg_3" fill="#FFFFFF" d="M47.209 326.021L45.909 326.021C45.243 326.021 45.119 325.511 45.119 324.883 45.12 322.186 42.938 320 40.247 320L36.873 320C34.181 320 32 322.186 32 324.883L32 331.117C32 333.814 34.181 336 36.873 336L43.128 336C45.819 336 48 333.814 48 331.117L48 326.813C48 326.375 47.646 326.021 47.209 326.021ZM36.924 324L39.743 324C40.253 324 40.667 324.447 40.667 325 40.667 325.553 40.253 326 39.743 326L36.924 326C36.413 326 36 325.553 36 325 36 324.447 36.413 324 36.924 324ZM43.013 332L36.987 332C36.442 332 36 331.552 36 331 36 330.447 36.442 330 36.987 330L43.013 330C43.557 330 43.999 330.447 43.999 331 44 331.552 43.558 332 43.013 332z"/>
  </g>
  <g id="link">
    <path id="GDSId_38" fill="#AAAAAA" d="M4.318 69.921C4.596 69.643 4.904 69.413 5.233 69.232 7.062 68.224 9.407 68.76 10.583 70.543L9.16 71.965C8.752 71.035 7.739 70.505 6.731 70.73 6.352 70.815 5.991 71.005 5.696 71.299L2.97 74.027C2.141 74.855 2.141 76.202 2.97 77.03 3.798 77.858 5.145 77.858 5.973 77.03L6.813 76.189C7.578 76.493 8.398 76.614 9.208 76.554L7.352 78.409C5.761 80 3.182 80 1.591 78.409 0 76.819 0 74.239 1.591 72.649L4.318 69.921ZM8.649 65.59L6.793 67.446C7.602 67.385 8.423 67.507 9.187 67.809L10.027 66.969C10.856 66.141 12.202 66.141 13.031 66.969 13.859 67.797 13.859 69.144 13.031 69.972L10.303 72.699C9.472 73.53 8.124 73.523 7.3 72.699 7.108 72.507 6.943 72.269 6.839 72.034L5.416 73.456C5.566 73.683 5.721 73.878 5.921 74.078 6.435 74.592 7.09 74.976 7.844 75.157 8.821 75.392 9.868 75.263 10.767 74.767 11.095 74.585 11.404 74.356 11.682 74.078L14.409 71.351C16 69.76 16 67.181 14.409 65.59 12.818 64 10.24 64 8.649 65.59z"/>
    <path id="GDSId_39" d="M20.318 69.921C20.596 69.643 20.904 69.413 21.233 69.232 23.062 68.224 25.407 68.76 26.583 70.543L25.16 71.965C24.752 71.035 23.739 70.505 22.731 70.73 22.352 70.815 21.991 71.005 21.696 71.299L18.97 74.027C18.141 74.855 18.141 76.202 18.97 77.03 19.798 77.858 21.145 77.858 21.973 77.03L22.813 76.189C23.578 76.493 24.398 76.614 25.208 76.554L23.352 78.409C21.761 80 19.182 80 17.591 78.409 16 76.819 16 74.239 17.591 72.649L20.318 69.921ZM24.649 65.59L22.793 67.446C23.602 67.385 24.423 67.507 25.187 67.809L26.027 66.969C26.856 66.141 28.202 66.141 29.031 66.969 29.859 67.797 29.859 69.144 29.031 69.972L26.303 72.699C25.472 73.53 24.124 73.523 23.3 72.699 23.108 72.507 22.943 72.269 22.839 72.034L21.416 73.456C21.566 73.683 21.721 73.878 21.921 74.078 22.435 74.592 23.09 74.976 23.844 75.157 24.821 75.392 25.868 75.263 26.767 74.767 27.095 74.585 27.404 74.356 27.682 74.078L30.409 71.351C32 69.76 32 67.181 30.409 65.59 28.818 64 26.24 64 24.649 65.59z"/>
    <path id="GDSId_40" fill="#FFFFFF" d="M36.318 69.921C36.596 69.643 36.904 69.413 37.233 69.232 39.062 68.224 41.407 68.76 42.583 70.543L41.16 71.965C40.752 71.035 39.739 70.505 38.731 70.73 38.352 70.815 37.991 71.005 37.696 71.299L34.97 74.027C34.141 74.855 34.141 76.202 34.97 77.03 35.798 77.858 37.145 77.858 37.973 77.03L38.813 76.189C39.578 76.493 40.398 76.614 41.208 76.554L39.352 78.409C37.761 80 35.182 80 33.591 78.409 32 76.819 32 74.239 33.591 72.649L36.318 69.921ZM40.649 65.59L38.793 67.446C39.602 67.385 40.423 67.507 41.187 67.809L42.027 66.969C42.856 66.141 44.202 66.141 45.031 66.969 45.859 67.797 45.859 69.144 45.031 69.972L42.303 72.699C41.472 73.53 40.124 73.523 39.3 72.699 39.108 72.507 38.943 72.269 38.839 72.034L37.416 73.456C37.566 73.683 37.721 73.878 37.921 74.078 38.435 74.592 39.09 74.976 39.844 75.157 40.821 75.392 41.868 75.263 42.767 74.767 43.095 74.585 43.404 74.356 43.682 74.078L46.409 71.351C48 69.76 48 67.181 46.409 65.59 44.818 64 42.24 64 40.649 65.59z"/>
  </g>
  <g id="clock">
    <path id="GDSId_41" fill="#AAAAAA" d="M3.98929 81.0752C5.21683 80.3584 6.55325 80 7.99759 80s2.78027 0.3584 4.0083 1.0752c1.22754 0.7168 2.2002 1.68848 2.9165 2.91602 0.7168 1.22852 1.0752 2.56445 1.0752 4.00879s-0.3584 2.78027-1.0752 4.00879c-0.71631 1.22754-1.68896 2.19922-2.9165 2.91602C10.77786 95.6416 9.44193 96 7.99759 96s-2.78076-0.3584-4.0083-1.0752c-1.22803-0.7168-2.2002-1.68848-2.9165-2.91602C0.35599 90.78027-0.00241 89.44434-0.00241 88s0.3584-2.78027 1.0752-4.00879C1.78909 82.76367 2.76126 81.79199 3.98929 81.0752zM3.79739 92.2002c1.17773 1.17773 2.57764 1.7666 4.2002 1.7666 1.62207 0 3.02197-0.58887 4.2002-1.7666 1.17725-1.17773 1.7666-2.57812 1.7666-4.2002s-0.58936-3.02246-1.7666-4.2002c-1.17822-1.17773-2.57812-1.7666-4.2002-1.7666 -1.62256 0-3.02246 0.58887-4.2002 1.7666S2.03079 86.37793 2.03079 88 2.61966 91.02246 3.79739 92.2002zM11.06448 91.13379c-0.16699 0.15527-0.36426 0.23242-0.5918 0.23242 -0.22803 0-0.42529-0.07715-0.5918-0.23242l-2.6333-2.10059c-0.2334-0.21094-0.33887-0.46094-0.31689-0.75l0.18359-4.2334c0.01074-0.24414 0.10547-0.4502 0.2832-0.61621 0.17773-0.16699 0.38867-0.24414 0.6333-0.2334 0.2334 0.01074 0.43066 0.09961 0.5918 0.2666s0.24707 0.36133 0.2583 0.58301l0.1665 3.7832 2.06689 2.0332c0.1665 0.17871 0.24414 0.39258 0.2334 0.64258C11.33646 90.75879 11.24173 90.9668 11.06448 91.13379z"/>
    <path id="GDSId_42" d="M19.9917 81.0752C21.21924 80.3584 22.55566 80 24 80s2.78027 0.3584 4.0083 1.0752c1.22754 0.7168 2.2002 1.68848 2.9165 2.91602C31.6416 85.21973 32 86.55566 32 88s-0.3584 2.78027-1.0752 4.00879c-0.71631 1.22754-1.68896 2.19922-2.9165 2.91602C26.78027 95.6416 25.44434 96 24 96s-2.78076-0.3584-4.0083-1.0752c-1.22803-0.7168-2.2002-1.68848-2.9165-2.91602C16.3584 90.78027 16 89.44434 16 88s0.3584-2.78027 1.0752-4.00879C17.7915 82.76367 18.76367 81.79199 19.9917 81.0752zM19.7998 92.2002c1.17773 1.17773 2.57764 1.7666 4.2002 1.7666 1.62207 0 3.02197-0.58887 4.2002-1.7666 1.17725-1.17773 1.7666-2.57812 1.7666-4.2002s-0.58936-3.02246-1.7666-4.2002c-1.17822-1.17773-2.57812-1.7666-4.2002-1.7666 -1.62256 0-3.02246 0.58887-4.2002 1.7666S18.0332 86.37793 18.0332 88 18.62207 91.02246 19.7998 92.2002zM27.06689 91.13379c-0.16699 0.15527-0.36426 0.23242-0.5918 0.23242 -0.22803 0-0.42529-0.07715-0.5918-0.23242L23.25 89.0332c-0.2334-0.21094-0.33887-0.46094-0.31689-0.75l0.18359-4.2334c0.01074-0.24414 0.10547-0.4502 0.2832-0.61621 0.17773-0.16699 0.38867-0.24414 0.6333-0.2334 0.2334 0.01074 0.43066 0.09961 0.5918 0.2666s0.24707 0.36133 0.2583 0.58301l0.1665 3.7832 2.06689 2.0332c0.1665 0.17871 0.24414 0.39258 0.2334 0.64258C27.33887 90.75879 27.24414 90.9668 27.06689 91.13379z"/>
    <path id="GDSId_43" fill="#FFFFFF" d="M35.98929 81.0752C37.21683 80.3584 38.55325 80 39.99759 80s2.78027 0.3584 4.0083 1.0752c1.22754 0.7168 2.2002 1.68848 2.9165 2.91602 0.7168 1.22852 1.0752 2.56445 1.0752 4.00879s-0.3584 2.78027-1.0752 4.00879c-0.71631 1.22754-1.68896 2.19922-2.9165 2.91602C42.77786 95.6416 41.44193 96 39.99759 96s-2.78076-0.3584-4.0083-1.0752c-1.22803-0.7168-2.2002-1.68848-2.9165-2.91602 -0.7168-1.22852-1.0752-2.56445-1.0752-4.00879s0.3584-2.78027 1.0752-4.00879C33.78909 82.76367 34.76126 81.79199 35.98929 81.0752zM35.79739 92.2002c1.17773 1.17773 2.57764 1.7666 4.2002 1.7666 1.62207 0 3.02197-0.58887 4.2002-1.7666 1.17725-1.17773 1.7666-2.57812 1.7666-4.2002s-0.58936-3.02246-1.7666-4.2002c-1.17822-1.17773-2.57812-1.7666-4.2002-1.7666 -1.62256 0-3.02246 0.58887-4.2002 1.7666s-1.7666 2.57812-1.7666 4.2002S34.61966 91.02246 35.79739 92.2002zM43.06448 91.13379c-0.16699 0.15527-0.36426 0.23242-0.5918 0.23242 -0.22803 0-0.42529-0.07715-0.5918-0.23242l-2.6333-2.10059c-0.2334-0.21094-0.33887-0.46094-0.31689-0.75l0.18359-4.2334c0.01074-0.24414 0.10547-0.4502 0.2832-0.61621 0.17773-0.16699 0.38867-0.24414 0.6333-0.2334 0.2334 0.01074 0.43066 0.09961 0.5918 0.2666s0.24707 0.36133 0.2583 0.58301l0.1665 3.7832 2.06689 2.0332c0.1665 0.17871 0.24414 0.39258 0.2334 0.64258C43.33646 90.75879 43.24173 90.9668 43.06448 91.13379z"/>
  </g>
  <g id="tumblr">
    <path id="SOCTmb_1" fill="#36465D" d="M6.088 304C5.972 304.824 5.76 305.503 5.452 306.037 5.144 306.57 4.735 307.026 4.225 307.409 3.716 307.789 3.104 308.082 2.39 308.285L2.39 310.564 4.389 310.564 4.389 316.172C4.389 316.903 4.476 317.46 4.649 317.845 4.825 318.229 5.139 318.592 5.591 318.935 6.044 319.276 6.591 319.539 7.232 319.724 7.872 319.908 8.61 320 9.443 320 10.177 320 10.861 319.936 11.494 319.807 12.124 319.677 12.83 319.452 13.61 319.13L13.61 316.615C12.695 317.141 11.777 317.405 10.854 317.405 10.334 317.405 9.872 317.298 9.467 317.085 9.164 316.929 8.954 316.718 8.842 316.455 8.731 316.191 8.675 315.596 8.675 314.668L8.675 310.564 13.008 310.564 13.008 308.052 8.675 308.052 8.675 304 6.088 304z"/>
    <path id="SOCTmb_2" d="M22.088 304C21.972 304.824 21.76 305.503 21.452 306.037 21.144 306.57 20.735 307.026 20.225 307.409 19.716 307.789 19.104 308.082 18.39 308.285L18.39 310.564 20.389 310.564 20.389 316.172C20.389 316.903 20.476 317.46 20.649 317.845 20.825 318.229 21.139 318.592 21.591 318.935 22.044 319.276 22.591 319.539 23.232 319.724 23.872 319.908 24.61 320 25.443 320 26.177 320 26.861 319.936 27.494 319.807 28.124 319.677 28.83 319.452 29.61 319.13L29.61 316.615C28.695 317.141 27.777 317.405 26.854 317.405 26.334 317.405 25.872 317.298 25.467 317.085 25.164 316.929 24.954 316.718 24.842 316.455 24.731 316.191 24.675 315.596 24.675 314.668L24.675 310.564 29.008 310.564 29.008 308.052 24.675 308.052 24.675 304 22.088 304z"/>
    <path id="SOCTmb_3" fill="#FFFFFF" d="M38.088 304C37.972 304.824 37.76 305.503 37.452 306.037 37.144 306.57 36.735 307.026 36.225 307.409 35.716 307.789 35.104 308.082 34.39 308.285L34.39 310.564 36.389 310.564 36.389 316.172C36.389 316.903 36.476 317.46 36.649 317.845 36.825 318.229 37.139 318.592 37.591 318.935 38.044 319.276 38.591 319.539 39.232 319.724 39.872 319.908 40.61 320 41.443 320 42.177 320 42.861 319.936 43.494 319.807 44.124 319.677 44.83 319.452 45.61 319.13L45.61 316.615C44.695 317.141 43.777 317.405 42.854 317.405 42.334 317.405 41.872 317.298 41.467 317.085 41.164 316.929 40.954 316.718 40.842 316.455 40.731 316.191 40.675 315.596 40.675 314.668L40.675 310.564 45.008 310.564 45.008 308.052 40.675 308.052 40.675 304 38.088 304z"/>
  </g>
</svg>