<svg xmlns="http://www.w3.org/2000/svg" xmlns:xlink="http://www.w3.org/1999/xlink" version="1.1" x="0px" y="0px" viewBox="0 0 48 352" enable-background="new 0 0 48 352" xml:space="preserve">
<g id="tumblr">
<path id="tumblr-icon" fill="#35465c" d="M19.435,23.547c-0.64,0-1.206-0.149-1.704-0.447C17.354,22.877,17,22.406,17,22s0-0.699,0-2v-6h5v-4h-5V5   h-4c0,0.576,0,2,0,2c0,2.209-1.791,4-4,4v3h3v8c0,1.026-0.031,1.828,0.15,2.284c0.216,0.541,0.485,1.022,1.041,1.503   c0.558,0.478,0.998,0.765,1.787,1.023c0.863,0.285,1.775,0.39,2.72,0.39c0.903,0,1.744-0.091,2.521-0.272   c0.777-0.182,1.848-0.544,2.781-1.128v-3.5C21.892,23.16,20.57,23.547,19.435,23.547z"></path>
</g>
</svg>
