<svg xmlns="http://www.w3.org/2000/svg" xmlns:xlink="http://www.w3.org/1999/xlink" version="1.1" x="0px" y="0px" viewBox="0 0 48 352" enable-background="new 0 0 48 352" xml:space="preserve">
<g id="XMLID_140_">
<path id="XMLID_141_" fill="#35465c" d="M16,177v14c0,0.54688-0.45312,1-1,1h-4v-6.21875h2l0.33594-2.30469H11v-1.8125    c0-0.65625,0.33594-1.03125,1-1.03125h1.5v-2.07812c0,0-0.67188-0.10938-1.64062-0.10938    c-2.19531,0-3.30469,1.21875-3.30469,3.03906v1.99219h-2v2.30469h2V192H1c-0.54688,0-1-0.45312-1-1v-14c0-0.54688,0.45312-1,1-1    h14C15.54688,176,16,176.45312,16,177z"></path>
</g>
</svg>
