<svg viewBox="0 0 16 16" xmlns="http://www.w3.org/2000/svg"><path fill="#FFF" d="M2.367 1.598C2.471 0.767 3.213 0.107 4.148 0.012L4.148 0 14.015 0 14.015 0C15.115 0.019 16 0.817 16 1.799 16 2.78 15.115 3.578 14.015 3.598L14.015 3.598 13.994 3.598C13.988 3.598 13.981 3.598 13.974 3.598 13.968 3.598 13.961 3.598 13.954 3.598L6.099 3.598 4.028 14.498 4.024 14.497C3.865 15.35 3.031 16 2.026 16 0.907 16 0 15.195 0 14.201 0 14.079 0.014 13.96 0.04 13.846L0.038 13.845 2.365 1.597ZM12.07 5.361L11.227 7.969 13.49 9.508 10.636 9.673 9.682 12.251 8.762 9.745 5.91 9.8 8.195 8.086 7.386 5.542 9.718 6.989Z"/></svg>
