<svg width="1264" height="1264" viewBox="0 0 1264 1264" xmlns="http://www.w3.org/2000/svg" xmlns:xlink="http://www.w3.org/1999/xlink"><svg width="16" height="16" viewBox="-7.5 992.5 16 16" id="blogger"><path fill="#f26500" d="M7.71 998.52h-1.3c-.667 0-.79-.51-.79-1.137 0-2.697-2.182-4.883-4.873-4.883h-3.374c-2.692 0-4.873 2.186-4.873 4.883v6.234c0 2.697 2.18 4.883 4.873 4.883h6.255c2.69 0 4.872-2.186 4.872-4.883v-4.304c0-.438-.354-.792-.79-.792zm-10.286-2.02h2.82c.51 0 .923.447.923 1 0 .553-.414 1-.924 1h-2.82c-.51 0-.923-.447-.923-1 0-.553.413-1 .924-1zm6.09 8h-6.027c-.545 0-.987-.448-.987-1 0-.553.442-1 .987-1h6.026c.544 0 .986.447.986 1 0 .552-.443 1-.988 1z"/></svg><svg width="16" height="16" viewBox="-7.5 992.5 16 16" id="blogger-dark" x="16" y="16"><path d="M7.71 998.52h-1.3c-.667 0-.79-.51-.79-1.137 0-2.697-2.182-4.883-4.873-4.883h-3.374c-2.692 0-4.873 2.186-4.873 4.883v6.234c0 2.697 2.18 4.883 4.873 4.883h6.255c2.69 0 4.872-2.186 4.872-4.883v-4.304c0-.438-.354-.792-.79-.792zm-10.286-2.02h2.82c.51 0 .923.447.923 1 0 .553-.414 1-.924 1h-2.82c-.51 0-.923-.447-.923-1 0-.553.413-1 .924-1zm6.09 8h-6.027c-.545 0-.987-.448-.987-1 0-.553.442-1 .987-1h6.026c.544 0 .986.447.986 1 0 .552-.443 1-.988 1z"/></svg><svg width="16" height="16" viewBox="-7.5 992.5 16 16" id="blogger-light" x="32" y="32"><path fill="#fff" d="M7.71 998.52h-1.3c-.667 0-.79-.51-.79-1.137 0-2.697-2.182-4.883-4.873-4.883h-3.374c-2.692 0-4.873 2.186-4.873 4.883v6.234c0 2.697 2.18 4.883 4.873 4.883h6.255c2.69 0 4.872-2.186 4.872-4.883v-4.304c0-.438-.354-.792-.79-.792zm-10.286-2.02h2.82c.51 0 .923.447.923 1 0 .553-.414 1-.924 1h-2.82c-.51 0-.923-.447-.923-1 0-.553.413-1 .924-1zm6.09 8h-6.027c-.545 0-.987-.448-.987-1 0-.553.442-1 .987-1h6.026c.544 0 .986.447.986 1 0 .552-.443 1-.988 1z"/></svg><svg width="16" height="16" viewBox="-7.5 992.5 16 16" id="bookmark" x="48" y="48"><path fill="#3b5998" d="M5.5 992.5h-10c-.55 0-1 .45-1 1v14.5a.5.5 0 0 0 .82.383l4.86-4.05a.502.502 0 0 1 .64 0l4.86 4.05a.5.5 0 0 0 .82-.384v-14.5c0-.55-.45-1-1-1z"/></svg><svg width="16" height="16" viewBox="-7.5 992.5 16 16" id="bookmark-dark" x="64" y="64"><path d="M5.5 992.5h-10c-.55 0-1 .45-1 1v14.5a.5.5 0 0 0 .82.383l4.86-4.05a.502.502 0 0 1 .64 0l4.86 4.05a.5.5 0 0 0 .82-.384v-14.5c0-.55-.45-1-1-1z"/></svg><svg width="16" height="16" viewBox="-7.5 992.5 16 16" id="bookmark-light" x="80" y="80"><path fill="#fff" d="M5.5 992.5h-10c-.55 0-1 .45-1 1v14.5a.5.5 0 0 0 .82.383l4.86-4.05a.502.502 0 0 1 .64 0l4.86 4.05a.5.5 0 0 0 .82-.384v-14.5c0-.55-.45-1-1-1z"/></svg><svg width="16" height="16" viewBox="-7.5 992.5 16 16" id="calendar" x="96" y="96"><path fill="#aaa" d="M7.333 994.684c.19.044.342.14.46.283a.78.78 0 0 1 .173.5v11.65a.78.78 0 0 1-.174.5.817.817 0 0 1-.46.283l-.132.033a46.88 46.88 0 0 0-.8.133c-.188.033-.405.064-.65.092l-.79.092c-.285.033-.595.065-.934.1-.34.034-.69.062-1.05.084-.36.022-.756.04-1.184.05a50.178 50.178 0 0 1-2.584 0 31.484 31.484 0 0 1-2.234-.134 49.978 49.978 0 0 1-.933-.1l-.79-.092a10.488 10.488 0 0 1-.65-.092 52.068 52.068 0 0 0-.8-.133l-.133-.033a.822.822 0 0 1-.46-.283.775.775 0 0 1-.174-.5v-11.65c0-.188.058-.355.175-.5s.27-.24.46-.283a25.397 25.397 0 0 1 1.5-.234v.718c0 .39.138.708.415.958.278.25.61.375 1 .375a1.035 1.035 0 0 1-.35-.8v-2.132c0-.288.105-.54.316-.75s.46-.316.75-.316.54.106.75.317.315.46.315.75v.583a42.02 42.02 0 0 1 3.2-.033v1.05c0 .39.14.71.417.96.278.25.612.374 1 .374a1.035 1.035 0 0 1-.35-.8v-2.133c0-.287.106-.54.317-.75s.463-.316.752-.316.54.105.75.316.316.462.316.75v.75c1.067.112 1.922.234 2.567.368zm-6.833 12.3c2.044 0 4-.156 5.866-.468V998.9H-5.366v7.616a35.54 35.54 0 0 0 5.866.467zm-2.134-1.684h-2.133v-2.133h2.133v2.133zm3.2-5.333v2.133H-.567v-2.133h2.133zm0 5.333H-.567v-2.133h2.133v2.133zm3.2-5.333v2.133h-2.13v-2.133h2.132zm0 5.333h-2.13v-2.133h2.132v2.133z"/></svg><svg width="16" height="16" viewBox="-7.5 992.5 16 16" id="calendar-blue" x="112" y="112"><path fill="#00cccd" d="M7.333 994.684c.19.044.342.14.46.283a.78.78 0 0 1 .173.5v11.65a.78.78 0 0 1-.174.5.817.817 0 0 1-.46.283l-.132.033a46.88 46.88 0 0 0-.8.133c-.188.033-.405.064-.65.092l-.79.092c-.285.033-.595.065-.934.1-.34.034-.69.062-1.05.084-.36.022-.756.04-1.184.05a50.178 50.178 0 0 1-2.584 0 31.484 31.484 0 0 1-2.234-.134 49.978 49.978 0 0 1-.933-.1l-.79-.092a10.488 10.488 0 0 1-.65-.092 52.068 52.068 0 0 0-.8-.133l-.133-.033a.822.822 0 0 1-.46-.283.775.775 0 0 1-.174-.5v-11.65c0-.188.058-.355.175-.5s.27-.24.46-.283a25.397 25.397 0 0 1 1.5-.234v.718c0 .39.138.708.415.958.278.25.61.375 1 .375a1.035 1.035 0 0 1-.35-.8v-2.132c0-.288.105-.54.316-.75s.46-.316.75-.316.54.106.75.317.315.46.315.75v.583a42.02 42.02 0 0 1 3.2-.033v1.05c0 .39.14.71.417.96.278.25.612.374 1 .374a1.035 1.035 0 0 1-.35-.8v-2.133c0-.287.106-.54.317-.75s.463-.316.752-.316.54.105.75.316.316.462.316.75v.75c1.067.112 1.922.234 2.567.368zm-6.833 12.3c2.044 0 4-.156 5.866-.468V998.9H-5.366v7.616a35.54 35.54 0 0 0 5.866.467zm-2.134-1.684h-2.133v-2.133h2.133v2.133zm3.2-5.333v2.133H-.567v-2.133h2.133zm0 5.333H-.567v-2.133h2.133v2.133zm3.2-5.333v2.133h-2.13v-2.133h2.132zm0 5.333h-2.13v-2.133h2.132v2.133z"/></svg><svg width="16" height="16" viewBox="-7.5 992.5 16 16" id="calendar-dark" x="128" y="128"><path d="M7.333 994.684c.19.044.342.14.46.283a.78.78 0 0 1 .173.5v11.65a.78.78 0 0 1-.174.5.817.817 0 0 1-.46.283l-.132.033a46.88 46.88 0 0 0-.8.133c-.188.033-.405.064-.65.092l-.79.092c-.285.033-.595.065-.934.1-.34.034-.69.062-1.05.084-.36.022-.756.04-1.184.05a50.178 50.178 0 0 1-2.584 0 31.484 31.484 0 0 1-2.234-.134 49.978 49.978 0 0 1-.933-.1l-.79-.092a10.488 10.488 0 0 1-.65-.092 52.068 52.068 0 0 0-.8-.133l-.133-.033a.822.822 0 0 1-.46-.283.775.775 0 0 1-.174-.5v-11.65c0-.188.058-.355.175-.5s.27-.24.46-.283a25.397 25.397 0 0 1 1.5-.234v.718c0 .39.138.708.415.958.278.25.61.375 1 .375a1.035 1.035 0 0 1-.35-.8v-2.132c0-.288.105-.54.316-.75s.46-.316.75-.316.54.106.75.317.315.46.315.75v.583a42.02 42.02 0 0 1 3.2-.033v1.05c0 .39.14.71.417.96.278.25.612.374 1 .374a1.035 1.035 0 0 1-.35-.8v-2.133c0-.287.106-.54.317-.75s.463-.316.752-.316.54.105.75.316.316.462.316.75v.75c1.067.112 1.922.234 2.567.368zm-6.833 12.3c2.044 0 4-.156 5.866-.468V998.9H-5.366v7.616a35.54 35.54 0 0 0 5.866.467zm-2.134-1.684h-2.133v-2.133h2.133v2.133zm3.2-5.333v2.133H-.567v-2.133h2.133zm0 5.333H-.567v-2.133h2.133v2.133zm3.2-5.333v2.133h-2.13v-2.133h2.132zm0 5.333h-2.13v-2.133h2.132v2.133z"/></svg><svg width="16" height="16" viewBox="-7.5 992.5 16 16" id="calendar-light" x="144" y="144"><path fill="#fff" d="M7.333 994.684c.19.044.342.14.46.283a.78.78 0 0 1 .173.5v11.65a.78.78 0 0 1-.174.5.817.817 0 0 1-.46.283l-.132.033a46.88 46.88 0 0 0-.8.133c-.188.033-.405.064-.65.092l-.79.092c-.285.033-.595.065-.934.1-.34.034-.69.062-1.05.084-.36.022-.756.04-1.184.05a50.178 50.178 0 0 1-2.584 0 31.484 31.484 0 0 1-2.234-.134 49.978 49.978 0 0 1-.933-.1l-.79-.092a10.488 10.488 0 0 1-.65-.092 52.068 52.068 0 0 0-.8-.133l-.133-.033a.822.822 0 0 1-.46-.283.775.775 0 0 1-.174-.5v-11.65c0-.188.058-.355.175-.5s.27-.24.46-.283a25.397 25.397 0 0 1 1.5-.234v.718c0 .39.138.708.415.958.278.25.61.375 1 .375a1.035 1.035 0 0 1-.35-.8v-2.132c0-.288.105-.54.316-.75s.46-.316.75-.316.54.106.75.317.315.46.315.75v.583a42.02 42.02 0 0 1 3.2-.033v1.05c0 .39.14.71.417.96.278.25.612.374 1 .374a1.035 1.035 0 0 1-.35-.8v-2.133c0-.287.106-.54.317-.75s.463-.316.752-.316.54.105.75.316.316.462.316.75v.75c1.067.112 1.922.234 2.567.368zm-6.833 12.3c2.044 0 4-.156 5.866-.468V998.9H-5.366v7.616a35.54 35.54 0 0 0 5.866.467zm-2.134-1.684h-2.133v-2.133h2.133v2.133zm3.2-5.333v2.133H-.567v-2.133h2.133zm0 5.333H-.567v-2.133h2.133v2.133zm3.2-5.333v2.133h-2.13v-2.133h2.132zm0 5.333h-2.13v-2.133h2.132v2.133z"/></svg><svg width="16" height="16" viewBox="-7.5 992.5 16 16" id="clock" x="160" y="160"><path fill="#aaa" d="M-3.508 993.575C-2.28 992.858-.944 992.5.5 992.5s2.78.358 4.008 1.075a7.982 7.982 0 0 1 2.917 2.916c.717 1.23 1.075 2.566 1.075 4.01s-.358 2.78-1.075 4.01a7.975 7.975 0 0 1-2.917 2.916c-1.228.717-2.564 1.075-4.008 1.075s-2.78-.357-4.008-1.074a7.982 7.982 0 0 1-2.917-2.916c-.717-1.23-1.075-2.565-1.075-4.01s.358-2.78 1.075-4.01a7.99 7.99 0 0 1 2.917-2.915zM-3.7 1004.7c1.178 1.178 2.578 1.767 4.2 1.767 1.622 0 3.022-.59 4.2-1.767 1.177-1.178 1.767-2.578 1.767-4.2s-.59-3.022-1.767-4.2c-1.178-1.178-2.578-1.767-4.2-1.767-1.623 0-3.022.59-4.2 1.767s-1.767 2.578-1.767 4.2.59 3.022 1.767 4.2zm7.267-1.066a.84.84 0 0 1-.592.232.84.84 0 0 1-.592-.232l-2.633-2.1c-.233-.212-.34-.462-.317-.75l.184-4.234a.866.866 0 0 1 .283-.616.834.834 0 0 1 .633-.233c.233.013.43.1.592.27s.247.36.258.582l.167 3.784 2.067 2.033a.85.85 0 0 1 .233.642.88.88 0 0 1-.283.624z"/></svg><svg width="16" height="16" viewBox="-7.5 992.5 16 16" id="clock-dark" x="176" y="176"><path d="M-3.508 993.575C-2.28 992.858-.944 992.5.5 992.5s2.78.358 4.008 1.075a7.982 7.982 0 0 1 2.917 2.916c.717 1.23 1.075 2.566 1.075 4.01s-.358 2.78-1.075 4.01a7.975 7.975 0 0 1-2.917 2.916c-1.228.717-2.564 1.075-4.008 1.075s-2.78-.357-4.008-1.074a7.982 7.982 0 0 1-2.917-2.916c-.717-1.23-1.075-2.565-1.075-4.01s.358-2.78 1.075-4.01a7.99 7.99 0 0 1 2.917-2.915zM-3.7 1004.7c1.178 1.178 2.578 1.767 4.2 1.767 1.622 0 3.022-.59 4.2-1.767 1.177-1.178 1.767-2.578 1.767-4.2s-.59-3.022-1.767-4.2c-1.178-1.178-2.578-1.767-4.2-1.767-1.623 0-3.022.59-4.2 1.767s-1.767 2.578-1.767 4.2.59 3.022 1.767 4.2zm7.267-1.066a.84.84 0 0 1-.592.232.84.84 0 0 1-.592-.232l-2.633-2.1c-.233-.212-.34-.462-.317-.75l.184-4.234a.866.866 0 0 1 .283-.616.834.834 0 0 1 .633-.233c.233.013.43.1.592.27s.247.36.258.582l.167 3.784 2.067 2.033a.85.85 0 0 1 .233.642.88.88 0 0 1-.283.624z"/></svg><svg width="16" height="16" viewBox="-7.5 992.5 16 16" id="clock-light" x="192" y="192"><path fill="#fff" d="M-3.508 993.575C-2.28 992.858-.944 992.5.5 992.5s2.78.358 4.008 1.075a7.982 7.982 0 0 1 2.917 2.916c.717 1.23 1.075 2.566 1.075 4.01s-.358 2.78-1.075 4.01a7.975 7.975 0 0 1-2.917 2.916c-1.228.717-2.564 1.075-4.008 1.075s-2.78-.357-4.008-1.074a7.982 7.982 0 0 1-2.917-2.916c-.717-1.23-1.075-2.565-1.075-4.01s.358-2.78 1.075-4.01a7.99 7.99 0 0 1 2.917-2.915zM-3.7 1004.7c1.178 1.178 2.578 1.767 4.2 1.767 1.622 0 3.022-.59 4.2-1.767 1.177-1.178 1.767-2.578 1.767-4.2s-.59-3.022-1.767-4.2c-1.178-1.178-2.578-1.767-4.2-1.767-1.623 0-3.022.59-4.2 1.767s-1.767 2.578-1.767 4.2.59 3.022 1.767 4.2zm7.267-1.066a.84.84 0 0 1-.592.232.84.84 0 0 1-.592-.232l-2.633-2.1c-.233-.212-.34-.462-.317-.75l.184-4.234a.866.866 0 0 1 .283-.616.834.834 0 0 1 .633-.233c.233.013.43.1.592.27s.247.36.258.582l.167 3.784 2.067 2.033a.85.85 0 0 1 .233.642.88.88 0 0 1-.283.624z"/></svg><svg width="16" height="16" viewBox="-7.5 992.5 16 16" id="comments" x="208" y="208"><path fill="#aaa" d="M8.492 994.9c0-.77-.712-1.4-1.592-1.4H-5.9c-.88 0-1.6.63-1.6 1.4v8.4c0 .77.72 1.4 1.6 1.4H5.3l3.2 2.8-.008-12.6z"/></svg><svg width="16" height="16" viewBox="-7.5 992.5 16 16" id="comments-dark" x="224" y="224"><path d="M8.492 994.9c0-.77-.712-1.4-1.592-1.4H-6.205c-.88 0-1.295.63-1.295 1.4v8.4c0 .77.72 1.4 1.6 1.4H5.3l3.2 2.8-.008-12.6z"/></svg><svg width="16" height="16" viewBox="-7.5 992.5 16 16" id="comments-light" x="240" y="240"><path fill="#fff" d="M8.492 994.9c0-.77-.712-1.4-1.592-1.4H-5.9c-.88 0-1.6.63-1.6 1.4v8.4c0 .77.72 1.4 1.6 1.4H5.3l3.2 2.8-.008-12.6z"/></svg><svg width="16" height="16" viewBox="-7.5 992.5 16 16" id="facebook" x="256" y="256"><path fill="#3b5998" d="M8.5 993.5v14c0 .547-.453 1-1 1h-4v-6.22h2l.336-2.304H3.5v-1.812c0-.656.336-1.03 1-1.03H6v-2.08s-.672-.108-1.64-.108c-2.196 0-3.306 1.22-3.306 3.04v1.99h-2v2.306h2v6.22H-6.5c-.547 0-1-.454-1-1v-14c0-.548.453-1 1-1h14c.547-.002 1 .45 1 .998z"/></svg><svg width="16" height="16" viewBox="-7.5 992.5 16 16" id="facebook-dark" x="272" y="272"><path d="M8.5 993.5v14c0 .547-.453 1-1 1h-4v-6.22h2l.336-2.304H3.5v-1.812c0-.656.336-1.03 1-1.03H6v-2.08s-.672-.108-1.64-.108c-2.196 0-3.306 1.22-3.306 3.04v1.99h-2v2.306h2v6.22H-6.5c-.547 0-1-.454-1-1v-14c0-.548.453-1 1-1h14c.547-.002 1 .45 1 .998z"/></svg><svg width="16" height="16" viewBox="-7.5 992.5 16 16" id="facebook-light" x="288" y="288"><path fill="#fff" d="M8.5 993.5v14c0 .547-.453 1-1 1h-4v-6.22h2l.336-2.304H3.5v-1.812c0-.656.336-1.03 1-1.03H6v-2.08s-.672-.108-1.64-.108c-2.196 0-3.306 1.22-3.306 3.04v1.99h-2v2.306h2v6.22H-6.5c-.547 0-1-.454-1-1v-14c0-.548.453-1 1-1h14c.547-.002 1 .45 1 .998z"/></svg><svg width="16" height="16" viewBox="-7.5 992.5 16 16" id="github" x="304" y="304"><path d="M7.427 996.584c-.716-1.256-1.686-2.25-2.912-2.984-1.225-.733-2.564-1.1-4.015-1.1-1.45 0-2.79.367-4.016 1.1-1.225.733-2.196 1.728-2.91 2.984-.716 1.257-1.074 2.63-1.074 4.116 0 1.787.51 3.394 1.526 4.82 1.017 1.43 2.332 2.416 3.943 2.964.186.036.325.01.415-.074.09-.086.136-.193.136-.32 0-.022 0-.214-.005-.577-.003-.363-.005-.68-.005-.95l-.24.042c-.152.03-.345.04-.578.038-.232-.004-.474-.03-.724-.075-.25-.046-.482-.153-.697-.32-.215-.168-.367-.387-.458-.657l-.104-.245c-.07-.163-.18-.345-.328-.544-.15-.198-.3-.334-.453-.405l-.073-.053c-.05-.036-.094-.08-.135-.13-.043-.048-.074-.098-.095-.148-.02-.05-.004-.09.052-.123.056-.03.156-.047.302-.047l.207.032c.14.03.31.114.516.256.205.144.373.33.505.556.16.292.352.515.578.668.226.153.453.23.682.23.23 0 .428-.018.594-.054.167-.035.323-.09.47-.16.06-.477.232-.844.51-1.1-.396-.043-.752-.107-1.068-.192-.316-.086-.643-.224-.98-.417-.336-.19-.616-.43-.838-.714-.222-.285-.405-.66-.547-1.12-.143-.464-.214-.998-.214-1.603 0-.86.274-1.595.823-2.2-.258-.647-.234-1.373.072-2.178.2-.064.5-.016.895.144.396.16.686.297.87.41.184.114.332.21.443.29.646-.186 1.312-.28 2-.28.687 0 1.354.094 2 .28l.396-.257c.27-.17.59-.328.958-.47.368-.143.65-.182.844-.118.312.805.34 1.53.083 2.178.55.606.824 1.34.824 2.2 0 .605-.07 1.14-.213 1.607-.142.466-.326.84-.55 1.12-.227.282-.508.52-.845.71-.337.193-.663.332-.98.418-.315.085-.67.15-1.067.192.36.32.542.826.542 1.516v2.253c0 .127.043.234.13.32.087.085.224.11.41.074 1.613-.548 2.927-1.536 3.944-2.963 1.017-1.426 1.526-3.033 1.526-4.82 0-1.487-.358-2.86-1.073-4.116z"/></svg><svg width="16" height="16" viewBox="-7.5 992.5 16 16" id="github-light" x="320" y="320"><path fill="#fff" d="M7.427 996.584c-.716-1.256-1.686-2.25-2.912-2.984-1.225-.733-2.564-1.1-4.015-1.1-1.45 0-2.79.367-4.016 1.1-1.225.733-2.196 1.728-2.91 2.984-.716 1.257-1.074 2.63-1.074 4.116 0 1.787.51 3.394 1.526 4.82 1.017 1.43 2.332 2.416 3.943 2.964.186.036.325.01.415-.074.09-.086.136-.193.136-.32 0-.022 0-.214-.005-.577-.003-.363-.005-.68-.005-.95l-.24.042c-.152.03-.345.04-.578.038-.232-.004-.474-.03-.724-.075-.25-.046-.482-.153-.697-.32-.215-.168-.367-.387-.458-.657l-.104-.245c-.07-.163-.18-.345-.328-.544-.15-.198-.3-.334-.453-.405l-.073-.053c-.05-.036-.094-.08-.135-.13-.043-.048-.074-.098-.095-.148-.02-.05-.004-.09.052-.123.056-.03.156-.047.302-.047l.207.032c.14.03.31.114.516.256.205.144.373.33.505.556.16.292.352.515.578.668.226.153.453.23.682.23.23 0 .428-.018.594-.054.167-.035.323-.09.47-.16.06-.477.232-.844.51-1.1-.396-.043-.752-.107-1.068-.192-.316-.086-.643-.224-.98-.417-.336-.19-.616-.43-.838-.714-.222-.285-.405-.66-.547-1.12-.143-.464-.214-.998-.214-1.603 0-.86.274-1.595.823-2.2-.258-.647-.234-1.373.072-2.178.2-.064.5-.016.895.144.396.16.686.297.87.41.184.114.332.21.443.29.646-.186 1.312-.28 2-.28.687 0 1.354.094 2 .28l.396-.257c.27-.17.59-.328.958-.47.368-.143.65-.182.844-.118.312.805.34 1.53.083 2.178.55.606.824 1.34.824 2.2 0 .605-.07 1.14-.213 1.607-.142.466-.326.84-.55 1.12-.227.282-.508.52-.845.71-.337.193-.663.332-.98.418-.315.085-.67.15-1.067.192.36.32.542.826.542 1.516v2.253c0 .127.043.234.13.32.087.085.224.11.41.074 1.613-.548 2.927-1.536 3.944-2.963 1.017-1.426 1.526-3.033 1.526-4.82 0-1.487-.358-2.86-1.073-4.116z"/></svg><svg width="16" height="16" viewBox="-7.5 992.5 16 16" id="google" x="336" y="336"><path fill="#dc4e41" d="M8.5 999.833H6.833v-1.666H5.5v1.666H3.833v1.334H5.5v1.666h1.333v-1.666H8.5M-2.167 999.5v2.08H.74c-.224 1.253-1.31 2.167-2.907 2.167-1.76 0-3.19-1.49-3.19-3.25s1.43-3.247 3.19-3.247c.793 0 1.503.273 2.063.807v.003l1.503-1.503c-.925-.86-2.128-1.39-3.568-1.39-2.947 0-5.333 2.387-5.333 5.333s2.386 5.333 5.332 5.333c3.08 0 5.12-2.166 5.12-5.213 0-.39-.037-.764-.104-1.12H-2.17z"/></svg><svg width="16" height="16" viewBox="-7.5 992.5 16 16" id="google-dark" x="352" y="352"><path d="M8.5 999.833H6.833v-1.666H5.5v1.666H3.833v1.334H5.5v1.666h1.333v-1.666H8.5M-2.167 999.5v2.08H.74c-.224 1.253-1.31 2.167-2.907 2.167-1.76 0-3.19-1.49-3.19-3.25s1.43-3.247 3.19-3.247c.793 0 1.503.273 2.063.807v.003l1.503-1.503c-.925-.86-2.128-1.39-3.568-1.39-2.947 0-5.333 2.387-5.333 5.333s2.386 5.333 5.332 5.333c3.08 0 5.12-2.166 5.12-5.213 0-.39-.037-.764-.104-1.12H-2.17z"/></svg><svg width="16" height="16" viewBox="-7.5 992.5 16 16" id="google-light" x="368" y="368"><path fill="#fff" d="M8.5 999.833H6.833v-1.666H5.5v1.666H3.833v1.334H5.5v1.666h1.333v-1.666H8.5M-2.167 999.5v2.08H.74c-.224 1.253-1.31 2.167-2.907 2.167-1.76 0-3.19-1.49-3.19-3.25s1.43-3.247 3.19-3.247c.793 0 1.503.273 2.063.807v.003l1.503-1.503c-.925-.86-2.128-1.39-3.568-1.39-2.947 0-5.333 2.387-5.333 5.333s2.386 5.333 5.332 5.333c3.08 0 5.12-2.166 5.12-5.213 0-.39-.037-.764-.104-1.12H-2.17z"/></svg><svg width="16" height="16" viewBox="-7.5 992.5 16 16" id="instagram" x="384" y="384"><path fill="#3f729b" d="M8.5 994.836v11.328a2.337 2.337 0 0 1-2.336 2.336H-5.164a2.337 2.337 0 0 1-2.336-2.336v-11.328a2.337 2.337 0 0 1 2.336-2.336H6.164a2.337 2.337 0 0 1 2.336 2.336zM6.836 999.5H5.062c.07.32.102.656.102 1 0 2.578-2.086 4.664-4.664 4.664s-4.664-2.086-4.664-4.664c0-.344.03-.68.102-1h-1.773v7c0 .188.148.336.336.336h12a.333.333 0 0 0 .338-.336v-7zm-9.336 1a3 3 0 0 0 6 0 3 3 0 0 0-6 0zm9.336-6a.333.333 0 0 0-.336-.336h-2a.333.333 0 0 0-.336.336v2c0 .188.148.336.336.336h2a.333.333 0 0 0 .336-.336v-2z"/></svg><svg width="16" height="16" viewBox="-7.5 992.5 16 16" id="instagram-dark" x="400" y="400"><path d="M8.5 994.836v11.328a2.337 2.337 0 0 1-2.336 2.336H-5.164a2.337 2.337 0 0 1-2.336-2.336v-11.328a2.337 2.337 0 0 1 2.336-2.336H6.164a2.337 2.337 0 0 1 2.336 2.336zM6.836 999.5H5.062c.07.32.102.656.102 1 0 2.578-2.086 4.664-4.664 4.664s-4.664-2.086-4.664-4.664c0-.344.03-.68.102-1h-1.773v7c0 .188.148.336.336.336h12a.333.333 0 0 0 .338-.336v-7zm-9.336 1a3 3 0 0 0 6 0 3 3 0 0 0-6 0zm9.336-6a.333.333 0 0 0-.336-.336h-2a.333.333 0 0 0-.336.336v2c0 .188.148.336.336.336h2a.333.333 0 0 0 .336-.336v-2z"/></svg><svg width="16" height="16" viewBox="-7.5 992.5 16 16" id="instagram-light" x="416" y="416"><path fill="#fff" d="M8.5 994.836v11.328a2.337 2.337 0 0 1-2.336 2.336H-5.164a2.337 2.337 0 0 1-2.336-2.336v-11.328a2.337 2.337 0 0 1 2.336-2.336H6.164a2.337 2.337 0 0 1 2.336 2.336zM6.836 999.5H5.062c.07.32.102.656.102 1 0 2.578-2.086 4.664-4.664 4.664s-4.664-2.086-4.664-4.664c0-.344.03-.68.102-1h-1.773v7c0 .188.148.336.336.336h12a.333.333 0 0 0 .338-.336v-7zm-9.336 1a3 3 0 0 0 6 0 3 3 0 0 0-6 0zm9.336-6a.333.333 0 0 0-.336-.336h-2a.333.333 0 0 0-.336.336v2c0 .188.148.336.336.336h2a.333.333 0 0 0 .336-.336v-2z"/></svg><svg width="16" height="16" viewBox="-7.5 992.5 16 16" id="linkedin" x="432" y="432"><path fill="#0077b5" d="M-5.516 996.33h-.024c-1.18 0-1.96-.81-1.96-1.834 0-1.032.797-1.828 2.016-1.828 1.203 0 1.97.796 1.984 1.828 0 1.023-.78 1.835-2.016 1.835zm1.68 1.666v10.336h-3.33v-10.336h3.33zm5.336 10.336h-3.336v-8s-.055-1.985-.055-2.336h3.28l.11 1.43c.662-1 1.662-1.758 3-1.758 2.334 0 4 1.664 4 4.664v6H5.162v-5.665c0-1.67-.812-2.335-1.812-2.335s-1.85.664-1.85 2v6z"/></svg><svg width="16" height="16" viewBox="-7.5 992.5 16 16" id="linkedin-dark" x="448" y="448"><path d="M-5.516 996.33h-.024c-1.18 0-1.96-.81-1.96-1.834 0-1.032.797-1.828 2.016-1.828 1.203 0 1.97.796 1.984 1.828 0 1.023-.78 1.835-2.016 1.835zm1.68 1.666v10.336h-3.33v-10.336h3.33zm5.336 10.336h-3.336v-8s-.055-1.985-.055-2.336h3.28l.11 1.43c.662-1 1.662-1.758 3-1.758 2.334 0 4 1.664 4 4.664v6H5.162v-5.665c0-1.67-.812-2.335-1.812-2.335s-1.85.664-1.85 2v6z"/></svg><svg width="16" height="16" viewBox="-7.5 992.5 16 16" id="linkedin-light" x="464" y="464"><path fill="#fff" d="M-5.516 996.33h-.024c-1.18 0-1.96-.81-1.96-1.834 0-1.032.797-1.828 2.016-1.828 1.203 0 1.97.796 1.984 1.828 0 1.023-.78 1.835-2.016 1.835zm1.68 1.666v10.336h-3.33v-10.336h3.33zm5.336 10.336h-3.336v-8s-.055-1.985-.055-2.336h3.28l.11 1.43c.662-1 1.662-1.758 3-1.758 2.334 0 4 1.664 4 4.664v6H5.162v-5.665c0-1.67-.812-2.335-1.812-2.335s-1.85.664-1.85 2v6z"/></svg><svg width="16" height="16" viewBox="-7.5 992.5 16 16" id="location" x="480" y="480"><path fill="#aaa" d="M-3.643 994.302C-2.493 993.1-1.113 992.5.5 992.5c1.612 0 2.994.6 4.145 1.802 1.15 1.2 1.725 2.646 1.725 4.335 0 .856-.172 1.766-.518 2.727-.344.962-.76 1.82-1.25 2.577a33.1 33.1 0 0 1-1.466 2.095c-.49.64-.907 1.13-1.25 1.475l-.52.516c-.366.323-.67.48-.908.476-.238-.005-.532-.163-.875-.476a29.082 29.082 0 0 1-.534-.55c-.225-.232-.62-.706-1.194-1.417a20.19 20.19 0 0 1-1.51-2.136c-.434-.712-.828-1.557-1.184-2.535-.355-.98-.533-1.897-.533-2.753 0-1.69.575-3.136 1.726-4.336zm2.185 6.027c.537.54 1.192.81 1.958.81.768 0 1.422-.27 1.968-.81a2.65 2.65 0 0 0 .816-1.96c0-.77-.27-1.424-.816-1.968a2.68 2.68 0 0 0-1.968-.818c-.766 0-1.42.272-1.958.818a2.692 2.692 0 0 0-.81 1.966 2.66 2.66 0 0 0 .81 1.96z"/></svg><svg width="16" height="16" viewBox="-7.5 992.5 16 16" id="location-blue" x="496" y="496"><path fill="#00cccd" d="M-3.643 994.302C-2.493 993.1-1.113 992.5.5 992.5c1.612 0 2.994.6 4.145 1.802 1.15 1.2 1.725 2.646 1.725 4.335 0 .856-.172 1.766-.518 2.727-.344.962-.76 1.82-1.25 2.577a33.1 33.1 0 0 1-1.466 2.095c-.49.64-.907 1.13-1.25 1.475l-.52.516c-.366.323-.67.48-.908.476-.238-.005-.532-.163-.875-.476a29.082 29.082 0 0 1-.534-.55c-.225-.232-.62-.706-1.194-1.417a20.19 20.19 0 0 1-1.51-2.136c-.434-.712-.828-1.557-1.184-2.535-.355-.98-.533-1.897-.533-2.753 0-1.69.575-3.136 1.726-4.336zm2.185 6.027c.537.54 1.192.81 1.958.81.768 0 1.422-.27 1.968-.81a2.65 2.65 0 0 0 .816-1.96c0-.77-.27-1.424-.816-1.968a2.68 2.68 0 0 0-1.968-.818c-.766 0-1.42.272-1.958.818a2.692 2.692 0 0 0-.81 1.966 2.66 2.66 0 0 0 .81 1.96z"/></svg><svg width="16" height="16" viewBox="-7.5 992.5 16 16" id="location-dark" x="512" y="512"><path d="M-3.643 994.302C-2.493 993.1-1.113 992.5.5 992.5c1.612 0 2.994.6 4.145 1.802 1.15 1.2 1.725 2.646 1.725 4.335 0 .856-.172 1.766-.518 2.727-.344.962-.76 1.82-1.25 2.577a33.1 33.1 0 0 1-1.466 2.095c-.49.64-.907 1.13-1.25 1.475l-.52.516c-.366.323-.67.48-.908.476-.238-.005-.532-.163-.875-.476a29.082 29.082 0 0 1-.534-.55c-.225-.232-.62-.706-1.194-1.417a20.19 20.19 0 0 1-1.51-2.136c-.434-.712-.828-1.557-1.184-2.535-.355-.98-.533-1.897-.533-2.753 0-1.69.575-3.136 1.726-4.336zm2.185 6.027c.537.54 1.192.81 1.958.81.768 0 1.422-.27 1.968-.81a2.65 2.65 0 0 0 .816-1.96c0-.77-.27-1.424-.816-1.968a2.68 2.68 0 0 0-1.968-.818c-.766 0-1.42.272-1.958.818a2.692 2.692 0 0 0-.81 1.966 2.66 2.66 0 0 0 .81 1.96z"/></svg><svg width="16" height="16" viewBox="-7.5 992.5 16 16" id="location-light" x="528" y="528"><path fill="#fff" d="M-3.643 994.302C-2.493 993.1-1.113 992.5.5 992.5c1.612 0 2.994.6 4.145 1.802 1.15 1.2 1.725 2.646 1.725 4.335 0 .856-.172 1.766-.518 2.727-.344.962-.76 1.82-1.25 2.577a33.1 33.1 0 0 1-1.466 2.095c-.49.64-.907 1.13-1.25 1.475l-.52.516c-.366.323-.67.48-.908.476-.238-.005-.532-.163-.875-.476a29.082 29.082 0 0 1-.534-.55c-.225-.232-.62-.706-1.194-1.417a20.19 20.19 0 0 1-1.51-2.136c-.434-.712-.828-1.557-1.184-2.535-.355-.98-.533-1.897-.533-2.753 0-1.69.575-3.136 1.726-4.336zm2.185 6.027c.537.54 1.192.81 1.958.81.768 0 1.422-.27 1.968-.81a2.65 2.65 0 0 0 .816-1.96c0-.77-.27-1.424-.816-1.968a2.68 2.68 0 0 0-1.968-.818c-.766 0-1.42.272-1.958.818a2.692 2.692 0 0 0-.81 1.966 2.66 2.66 0 0 0 .81 1.96z"/></svg><svg width="16" height="16" viewBox="-7.5 992.5 16 16" id="mail" x="544" y="544"><path fill="#aaa" d="M.5 1001.5l-8-6c0-.555.446-1 1-1h14c.554 0 1 .445 1 1l-8 6zm0 1.798l8-6v8.202c0 .555-.446 1-1 1h-14c-.554 0-1-.445-1-1v-8.203l8 6z"/></svg><svg width="16" height="16" viewBox="-7.5 992.5 16 16" id="mail-dark" x="560" y="560"><path d="M.5 1001.5l-8-6c0-.555.446-1 1-1h14c.554 0 1 .445 1 1l-8 6zm0 1.798l8-6v8.202c0 .555-.446 1-1 1h-14c-.554 0-1-.445-1-1v-8.203l8 6z"/></svg><svg width="16" height="16" viewBox="-7.5 992.5 16 16" id="mail-light" x="576" y="576"><path fill="#fff" d="M.5 1001.5l-8-6c0-.555.446-1 1-1h14c.554 0 1 .445 1 1l-8 6zm0 1.798l8-6v8.202c0 .555-.446 1-1 1h-14c-.554 0-1-.445-1-1v-8.203l8 6z"/></svg><svg width="16" height="16" viewBox="-7.5 992.5 16 16" id="more" x="592" y="592"><g fill="#aaa"><circle cx=".5" cy="1000.5" r="1.98"/><circle cx="-5.447" cy="1000.5" r="1.98"/><circle cx="6.447" cy="1000.5" r="1.98"/></g></svg><svg width="16" height="16" viewBox="-7.5 992.5 16 16" id="more-dark" x="608" y="608"><circle cx=".5" cy="1000.5" r="1.98"/><circle cx="-5.447" cy="1000.5" r="1.98"/><circle cx="6.447" cy="1000.5" r="1.98"/></svg><svg width="16" height="16" viewBox="-7.5 992.5 16 16" id="more-light" x="624" y="624"><g fill="#fff"><circle cx=".5" cy="1000.5" r="1.98"/><circle cx="-5.447" cy="1000.5" r="1.98"/><circle cx="6.447" cy="1000.5" r="1.98"/></g></svg><svg width="16" height="16" viewBox="-7.5 992.5 16 16" id="pinterest" x="640" y="640"><path fill="#cc2127" d="M6.688 997.76c0 3.608-2 6.296-4.946 6.296-1 0-1.93-.516-2.258-1.125 0 0-.523 2.11-.648 2.518-.39 1.445-1.555 2.89-1.65 3-.077.094-.202.055-.226-.038-.016-.19-.312-2.018.04-3.502.163-.742 1.163-5 1.163-5s-.273-.594-.273-1.46c0-1.377.773-2.377 1.757-2.377.836 0 1.243.62 1.243 1.378 0 .835-.54 2.094-.82 3.258-.22.984.5 1.78 1.468 1.78 1.742 0 2.906-2.24 2.906-4.89 0-2.024-1.352-3.524-3.813-3.524-2.794 0-4.537 2.08-4.537 4.392 0 .82.243 1.376.61 1.82.164.204.188.274.132.5-.04.18-.148.587-.188.734-.055.243-.242.32-.46.243-1.282-.54-1.876-1.945-1.876-3.516 0-2.61 2.19-5.743 6.556-5.743 3.526 0 5.823 2.54 5.823 5.26z"/></svg><svg width="16" height="16" viewBox="-7.5 992.5 16 16" id="pinterest-dark" x="656" y="656"><path d="M6.688 997.76c0 3.608-2 6.296-4.946 6.296-1 0-1.93-.516-2.258-1.125 0 0-.523 2.11-.648 2.518-.39 1.445-1.555 2.89-1.65 3-.077.094-.202.055-.226-.038-.016-.19-.312-2.018.04-3.502.163-.742 1.163-5 1.163-5s-.273-.594-.273-1.46c0-1.377.773-2.377 1.757-2.377.836 0 1.243.62 1.243 1.378 0 .835-.54 2.094-.82 3.258-.22.984.5 1.78 1.468 1.78 1.742 0 2.906-2.24 2.906-4.89 0-2.024-1.352-3.524-3.813-3.524-2.794 0-4.537 2.08-4.537 4.392 0 .82.243 1.376.61 1.82.164.204.188.274.132.5-.04.18-.148.587-.188.734-.055.243-.242.32-.46.243-1.282-.54-1.876-1.945-1.876-3.516 0-2.61 2.19-5.743 6.556-5.743 3.526 0 5.823 2.54 5.823 5.26z"/></svg><svg width="16" height="16" viewBox="-7.5 992.5 16 16" id="pinterest-light" x="672" y="672"><path fill="#fff" d="M6.688 997.76c0 3.608-2 6.296-4.946 6.296-1 0-1.93-.516-2.258-1.125 0 0-.523 2.11-.648 2.518-.39 1.445-1.555 2.89-1.65 3-.077.094-.202.055-.226-.038-.016-.19-.312-2.018.04-3.502.163-.742 1.163-5 1.163-5s-.273-.594-.273-1.46c0-1.377.773-2.377 1.757-2.377.836 0 1.243.62 1.243 1.378 0 .835-.54 2.094-.82 3.258-.22.984.5 1.78 1.468 1.78 1.742 0 2.906-2.24 2.906-4.89 0-2.024-1.352-3.524-3.813-3.524-2.794 0-4.537 2.08-4.537 4.392 0 .82.243 1.376.61 1.82.164.204.188.274.132.5-.04.18-.148.587-.188.734-.055.243-.242.32-.46.243-1.282-.54-1.876-1.945-1.876-3.516 0-2.61 2.19-5.743 6.556-5.743 3.526 0 5.823 2.54 5.823 5.26z"/></svg><svg width="16" height="16" viewBox="-7.5 992.5 16 16" id="push" x="688" y="688"><path fill="#aaa" d="M7.57 1003.934c.313.257.44.583.385.984-.056.398-.262.677-.618.832l-.083.033a3.628 3.628 0 0 1-.208.075l-.317.11c-.13.043-.27.087-.426.13-.156.046-.33.093-.517.143a12.48 12.48 0 0 1-.616.15c-.222.05-.455.103-.7.15s-.51.096-.8.135a31.92 31.92 0 0 1-.883.108c-.145.5-.428.91-.85 1.233-.423.323-.9.483-1.434.483-.533 0-1.01-.16-1.433-.484a2.333 2.333 0 0 1-.85-1.233c-1.744-.178-3.255-.522-4.532-1.033-.378-.168-.595-.45-.65-.85-.034-.4.1-.724.4-.968.056-.033.15-.114.284-.242.133-.127.322-.358.566-.69.244-.334.473-.7.684-1.1s.395-.918.55-1.552a8.315 8.315 0 0 0 .233-1.983c0-.933.097-1.755.292-2.466.194-.713.444-1.28.75-1.7a3.76 3.76 0 0 1 1.1-1.027c.427-.26.85-.438 1.266-.533a6.09 6.09 0 0 1 1.342-.14c.478 0 .925.047 1.342.14.417.096.84.273 1.267.534.428.262.794.604 1.1 1.025.305.42.555.987.75 1.7.194.71.29 1.53.29 2.464 0 .688.078 1.35.234 1.983.155.634.338 1.153.55 1.56.21.405.438.77.684 1.1.244.327.434.556.566.683.134.13.228.21.283.244z"/></svg><svg width="16" height="16" viewBox="-7.5 992.5 16 16" id="push-dark" x="704" y="704"><path d="M7.57 1003.934c.313.257.44.583.385.984-.056.398-.262.677-.618.832l-.083.033a3.628 3.628 0 0 1-.208.075l-.317.11c-.13.043-.27.087-.426.13-.156.046-.33.093-.517.143a12.48 12.48 0 0 1-.616.15c-.222.05-.455.103-.7.15s-.51.096-.8.135a31.92 31.92 0 0 1-.883.108c-.145.5-.428.91-.85 1.233-.423.323-.9.483-1.434.483-.533 0-1.01-.16-1.433-.484a2.333 2.333 0 0 1-.85-1.233c-1.744-.178-3.255-.522-4.532-1.033-.378-.168-.595-.45-.65-.85-.034-.4.1-.724.4-.968.056-.033.15-.114.284-.242.133-.127.322-.358.566-.69.244-.334.473-.7.684-1.1s.395-.918.55-1.552a8.315 8.315 0 0 0 .233-1.983c0-.933.097-1.755.292-2.466.194-.713.444-1.28.75-1.7a3.76 3.76 0 0 1 1.1-1.027c.427-.26.85-.438 1.266-.533a6.09 6.09 0 0 1 1.342-.14c.478 0 .925.047 1.342.14.417.096.84.273 1.267.534.428.262.794.604 1.1 1.025.305.42.555.987.75 1.7.194.71.29 1.53.29 2.464 0 .688.078 1.35.234 1.983.155.634.338 1.153.55 1.56.21.405.438.77.684 1.1.244.327.434.556.566.683.134.13.228.21.283.244z"/></svg><svg width="16" height="16" viewBox="-7.5 992.5 16 16" id="push-light" x="720" y="720"><path fill="#fff" d="M7.57 1003.934c.313.257.44.583.385.984-.056.398-.262.677-.618.832l-.083.033a3.628 3.628 0 0 1-.208.075l-.317.11c-.13.043-.27.087-.426.13-.156.046-.33.093-.517.143a12.48 12.48 0 0 1-.616.15c-.222.05-.455.103-.7.15s-.51.096-.8.135a31.92 31.92 0 0 1-.883.108c-.145.5-.428.91-.85 1.233-.423.323-.9.483-1.434.483-.533 0-1.01-.16-1.433-.484a2.333 2.333 0 0 1-.85-1.233c-1.744-.178-3.255-.522-4.532-1.033-.378-.168-.595-.45-.65-.85-.034-.4.1-.724.4-.968.056-.033.15-.114.284-.242.133-.127.322-.358.566-.69.244-.334.473-.7.684-1.1s.395-.918.55-1.552a8.315 8.315 0 0 0 .233-1.983c0-.933.097-1.755.292-2.466.194-.713.444-1.28.75-1.7a3.76 3.76 0 0 1 1.1-1.027c.427-.26.85-.438 1.266-.533a6.09 6.09 0 0 1 1.342-.14c.478 0 .925.047 1.342.14.417.096.84.273 1.267.534.428.262.794.604 1.1 1.025.305.42.555.987.75 1.7.194.71.29 1.53.29 2.464 0 .688.078 1.35.234 1.983.155.634.338 1.153.55 1.56.21.405.438.77.684 1.1.244.327.434.556.566.683.134.13.228.21.283.244z"/></svg><svg width="16" height="16" viewBox="-7.5 992.5 16 16" id="reddit" x="736" y="736"><path fill="#5f99cf" d="M7.735 1001.313c.083.308.12.622.12.944 0 2.827-3.292 5.12-7.355 5.12s-7.355-2.293-7.355-5.12a3.6 3.6 0 0 1 .12-.944 1.783 1.783 0 0 1-.765-1.454 1.76 1.76 0 0 1 1.762-1.765c.45 0 .862.173 1.17.45 1.303-.855 3.05-1.387 4.978-1.41l.997-3c.06-.186.255-.3.45-.26l2.64.53a1.44 1.44 0 1 1 1.28 2.092c-.756 0-1.38-.585-1.43-1.327l-2.303-.464-.817 2.46c1.672.11 3.187.614 4.34 1.38a1.76 1.76 0 0 1 2.933 1.312c0 .6-.307 1.133-.765 1.455zm-9.634.945a1.12 1.12 0 0 0 0-2.24 1.12 1.12 0 0 0 0 2.24zm5.115 1.86a.365.365 0 0 0-.502-.06c-.592.464-1.38.727-2.212.727-.83 0-1.62-.263-2.21-.728a.364.364 0 0 0-.503.06.366.366 0 0 0 .06.503c.72.562 1.665.87 2.654.87s1.936-.308 2.655-.87a.366.366 0 0 0 .06-.503zm.803-2.977c0-.62-.502-1.122-1.117-1.122a1.12 1.12 0 0 0 0 2.24 1.12 1.12 0 0 0 1.118-1.116z"/></svg><svg width="16" height="16" viewBox="-7.5 992.5 16 16" id="reddit-dark" x="752" y="752"><path d="M7.735 1001.313c.083.308.12.622.12.944 0 2.827-3.292 5.12-7.355 5.12s-7.355-2.293-7.355-5.12a3.6 3.6 0 0 1 .12-.944 1.783 1.783 0 0 1-.765-1.454 1.76 1.76 0 0 1 1.762-1.765c.45 0 .862.173 1.17.45 1.303-.855 3.05-1.387 4.978-1.41l.997-3c.06-.186.255-.3.45-.26l2.64.53a1.44 1.44 0 1 1 1.28 2.092c-.756 0-1.38-.585-1.43-1.327l-2.303-.464-.817 2.46c1.672.11 3.187.614 4.34 1.38a1.76 1.76 0 0 1 2.933 1.312c0 .6-.307 1.133-.765 1.455zm-9.634.945a1.12 1.12 0 0 0 0-2.24 1.12 1.12 0 0 0 0 2.24zm5.115 1.86a.365.365 0 0 0-.502-.06c-.592.464-1.38.727-2.212.727-.83 0-1.62-.263-2.21-.728a.364.364 0 0 0-.503.06.366.366 0 0 0 .06.503c.72.562 1.665.87 2.654.87s1.936-.308 2.655-.87a.366.366 0 0 0 .06-.503zm.803-2.977c0-.62-.502-1.122-1.117-1.122a1.12 1.12 0 0 0 0 2.24 1.12 1.12 0 0 0 1.118-1.116z"/></svg><svg width="16" height="16" viewBox="-7.5 992.5 16 16" id="reddit-light" x="768" y="768"><path fill="#fff" d="M7.735 1001.313c.083.308.12.622.12.944 0 2.827-3.292 5.12-7.355 5.12s-7.355-2.293-7.355-5.12a3.6 3.6 0 0 1 .12-.944 1.783 1.783 0 0 1-.765-1.454 1.76 1.76 0 0 1 1.762-1.765c.45 0 .862.173 1.17.45 1.303-.855 3.05-1.387 4.978-1.41l.997-3c.06-.186.255-.3.45-.26l2.64.53a1.44 1.44 0 1 1 1.28 2.092c-.756 0-1.38-.585-1.43-1.327l-2.303-.464-.817 2.46c1.672.11 3.187.614 4.34 1.38a1.76 1.76 0 0 1 2.933 1.312c0 .6-.307 1.133-.765 1.455zm-9.634.945a1.12 1.12 0 0 0 0-2.24 1.12 1.12 0 0 0 0 2.24zm5.115 1.86a.365.365 0 0 0-.502-.06c-.592.464-1.38.727-2.212.727-.83 0-1.62-.263-2.21-.728a.364.364 0 0 0-.503.06.366.366 0 0 0 .06.503c.72.562 1.665.87 2.654.87s1.936-.308 2.655-.87a.366.366 0 0 0 .06-.503zm.803-2.977c0-.62-.502-1.122-1.117-1.122a1.12 1.12 0 0 0 0 2.24 1.12 1.12 0 0 0 1.118-1.116z"/></svg><svg width="16" height="16" viewBox="-7.5 992.5 16 16" id="rss" x="784" y="784"><g fill="#f60"><circle cx="-5.5" cy="1006.5" r="2"/><path d="M-7.5 995.5c7.2 0 13 5.8 13 13h3c0-8.8-7.2-16-16-16v3zm0 3v3c3.9 0 7 3.1 7 7h3c0-5.5-4.5-10-10-10z"/></g></svg><svg width="16" height="16" viewBox="-7.5 992.5 16 16" id="rss-dark" x="800" y="800"><circle cx="-5.5" cy="1006.5" r="2"/><path d="M-7.5 995.5c7.2 0 13 5.8 13 13h3c0-8.8-7.2-16-16-16v3zm0 3v3c3.9 0 7 3.1 7 7h3c0-5.5-4.5-10-10-10z"/></svg><svg width="16" height="16" viewBox="-7.5 992.5 16 16" id="rss-light" x="816" y="816"><g fill="#fff"><circle cx="-5.5" cy="1006.5" r="2"/><path d="M-7.5 995.5c7.2 0 13 5.8 13 13h3c0-8.8-7.2-16-16-16v3zm0 3v3c3.9 0 7 3.1 7 7h3c0-5.5-4.5-10-10-10z"/></g></svg><svg width="16" height="16" viewBox="-7.5 992.5 16 16" id="search" x="832" y="832"><path fill="#aaa" d="M-5.51 994.428c-.663.65-1.16 1.38-1.492 2.198-.332.816-.498 1.647-.498 2.493 0 .843.166 1.674.498 2.49.332.817.83 1.55 1.493 2.198.535.52 1.128.938 1.78 1.25.65.313 1.327.52 2.027.626.7.104 1.4.098 2.106-.018.705-.116 1.378-.336 2.018-.66l3.06 2.988c.177.174.372.3.585.382.214.08.436.122.667.122.232 0 .454-.04.668-.122.213-.08.41-.208.586-.382.178-.173.31-.365.392-.573.082-.21.124-.425.124-.65 0-.225-.042-.443-.124-.65-.083-.21-.214-.4-.392-.574l-2.95-2.884c.414-.637.705-1.32.87-2.05.166-.73.21-1.46.134-2.19-.077-.73-.28-1.438-.605-2.127-.326-.69-.773-1.312-1.342-1.868-.663-.637-1.412-1.117-2.248-1.442-.835-.324-1.686-.486-2.55-.486-.866 0-1.716.16-2.552.485-.836.325-1.585.805-2.25 1.442zm2.134 7.297c-.367-.36-.643-.765-.826-1.216-.184-.454-.276-.914-.276-1.383 0-.47.092-.933.276-1.39.183-.458.46-.866.826-1.225.368-.36.783-.625 1.245-.8.46-.173.934-.26 1.42-.26.486 0 .96.087 1.422.26.463.175.877.44 1.245.8.367.36.643.767.826 1.225.184.457.276.92.276 1.39 0 .47-.093.93-.277 1.38-.183.452-.46.858-.826 1.217-.368.36-.782.628-1.245.808-.462.18-.936.27-1.422.27-.485 0-.96-.09-1.42-.27-.463-.18-.878-.45-1.246-.808z"/></svg><svg width="16" height="16" viewBox="-7.5 992.5 16 16" id="search-dark" x="848" y="848"><path d="M-5.51 994.428c-.663.65-1.16 1.38-1.492 2.198-.332.816-.498 1.647-.498 2.493 0 .843.166 1.674.498 2.49.332.817.83 1.55 1.493 2.198.535.52 1.128.938 1.78 1.25.65.313 1.327.52 2.027.626.7.104 1.4.098 2.106-.018.705-.116 1.378-.336 2.018-.66l3.06 2.988c.177.174.372.3.585.382.214.08.436.122.667.122.232 0 .454-.04.668-.122.213-.08.41-.208.586-.382.178-.173.31-.365.392-.573.082-.21.124-.425.124-.65 0-.225-.042-.443-.124-.65-.083-.21-.214-.4-.392-.574l-2.95-2.884c.414-.637.705-1.32.87-2.05.166-.73.21-1.46.134-2.19-.077-.73-.28-1.438-.605-2.127-.326-.69-.773-1.312-1.342-1.868-.663-.637-1.412-1.117-2.248-1.442-.835-.324-1.686-.486-2.55-.486-.866 0-1.716.16-2.552.485-.836.325-1.585.805-2.25 1.442zm2.134 7.297c-.367-.36-.643-.765-.826-1.216-.184-.454-.276-.914-.276-1.383 0-.47.092-.933.276-1.39.183-.458.46-.866.826-1.225.368-.36.783-.625 1.245-.8.46-.173.934-.26 1.42-.26.486 0 .96.087 1.422.26.463.175.877.44 1.245.8.367.36.643.767.826 1.225.184.457.276.92.276 1.39 0 .47-.093.93-.277 1.38-.183.452-.46.858-.826 1.217-.368.36-.782.628-1.245.808-.462.18-.936.27-1.422.27-.485 0-.96-.09-1.42-.27-.463-.18-.878-.45-1.246-.808z"/></svg><svg width="16" height="16" viewBox="-7.5 992.5 16 16" id="search-light" x="864" y="864"><path fill="#fff" d="M-5.51 994.428c-.663.65-1.16 1.38-1.492 2.198-.332.816-.498 1.647-.498 2.493 0 .843.166 1.674.498 2.49.332.817.83 1.55 1.493 2.198.535.52 1.128.938 1.78 1.25.65.313 1.327.52 2.027.626.7.104 1.4.098 2.106-.018.705-.116 1.378-.336 2.018-.66l3.06 2.988c.177.174.372.3.585.382.214.08.436.122.667.122.232 0 .454-.04.668-.122.213-.08.41-.208.586-.382.178-.173.31-.365.392-.573.082-.21.124-.425.124-.65 0-.225-.042-.443-.124-.65-.083-.21-.214-.4-.392-.574l-2.95-2.884c.414-.637.705-1.32.87-2.05.166-.73.21-1.46.134-2.19-.077-.73-.28-1.438-.605-2.127-.326-.69-.773-1.312-1.342-1.868-.663-.637-1.412-1.117-2.248-1.442-.835-.324-1.686-.486-2.55-.486-.866 0-1.716.16-2.552.485-.836.325-1.585.805-2.25 1.442zm2.134 7.297c-.367-.36-.643-.765-.826-1.216-.184-.454-.276-.914-.276-1.383 0-.47.092-.933.276-1.39.183-.458.46-.866.826-1.225.368-.36.783-.625 1.245-.8.46-.173.934-.26 1.42-.26.486 0 .96.087 1.422.26.463.175.877.44 1.245.8.367.36.643.767.826 1.225.184.457.276.92.276 1.39 0 .47-.093.93-.277 1.38-.183.452-.46.858-.826 1.217-.368.36-.782.628-1.245.808-.462.18-.936.27-1.422.27-.485 0-.96-.09-1.42-.27-.463-.18-.878-.45-1.246-.808z"/></svg><svg width="16" height="16" viewBox="-7.5 992.5 16 16" id="share" x="880" y="880"><path fill="#aaa" d="M8.5 1005.5a3 3 0 0 1-6 0v-.008l-5.195-2.594a3 3 0 1 1 0-4.796l5.195-2.594v-.008a3 3 0 0 1 6 0 3 3 0 0 1-4.805 2.398l-5.21 2.602 5.21 2.602A3 3 0 0 1 8.5 1005.5z"/></svg><svg width="16" height="16" viewBox="-7.5 992.5 16 16" id="share-dark" x="896" y="896"><path d="M8.5 1005.5a3 3 0 0 1-6 0v-.008l-5.195-2.594a3 3 0 1 1 0-4.796l5.195-2.594v-.008a3 3 0 0 1 6 0 3 3 0 0 1-4.805 2.398l-5.21 2.602 5.21 2.602A3 3 0 0 1 8.5 1005.5z"/></svg><svg width="16" height="16" viewBox="-7.5 992.5 16 16" id="share-light" x="912" y="912"><path fill="#fff" d="M8.5 1005.5a3 3 0 0 1-6 0v-.008l-5.195-2.594a3 3 0 1 1 0-4.796l5.195-2.594v-.008a3 3 0 0 1 6 0 3 3 0 0 1-4.805 2.398l-5.21 2.602 5.21 2.602A3 3 0 0 1 8.5 1005.5z"/></svg><svg width="16" height="16" viewBox="-7.5 992.5 16 16" id="tag-dark" x="928" y="928"><path d="M-2.77 995.88c0-.374-.13-.692-.395-.956-.264-.265-.583-.396-.956-.396-.374 0-.693.132-.957.396-.258.25-.4.596-.396.955 0 .373.132.69.396.955.264.264.583.396.956.396.372 0 .69-.13.955-.395.265-.264.396-.582.396-.956zm11.27 6.082c0 .374-.13.69-.39.95l-5.187 5.197c-.255.252-.6.393-.96.39-.374 0-.69-.13-.95-.39l-7.552-7.564c-.267-.26-.494-.615-.68-1.066-.187-.45-.28-.862-.28-1.235v-4.394c-.003-.357.142-.7.4-.95.27-.267.585-.4.952-.4h4.394c.373 0 .785.093 1.235.28.452.187.81.413 1.078.68l7.55 7.542c.262.274.392.595.392.96z"/></svg><svg width="16" height="16" viewBox="-7.5 992.5 16 16" id="tag-light" x="944" y="944"><path fill="#fff" d="M-2.77 995.88c0-.374-.13-.692-.395-.956-.264-.265-.583-.396-.956-.396-.374 0-.693.132-.957.396-.258.25-.4.596-.396.955 0 .373.132.69.396.955.264.264.583.396.956.396.372 0 .69-.13.955-.395.265-.264.396-.582.396-.956zm11.27 6.082c0 .374-.13.69-.39.95l-5.187 5.197c-.255.252-.6.393-.96.39-.374 0-.69-.13-.95-.39l-7.552-7.564c-.267-.26-.494-.615-.68-1.066-.187-.45-.28-.862-.28-1.235v-4.394c-.003-.357.142-.7.4-.95.27-.267.585-.4.952-.4h4.394c.373 0 .785.093 1.235.28.452.187.81.413 1.078.68l7.55 7.542c.262.274.392.595.392.96z"/></svg><svg width="16" height="16" viewBox="-7.5 992.5 16 16" id="tumblr" x="960" y="960"><path fill="#36465d" d="M3.048 1005.896c-.473 0-.885-.108-1.238-.323-.274-.16-.458-.368-.548-.625-.1-.25-.15-.848-.15-1.792v-4.104H4.96v-2.51H1.113V992.5H-1.2c-.107.82-.298 1.5-.572 2.042-.275.534-.638.993-1.09 1.375-.45.375-.996.666-1.638.875v2.26h1.796v5.614c0 .743.08 1.303.234 1.678.148.375.426.74.835 1.093.423.347.91.608 1.46.78.57.19 1.224.283 1.964.283.675 0 1.284-.066 1.827-.198.535-.118 1.163-.344 1.882-.678v-2.52c-.81.528-1.63.792-2.453.792z"/></svg><svg width="16" height="16" viewBox="-7.5 992.5 16 16" id="tumblr-dark" x="976" y="976"><path d="M3.048 1005.896c-.473 0-.885-.108-1.238-.323-.274-.16-.458-.368-.548-.625-.1-.25-.15-.848-.15-1.792v-4.104H4.96v-2.51H1.113V992.5H-1.2c-.107.82-.298 1.5-.572 2.042-.275.534-.638.993-1.09 1.375-.45.375-.996.666-1.638.875v2.26h1.796v5.614c0 .743.08 1.303.234 1.678.148.375.426.74.835 1.093.423.347.91.608 1.46.78.57.19 1.224.283 1.964.283.675 0 1.284-.066 1.827-.198.535-.118 1.163-.344 1.882-.678v-2.52c-.81.528-1.63.792-2.453.792z"/></svg><svg width="16" height="16" viewBox="-7.5 992.5 16 16" id="tumblr-light" x="992" y="992"><path fill="#fff" d="M3.048 1005.896c-.473 0-.885-.108-1.238-.323-.274-.16-.458-.368-.548-.625-.1-.25-.15-.848-.15-1.792v-4.104H4.96v-2.51H1.113V992.5H-1.2c-.107.82-.298 1.5-.572 2.042-.275.534-.638.993-1.09 1.375-.45.375-.996.666-1.638.875v2.26h1.796v5.614c0 .743.08 1.303.234 1.678.148.375.426.74.835 1.093.423.347.91.608 1.46.78.57.19 1.224.283 1.964.283.675 0 1.284-.066 1.827-.198.535-.118 1.163-.344 1.882-.678v-2.52c-.81.528-1.63.792-2.453.792z"/></svg><svg width="16" height="16" viewBox="-7.5 992.5 16 16" id="twitter" x="1008" y="1008"><path fill="#55acee" d="M6.867 997.234v.43C6.867 1002 3.57 1007-2.46 1007c-1.853 0-3.595-.406-5.04-1.336.258.04.516.055.78.055 1.532 0 2.962-.666 4.07-1.557-1.42-.016-2.647-.984-3.054-2.28a3.227 3.227 0 0 0 1.484-.056 3.28 3.28 0 0 1-2.633-3.22v-.038c.445.24.945.39 1.484.405a3.266 3.266 0 0 1-1.467-2.72c0-.608.172-1.108.445-1.593 1.633 1.984 4.04 3.22 6.758 3.367a3.4 3.4 0 0 1-.07-.76A3.267 3.267 0 0 1 3.568 994c.945 0 1.797.405 2.414 1.03a6.57 6.57 0 0 0 2.07-.797 3.252 3.252 0 0 1-1.445 1.82 6.42 6.42 0 0 0 1.89-.523 6.587 6.587 0 0 1-1.63 1.704z"/></svg><svg width="16" height="16" viewBox="-7.5 992.5 16 16" id="twitter-dark" x="1024" y="1024"><path d="M6.867 997.234v.43C6.867 1002 3.57 1007-2.46 1007c-1.853 0-3.595-.406-5.04-1.336.258.04.516.055.78.055 1.532 0 2.962-.666 4.07-1.557-1.42-.016-2.647-.984-3.054-2.28a3.227 3.227 0 0 0 1.484-.056 3.28 3.28 0 0 1-2.633-3.22v-.038c.445.24.945.39 1.484.405a3.266 3.266 0 0 1-1.467-2.72c0-.608.172-1.108.445-1.593 1.633 1.984 4.04 3.22 6.758 3.367a3.4 3.4 0 0 1-.07-.76A3.267 3.267 0 0 1 3.568 994c.945 0 1.797.405 2.414 1.03a6.57 6.57 0 0 0 2.07-.797 3.252 3.252 0 0 1-1.445 1.82 6.42 6.42 0 0 0 1.89-.523 6.587 6.587 0 0 1-1.63 1.704z"/></svg><svg width="16" height="16" viewBox="-7.5 992.5 16 16" id="twitter-light" x="1040" y="1040"><path fill="#fff" d="M6.867 997.234v.43C6.867 1002 3.57 1007-2.46 1007c-1.853 0-3.595-.406-5.04-1.336.258.04.516.055.78.055 1.532 0 2.962-.666 4.07-1.557-1.42-.016-2.647-.984-3.054-2.28a3.227 3.227 0 0 0 1.484-.056 3.28 3.28 0 0 1-2.633-3.22v-.038c.445.24.945.39 1.484.405a3.266 3.266 0 0 1-1.467-2.72c0-.608.172-1.108.445-1.593 1.633 1.984 4.04 3.22 6.758 3.367a3.4 3.4 0 0 1-.07-.76A3.267 3.267 0 0 1 3.568 994c.945 0 1.797.405 2.414 1.03a6.57 6.57 0 0 0 2.07-.797 3.252 3.252 0 0 1-1.445 1.82 6.42 6.42 0 0 0 1.89-.523 6.587 6.587 0 0 1-1.63 1.704z"/></svg><svg width="16" height="16" viewBox="-7.5 992.5 16 16" id="user" x="1056" y="1056"><path fill="#aaa" d="M7.84 1007.932l-.07.018c-.045.01-.114.025-.206.04-.092.02-.202.042-.328.07a6.79 6.79 0 0 1-.476.087c-.19.03-.394.055-.613.078-1.543.184-3.426.275-5.648.275-3.376 0-5.82-.19-7.34-.568-.14-.045-.246-.13-.32-.25s-.096-.256-.06-.406c.16-.758.44-1.385.845-1.88.402-.493.944-.954 1.623-1.378.207-.127.616-.316 1.226-.568.368-.15.656-.27.864-.363a3.21 3.21 0 0 0 .665-.414c.236-.184.39-.37.458-.568.14-.402-.03-.97-.5-1.707-1.462-2.322-1.722-4.293-.777-5.914A3.956 3.956 0 0 1-1.4 993.03a3.628 3.628 0 0 1 1.9-.528 3.6 3.6 0 0 1 1.893.527c.58.35 1.056.834 1.425 1.453.944 1.61.69 3.58-.76 5.914-.46.725-.633 1.293-.518 1.707.093.29.305.53.64.725.332.194.788.4 1.363.62.587.252.99.44 1.21.57.678.422 1.22.883 1.622 1.377s.685 1.12.847 1.88a.522.522 0 0 1-.06.405.58.58 0 0 1-.322.25z"/></svg><svg width="16" height="16" viewBox="-7.5 992.5 16 16" id="user-blue" x="1072" y="1072"><path fill="#00cccd" d="M7.84 1007.932l-.07.018c-.045.01-.114.025-.206.04-.092.02-.202.042-.328.07a6.79 6.79 0 0 1-.476.087c-.19.03-.394.055-.613.078-1.543.184-3.426.275-5.648.275-3.376 0-5.82-.19-7.34-.568-.14-.045-.246-.13-.32-.25s-.096-.256-.06-.406c.16-.758.44-1.385.845-1.88.402-.493.944-.954 1.623-1.378.207-.127.616-.316 1.226-.568.368-.15.656-.27.864-.363a3.21 3.21 0 0 0 .665-.414c.236-.184.39-.37.458-.568.14-.402-.03-.97-.5-1.707-1.462-2.322-1.722-4.293-.777-5.914A3.956 3.956 0 0 1-1.4 993.03a3.628 3.628 0 0 1 1.9-.528 3.6 3.6 0 0 1 1.893.527c.58.35 1.056.834 1.425 1.453.944 1.61.69 3.58-.76 5.914-.46.725-.633 1.293-.518 1.707.093.29.305.53.64.725.332.194.788.4 1.363.62.587.252.99.44 1.21.57.678.422 1.22.883 1.622 1.377s.685 1.12.847 1.88a.522.522 0 0 1-.06.405.58.58 0 0 1-.322.25z"/></svg><svg width="16" height="16" viewBox="-7.5 992.5 16 16" id="user-dark" x="1088" y="1088"><path d="M7.84 1007.932l-.07.018c-.045.01-.114.025-.206.04-.092.02-.202.042-.328.07a6.79 6.79 0 0 1-.476.087c-.19.03-.394.055-.613.078-1.543.184-3.426.275-5.648.275-3.376 0-5.82-.19-7.34-.568-.14-.045-.246-.13-.32-.25s-.096-.256-.06-.406c.16-.758.44-1.385.845-1.88.402-.493.944-.954 1.623-1.378.207-.127.616-.316 1.226-.568.368-.15.656-.27.864-.363a3.21 3.21 0 0 0 .665-.414c.236-.184.39-.37.458-.568.14-.402-.03-.97-.5-1.707-1.462-2.322-1.722-4.293-.777-5.914A3.956 3.956 0 0 1-1.4 993.03a3.628 3.628 0 0 1 1.9-.528 3.6 3.6 0 0 1 1.893.527c.58.35 1.056.834 1.425 1.453.944 1.61.69 3.58-.76 5.914-.46.725-.633 1.293-.518 1.707.093.29.305.53.64.725.332.194.788.4 1.363.62.587.252.99.44 1.21.57.678.422 1.22.883 1.622 1.377s.685 1.12.847 1.88a.522.522 0 0 1-.06.405.58.58 0 0 1-.322.25z"/></svg><svg width="16" height="16" viewBox="-7.5 992.5 16 16" id="user-light" x="1104" y="1104"><path fill="#fff" d="M7.84 1007.932l-.07.018c-.045.01-.114.025-.206.04-.092.02-.202.042-.328.07a6.79 6.79 0 0 1-.476.087c-.19.03-.394.055-.613.078-1.543.184-3.426.275-5.648.275-3.376 0-5.82-.19-7.34-.568-.14-.045-.246-.13-.32-.25s-.096-.256-.06-.406c.16-.758.44-1.385.845-1.88.402-.493.944-.954 1.623-1.378.207-.127.616-.316 1.226-.568.368-.15.656-.27.864-.363a3.21 3.21 0 0 0 .665-.414c.236-.184.39-.37.458-.568.14-.402-.03-.97-.5-1.707-1.462-2.322-1.722-4.293-.777-5.914A3.956 3.956 0 0 1-1.4 993.03a3.628 3.628 0 0 1 1.9-.528 3.6 3.6 0 0 1 1.893.527c.58.35 1.056.834 1.425 1.453.944 1.61.69 3.58-.76 5.914-.46.725-.633 1.293-.518 1.707.093.29.305.53.64.725.332.194.788.4 1.363.62.587.252.99.44 1.21.57.678.422 1.22.883 1.622 1.377s.685 1.12.847 1.88a.522.522 0 0 1-.06.405.58.58 0 0 1-.322.25z"/></svg><svg width="16" height="16" viewBox="-7.5 992.5 16 16" id="weibo" x="1120" y="1120"><path fill="#df2029" d="M4.05 1000.31c-.623-.113-.32-.43-.32-.43s.61-.94-.12-1.626c-.904-.848-3.102.106-3.102.106-.84.244-.62-.11-.5-.716 0-.714-.26-1.924-2.497-1.21-2.23.72-4.147 3.233-4.147 3.233-1.334 1.67-1.156 2.963-1.156 2.963.333 2.85 3.558 3.63 6.068 3.816 2.64.194 6.203-.854 7.284-3.008 1.08-2.158-.884-3.012-1.508-3.128zm-5.58 5.33c-2.622.115-4.74-1.116-4.74-2.76 0-1.64 2.118-2.96 4.74-3.073 2.622-.114 4.745.9 4.745 2.54 0 1.643-2.123 3.182-4.745 3.294zm-.524-4.75c-2.636.288-2.332 2.605-2.332 2.605s-.028.734.707 1.11c1.545.784 3.13.307 3.936-.664.8-.97.33-3.336-2.31-3.05zm-.665 3.252c-.49.056-.89-.21-.89-.597 0-.385.355-.79.848-.837.565-.052.934.256.934.642 0 .384-.397.74-.89.792zm1.557-1.242c-.167.117-.373.1-.46-.04-.09-.136-.058-.356.112-.47.193-.136.397-.098.485.04.087.14.025.35-.138.47zm6.498-3.593c.213 0 .394-.147.423-.34.004-.015.007-.028.007-.042.32-2.718-2.37-2.248-2.37-2.248-.24 0-.432.18-.432.407 0 .223.19.406.43.406 1.936-.4 1.51 1.415 1.51 1.415-.004.22.192.402.432.402zm-.315-4.74c-.933-.207-1.892-.03-2.158.02-.02 0-.04.017-.06.022-.01 0-.015.01-.015.01-.266.07-.46.297-.46.57 0 .324.28.59.63.59 0 0 .34-.043.568-.127.23-.086 2.157-.065 3.116 1.445.523 1.102.23 1.838.194 1.957 0 0-.125.287-.125.568 0 .327.28.53.624.53.29 0 .532-.035.604-.495h.003c1.033-3.22-1.253-4.73-2.92-5.094z"/></svg><svg width="16" height="16" viewBox="-7.5 992.5 16 16" id="weibo-dark" x="1136" y="1136"><path d="M4.05 1000.31c-.623-.113-.32-.43-.32-.43s.61-.94-.12-1.626c-.904-.848-3.102.106-3.102.106-.84.244-.62-.11-.5-.716 0-.714-.26-1.924-2.497-1.21-2.23.72-4.147 3.233-4.147 3.233-1.334 1.67-1.156 2.963-1.156 2.963.333 2.85 3.558 3.63 6.068 3.816 2.64.194 6.203-.854 7.284-3.008 1.08-2.158-.884-3.012-1.508-3.128zm-5.58 5.33c-2.622.115-4.74-1.116-4.74-2.76 0-1.64 2.118-2.96 4.74-3.073 2.622-.114 4.745.9 4.745 2.54 0 1.643-2.123 3.182-4.745 3.294zm-.524-4.75c-2.636.288-2.332 2.605-2.332 2.605s-.028.734.707 1.11c1.545.784 3.13.307 3.936-.664.8-.97.33-3.336-2.31-3.05zm-.665 3.252c-.49.056-.89-.21-.89-.597 0-.385.355-.79.848-.837.565-.052.934.256.934.642 0 .384-.397.74-.89.792zm1.557-1.242c-.167.117-.373.1-.46-.04-.09-.136-.058-.356.112-.47.193-.136.397-.098.485.04.087.14.025.35-.138.47zm6.498-3.593c.213 0 .394-.147.423-.34.004-.015.007-.028.007-.042.32-2.718-2.37-2.248-2.37-2.248-.24 0-.432.18-.432.407 0 .223.19.406.43.406 1.936-.4 1.51 1.415 1.51 1.415-.004.22.192.402.432.402zm-.315-4.74c-.933-.207-1.892-.03-2.158.02-.02 0-.04.017-.06.022-.01 0-.015.01-.015.01-.266.07-.46.297-.46.57 0 .324.28.59.63.59 0 0 .34-.043.568-.127.23-.086 2.157-.065 3.116 1.445.523 1.102.23 1.838.194 1.957 0 0-.125.287-.125.568 0 .327.28.53.624.53.29 0 .532-.035.604-.495h.003c1.033-3.22-1.253-4.73-2.92-5.094z"/></svg><svg width="16" height="16" viewBox="-7.5 992.5 16 16" id="weibo-light" x="1152" y="1152"><path fill="#fff" d="M4.05 1000.31c-.623-.113-.32-.43-.32-.43s.61-.94-.12-1.626c-.904-.848-3.102.106-3.102.106-.84.244-.62-.11-.5-.716 0-.714-.26-1.924-2.497-1.21-2.23.72-4.147 3.233-4.147 3.233-1.334 1.67-1.156 2.963-1.156 2.963.333 2.85 3.558 3.63 6.068 3.816 2.64.194 6.203-.854 7.284-3.008 1.08-2.158-.884-3.012-1.508-3.128zm-5.58 5.33c-2.622.115-4.74-1.116-4.74-2.76 0-1.64 2.118-2.96 4.74-3.073 2.622-.114 4.745.9 4.745 2.54 0 1.643-2.123 3.182-4.745 3.294zm-.524-4.75c-2.636.288-2.332 2.605-2.332 2.605s-.028.734.707 1.11c1.545.784 3.13.307 3.936-.664.8-.97.33-3.336-2.31-3.05zm-.665 3.252c-.49.056-.89-.21-.89-.597 0-.385.355-.79.848-.837.565-.052.934.256.934.642 0 .384-.397.74-.89.792zm1.557-1.242c-.167.117-.373.1-.46-.04-.09-.136-.058-.356.112-.47.193-.136.397-.098.485.04.087.14.025.35-.138.47zm6.498-3.593c.213 0 .394-.147.423-.34.004-.015.007-.028.007-.042.32-2.718-2.37-2.248-2.37-2.248-.24 0-.432.18-.432.407 0 .223.19.406.43.406 1.936-.4 1.51 1.415 1.51 1.415-.004.22.192.402.432.402zm-.315-4.74c-.933-.207-1.892-.03-2.158.02-.02 0-.04.017-.06.022-.01 0-.015.01-.015.01-.266.07-.46.297-.46.57 0 .324.28.59.63.59 0 0 .34-.043.568-.127.23-.086 2.157-.065 3.116 1.445.523 1.102.23 1.838.194 1.957 0 0-.125.287-.125.568 0 .327.28.53.624.53.29 0 .532-.035.604-.495h.003c1.033-3.22-1.253-4.73-2.92-5.094z"/></svg><svg width="16" height="16" viewBox="-7.5 992.5 16 16" id="whatsapp" x="1168" y="1168"><path fill="#4dc247" d="M8.46 1000.46c0 4.4-3.56 7.962-7.96 7.962-1.5 0-2.9-.412-4.097-1.135l-3.786 1.213 1.23-3.662a7.962 7.962 0 0 1-1.307-4.377c0-4.4 3.56-7.96 7.96-7.96s7.96 3.56 7.96 7.96zm-3.474 2.248c-.046-.094-.194-.155-.412-.272-.218-.116-1.29-.7-1.485-.777-.204-.087-.35-.126-.507.092s-.6.7-.74.84c-.13.147-.263.155-.48.038-.218-.115-.926-.38-1.742-1.165a6.532 6.532 0 0 1-1.173-1.586c-.125-.228 0-.344.108-.444.11-.102.233-.257.35-.382.117-.124.155-.218.233-.357.084-.147.053-.28 0-.39-.056-.115-.452-1.22-.623-1.67-.17-.45-.357-.39-.482-.39-.132-.008-.28-.03-.428-.038a.786.786 0 0 0-.6.255c-.217.218-.808.73-.847 1.82-.04 1.096.715 2.176.816 2.33.11.15 1.446 2.513 3.662 3.492 2.223.972 2.24.677 2.643.653.412-.022 1.33-.49 1.54-1.002.204-.506.22-.956.165-1.05z"/></svg><svg width="16" height="16" viewBox="-7.5 992.5 16 16" id="whatsapp--dark" x="1184" y="1184"><path d="M8.46 1000.46c0 4.4-3.56 7.962-7.96 7.962-1.5 0-2.9-.412-4.097-1.135l-3.786 1.213 1.23-3.662a7.962 7.962 0 0 1-1.307-4.377c0-4.4 3.56-7.96 7.96-7.96s7.96 3.56 7.96 7.96zm-3.474 2.248c-.046-.094-.194-.155-.412-.272-.218-.116-1.29-.7-1.485-.777-.204-.087-.35-.126-.507.092s-.6.7-.74.84c-.13.147-.263.155-.48.038-.218-.115-.926-.38-1.742-1.165a6.532 6.532 0 0 1-1.173-1.586c-.125-.228 0-.344.108-.444.11-.102.233-.257.35-.382.117-.124.155-.218.233-.357.084-.147.053-.28 0-.39-.056-.115-.452-1.22-.623-1.67-.17-.45-.357-.39-.482-.39-.132-.008-.28-.03-.428-.038a.786.786 0 0 0-.6.255c-.217.218-.808.73-.847 1.82-.04 1.096.715 2.176.816 2.33.11.15 1.446 2.513 3.662 3.492 2.223.972 2.24.677 2.643.653.412-.022 1.33-.49 1.54-1.002.204-.506.22-.956.165-1.05z"/></svg><svg width="16" height="16" viewBox="-7.5 992.5 16 16" id="whatsapp-light" x="1200" y="1200"><path fill="#fff" d="M8.46 1000.46c0 4.4-3.56 7.962-7.96 7.962-1.5 0-2.9-.412-4.097-1.135l-3.786 1.213 1.23-3.662a7.962 7.962 0 0 1-1.307-4.377c0-4.4 3.56-7.96 7.96-7.96s7.96 3.56 7.96 7.96zm-3.474 2.248c-.046-.094-.194-.155-.412-.272-.218-.116-1.29-.7-1.485-.777-.204-.087-.35-.126-.507.092s-.6.7-.74.84c-.13.147-.263.155-.48.038-.218-.115-.926-.38-1.742-1.165a6.532 6.532 0 0 1-1.173-1.586c-.125-.228 0-.344.108-.444.11-.102.233-.257.35-.382.117-.124.155-.218.233-.357.084-.147.053-.28 0-.39-.056-.115-.452-1.22-.623-1.67-.17-.45-.357-.39-.482-.39-.132-.008-.28-.03-.428-.038a.786.786 0 0 0-.6.255c-.217.218-.808.73-.847 1.82-.04 1.096.715 2.176.816 2.33.11.15 1.446 2.513 3.662 3.492 2.223.972 2.24.677 2.643.653.412-.022 1.33-.49 1.54-1.002.204-.506.22-.956.165-1.05z"/></svg><svg width="16" height="16" viewBox="-7.5 992.5 16 16" id="youtube" x="1216" y="1216"><path fill="#cd201f" d="M8.5 1000.5c0 5.664 0 5.664-8 5.664s-8 0-8-5.664 0-5.664 8-5.664 8 0 8 5.664zm-5 0l-5-3v6l5-3z"/></svg><svg width="16" height="16" viewBox="-7.5 992.5 16 16" id="youtube-dark" x="1232" y="1232"><path d="M8.5 1000.5c0 5.664 0 5.664-8 5.664s-8 0-8-5.664 0-5.664 8-5.664 8 0 8 5.664zm-5 0l-5-3v6l5-3z"/></svg><svg width="16" height="16" viewBox="-7.5 992.5 16 16" id="youtube-light" x="1248" y="1248"><path fill="#fff" d="M8.5 1000.5c0 5.664 0 5.664-8 5.664s-8 0-8-5.664 0-5.664 8-5.664 8 0 8 5.664zm-5 0l-5-3v6l5-3z"/></svg></svg>
