<?xml version="1.0" encoding="utf-8"?>
<!-- Created with Boxy SVG Version 2.15.0 -->
<!DOCTYPE svg PUBLIC "-//W3C//DTD SVG 1.1//EN" "http://www.w3.org/Graphics/SVG/1.1/DTD/svg11.dtd">
<svg version="1.1" xmlns="http://www.w3.org/2000/svg" xmlns:xlink="http://www.w3.org/1999/xlink" x="0px" y="0px" viewBox="0 0 48 352" enable-background="new 0 0 48 352" xml:space="preserve">
  <g id="ellipsis">
    <ellipse id="GDSId_1"  fill="#AAAAAA" cx="2" cy="8" rx="2" ry="2"/>
    <ellipse id="GDSId_2" fill="#AAAAAA" cx="8" cy="8" rx="2" ry="2"/>
    <ellipse id="GDSId_3" fill="#AAAAAA" cx="14" cy="8" rx="2" ry="2"/>
    <ellipse id="GDSId_4" cx="18" cy="8" rx="2" ry="2"/>
    <ellipse id="GDSId_5" cx="24" cy="8" rx="2" ry="2"/>
    <ellipse id="GDSId_6" cx="30" cy="8" rx="2" ry="2"/>
    <ellipse id="GDSId_7" fill="#FFFFFF" cx="34" cy="8" rx="2" ry="2"/>
    <ellipse id="GDSId_8" fill="#FFFFFF" cx="40" cy="8" rx="2" ry="2"/>
    <ellipse id="GDSId_9" fill="#FFFFFF" cx="46" cy="8" rx="2" ry="2"/>
  </g>
  <g id="whatsapp">
    <path id="SOCWhp_1" fill="#4DC247" d="M 0 352 L 1.122 347.891 C 0.43 346.689 0.066 345.325 0.067 343.927 C 0.069 339.557 3.617 336 7.978 336 C 10.094 336.001 12.08 336.827 13.574 338.325 C 15.068 339.824 15.89 341.816 15.889 343.935 C 15.887 348.306 12.338 351.863 7.978 351.863 C 6.654 351.862 5.35 351.529 4.194 350.897 L 0 352 Z M 4.388 349.462 C 5.503 350.125 6.568 350.523 7.975 350.523 C 11.599 350.523 14.552 347.567 14.554 343.933 C 14.555 340.292 11.617 337.34 7.981 337.339 C 4.354 337.339 1.404 340.295 1.402 343.928 C 1.402 345.411 1.835 346.522 2.564 347.684 L 1.899 350.116 L 4.388 349.462 Z M 11.963 345.819 C 11.914 345.737 11.782 345.687 11.584 345.588 C 11.386 345.489 10.415 345.009 10.233 344.943 C 10.052 344.877 9.92 344.844 9.788 345.043 C 9.656 345.241 9.277 345.687 9.162 345.819 C 9.047 345.951 8.931 345.968 8.734 345.869 C 8.536 345.769 7.899 345.561 7.144 344.885 C 6.556 344.36 6.159 343.711 6.044 343.513 C 5.929 343.315 6.032 343.207 6.131 343.109 C 6.22 343.02 6.328 342.877 6.427 342.761 C 6.528 342.647 6.56 342.564 6.627 342.431 C 6.693 342.299 6.66 342.183 6.61 342.084 C 6.56 341.985 6.165 341.01 6.001 340.613 C 5.84 340.227 5.677 340.279 5.556 340.273 L 5.177 340.267 C 5.045 340.267 4.831 340.316 4.65 340.515 C 4.469 340.713 3.958 341.192 3.958 342.167 C 3.958 343.143 4.666 344.085 4.765 344.217 C 4.864 344.349 6.159 346.35 8.142 347.208 C 8.613 347.412 8.982 347.534 9.268 347.625 C 9.742 347.776 10.173 347.755 10.514 347.704 C 10.894 347.647 11.683 347.225 11.848 346.762 C 12.013 346.299 12.013 345.902 11.963 345.819 Z"/>
    <path id="SOCWhp_2" d="M 16 352 L 17.122 347.891 C 16.43 346.689 16.066 345.325 16.067 343.927 C 16.069 339.557 19.617 336 23.978 336 C 26.094 336.001 28.08 336.827 29.574 338.325 C 31.068 339.824 31.89 341.816 31.889 343.935 C 31.887 348.306 28.338 351.863 23.978 351.863 C 22.654 351.862 21.35 351.529 20.194 350.897 L 16 352 Z M 20.388 349.462 C 21.503 350.125 22.568 350.523 23.975 350.523 C 27.599 350.523 30.552 347.567 30.554 343.933 C 30.555 340.292 27.617 337.34 23.981 337.339 C 20.354 337.339 17.404 340.295 17.402 343.928 C 17.402 345.411 17.835 346.522 18.564 347.684 L 17.899 350.116 L 20.388 349.462 Z M 27.963 345.819 C 27.914 345.737 27.782 345.687 27.584 345.588 C 27.386 345.489 26.415 345.009 26.233 344.943 C 26.052 344.877 25.92 344.844 25.788 345.043 C 25.656 345.241 25.277 345.687 25.162 345.819 C 25.047 345.951 24.931 345.968 24.734 345.869 C 24.536 345.769 23.899 345.561 23.144 344.885 C 22.556 344.36 22.159 343.711 22.044 343.513 C 21.929 343.315 22.032 343.207 22.131 343.109 C 22.22 343.02 22.328 342.877 22.427 342.761 C 22.528 342.647 22.56 342.564 22.627 342.431 C 22.693 342.299 22.66 342.183 22.61 342.084 C 22.56 341.985 22.165 341.01 22.001 340.613 C 21.84 340.227 21.677 340.279 21.556 340.273 L 21.177 340.267 C 21.045 340.267 20.831 340.316 20.65 340.515 C 20.469 340.713 19.958 341.192 19.958 342.167 C 19.958 343.143 20.666 344.085 20.765 344.217 C 20.864 344.349 22.159 346.35 24.142 347.208 C 24.613 347.412 24.982 347.534 25.268 347.625 C 25.742 347.776 26.173 347.755 26.514 347.704 C 26.894 347.647 27.683 347.225 27.848 346.762 C 28.013 346.299 28.013 345.902 27.963 345.819 Z"/>
    <path id="SOCWhp_3" fill="#FFFFFF" d="M 32 352 L 33.122 347.891 C 32.43 346.689 32.066 345.325 32.067 343.927 C 32.069 339.557 35.617 336 39.978 336 C 42.094 336.001 44.08 336.827 45.574 338.325 C 47.068 339.824 47.89 341.816 47.889 343.935 C 47.887 348.306 44.338 351.863 39.978 351.863 C 38.654 351.862 37.35 351.529 36.194 350.897 L 32 352 Z M 36.388 349.462 C 37.503 350.125 38.568 350.523 39.975 350.523 C 43.599 350.523 46.552 347.567 46.554 343.933 C 46.555 340.292 43.617 337.34 39.981 337.339 C 36.354 337.339 33.404 340.295 33.402 343.928 C 33.402 345.411 33.835 346.522 34.564 347.684 L 33.899 350.116 L 36.388 349.462 Z M 43.963 345.819 C 43.914 345.737 43.782 345.687 43.584 345.588 C 43.386 345.489 42.415 345.009 42.233 344.943 C 42.052 344.877 41.92 344.844 41.788 345.043 C 41.656 345.241 41.277 345.687 41.162 345.819 C 41.047 345.951 40.931 345.968 40.734 345.869 C 40.536 345.769 39.899 345.561 39.144 344.885 C 38.556 344.36 38.159 343.711 38.044 343.513 C 37.929 343.315 38.032 343.207 38.131 343.109 C 38.22 343.02 38.328 342.877 38.427 342.761 C 38.528 342.647 38.56 342.564 38.627 342.431 C 38.693 342.299 38.66 342.183 38.61 342.084 C 38.56 341.985 38.165 341.01 38.001 340.613 C 37.84 340.227 37.677 340.279 37.556 340.273 L 37.177 340.267 C 37.045 340.267 36.831 340.316 36.65 340.515 C 36.469 340.713 35.958 341.192 35.958 342.167 C 35.958 343.143 36.666 344.085 36.765 344.217 C 36.864 344.349 38.159 346.35 40.142 347.208 C 40.613 347.412 40.982 347.534 41.268 347.625 C 41.742 347.776 42.173 347.755 42.514 347.704 C 42.894 347.647 43.683 347.225 43.848 346.762 C 44.013 346.299 44.013 345.902 43.963 345.819 Z"/>
  </g>
  <g id="pinterest">
    <path id="SOCPin_1" fill="#CC2127" d="M 6.715 282.689 C 6.294 284.848 5.781 286.919 4.261 288 C 3.792 284.736 4.95 282.285 5.488 279.683 C 4.57 278.17 5.598 275.125 7.532 275.876 C 9.912 276.798 5.471 281.501 8.452 282.089 C 11.565 282.702 12.835 276.795 10.905 274.875 C 8.117 272.101 2.788 274.81 3.444 278.782 C 3.603 279.753 4.626 280.047 3.853 281.388 C 2.068 281.001 1.535 279.621 1.604 277.781 C 1.714 274.769 4.363 272.662 7.021 272.37 C 10.382 272 13.536 273.579 13.972 276.678 C 14.462 280.176 12.455 283.965 8.861 283.693 C 7.887 283.618 7.479 283.145 6.715 282.69 Z"/>
    <path id="SOCPin_2" d="M 22.71 282.689 C 22.289 284.848 21.776 286.919 20.256 288 C 19.787 284.736 20.945 282.285 21.483 279.683 C 20.565 278.17 21.593 275.125 23.527 275.876 C 25.907 276.798 21.466 281.501 24.447 282.089 C 27.56 282.702 28.83 276.795 26.9 274.875 C 24.112 272.101 18.783 274.81 19.439 278.782 C 19.598 279.753 20.621 280.047 19.848 281.388 C 18.063 281.001 17.53 279.621 17.599 277.781 C 17.709 274.769 20.358 272.662 23.016 272.37 C 26.377 272 29.531 273.579 29.967 276.678 C 30.457 280.176 28.45 283.965 24.856 283.693 C 23.882 283.618 23.474 283.145 22.71 282.69 Z"/>
    <path id="SOCPin_3" fill="#FFFFFF" d="M 38.71 282.689 C 38.289 284.848 37.776 286.919 36.256 288 C 35.787 284.736 36.945 282.285 37.483 279.683 C 36.565 278.17 37.593 275.125 39.527 275.876 C 41.907 276.798 37.466 281.501 40.447 282.089 C 43.56 282.702 44.83 276.795 42.9 274.875 C 40.112 272.101 34.783 274.81 35.439 278.782 C 35.598 279.753 36.621 280.047 35.848 281.388 C 34.063 281.001 33.53 279.621 33.599 277.781 C 33.709 274.769 36.358 272.662 39.016 272.37 C 42.377 272 45.531 273.579 45.967 276.678 C 46.457 280.176 44.45 283.965 40.856 283.693 C 39.882 283.618 39.474 283.145 38.71 282.69 Z"/>
  </g>
  <g id="search">
    <path id="GDSId_10"  fill="#AAAAAA" d="M 15.809 29.009 L 11.307 24.491 C 13.178 20.598 10.35 16 5.984 16 C 2.729 16 0.08 18.659 0.08 21.926 C 0.08 26.237 4.528 29.078 8.397 27.335 L 12.937 31.891 C 14.228 32 15.92 30.351 15.809 29.009 Z M 5.984 25.882 C 3.811 25.882 2.042 24.107 2.042 21.926 C 2.042 19.745 3.811 17.97 5.984 17.97 C 8.158 17.97 9.927 19.745 9.927 21.926 C 9.927 24.107 8.158 25.882 5.984 25.882 Z"/>
    <path id="GDSId_12" d="M 31.809 29.009 L 27.307 24.491 C 29.178 20.598 26.35 16 21.984 16 C 18.729 16 16.08 18.659 16.08 21.926 C 16.08 26.237 20.528 29.078 24.397 27.335 L 28.937 31.891 C 30.228 32 31.92 30.351 31.809 29.009 Z M 21.984 25.882 C 19.811 25.882 18.042 24.107 18.042 21.926 C 18.042 19.745 19.811 17.97 21.984 17.97 C 24.158 17.97 25.927 19.745 25.927 21.926 C 25.927 24.107 24.158 25.882 21.984 25.882 Z"/>
    <path id="GDSId_13" fill="#FFFFFF" d="M 47.809 29.009 L 43.307 24.491 C 45.178 20.598 42.35 16 37.984 16 C 34.729 16 32.08 18.659 32.08 21.926 C 32.08 26.237 36.528 29.078 40.397 27.335 L 44.937 31.891 C 46.228 32 47.92 30.351 47.809 29.009 Z M 37.984 25.882 C 35.811 25.882 34.042 24.107 34.042 21.926 C 34.042 19.745 35.811 17.97 37.984 17.97 C 40.158 17.97 41.927 19.745 41.927 21.926 C 41.927 24.107 40.158 25.882 37.984 25.882 Z"/>
  </g>
  <g id="user">
    <path id="GDSId_14"  fill="#AAAAAA" d="M 13.869 44.064 C 11.581 43.535 9.452 43.071 10.483 41.119 C 13.623 35.177 11.315 32 8 32 C 4.619 32 2.369 35.299 5.517 41.119 C 6.58 43.082 4.37 43.546 2.131 44.064 C 0.086 44.537 0.01 45.555 0.017 47.333 L 0.019 48 L 15.979 48 L 15.982 47.354 C 15.99 45.562 15.921 44.539 13.869 44.064 Z"/>
    <path id="GDSId_15" d="M 29.869 44.064 C 27.581 43.535 25.452 43.071 26.483 41.119 C 29.623 35.177 27.315 32 24 32 C 20.619 32 18.369 35.299 21.517 41.119 C 22.58 43.082 20.37 43.546 18.131 44.064 C 16.086 44.537 16.01 45.555 16.017 47.333 L 16.019 48 L 31.979 48 L 31.982 47.354 C 31.99 45.562 31.921 44.539 29.869 44.064 Z"/>
    <path id="GDSId_16" fill="#FFFFFF" d="M 45.869 44.064 C 43.581 43.535 41.452 43.071 42.483 41.119 C 45.623 35.177 43.315 32 40 32 C 36.619 32 34.369 35.299 37.517 41.119 C 38.58 43.082 36.37 43.546 34.131 44.064 C 32.086 44.537 32.01 45.555 32.017 47.333 L 32.019 48 L 47.979 48 L 47.982 47.354 C 47.99 45.562 47.921 44.539 45.869 44.064 Z"/>
  </g>
  <g id="mail">
    <path id="GDSId_17"  fill="#AAAAAA" d="M 8 56.476 L 0.01 50 L 15.99 50 L 8 56.476 Z M 8 58.192 L 0 51.708 L 0 62 L 16 62 L 16 51.708 L 8 58.192 Z"/>
    <path id="GDSId_18" d="M 24 56.476 L 16.01 50 L 31.99 50 L 24 56.476 Z M 24 58.192 L 16 51.708 L 16 62 L 32 62 L 32 51.708 L 24 58.192 Z"/>
    <path id="GDSId_19" fill="#FFFFFF" d="M 40 56.476 L 32.01 50 L 47.99 50 L 40 56.476 Z M 40 58.192 L 32 51.708 L 32 62 L 48 62 L 48 51.708 L 40 58.192 Z"/>
  </g>
  <g id="speaker">
    <path id="GDSId_20"  fill="#AAAAAA" d="M 1.77 106.754 C 1.213 107.477 0.742 107.693 0 107.451 L 1.765 111.173 C 1.936 110.284 2.308 109.786 3.101 109.562 L 13.333 106.532 L 9.11 97.629 L 1.77 106.754 Z M 9.317 108.95 L 9.005 110.669 C 8.943 110.976 8.745 111.216 8.493 111.294 L 6.525 111.924 C 6.281 112 6.023 111.913 5.846 111.696 L 4.797 110.306 L 5.867 109.986 L 6.297 110.61 C 6.415 110.755 6.585 110.812 6.747 110.762 L 7.812 110.416 C 7.98 110.365 8.111 110.205 8.153 110.001 L 8.261 109.266 L 9.317 108.95 Z M 15.129 99.808 L 13.34 101.115 L 12.836 100.091 L 14.627 98.784 L 15.129 99.808 Z M 12.199 98.864 L 11.309 98.365 L 12.203 96 L 13.093 96.501 L 12.199 98.864 Z M 15.945 103.861 L 13.81 103.72 L 13.864 102.528 L 16 102.67 L 15.945 103.861 Z"/>
    <path id="GDSId_21" d="M 17.77 106.754 C 17.213 107.477 16.742 107.693 16 107.451 L 17.765 111.173 C 17.936 110.284 18.308 109.786 19.101 109.562 L 29.333 106.532 L 25.11 97.629 L 17.77 106.754 Z M 25.317 108.95 L 25.005 110.669 C 24.943 110.976 24.745 111.216 24.493 111.294 L 22.525 111.924 C 22.281 112 22.023 111.913 21.846 111.696 L 20.797 110.306 L 21.867 109.986 L 22.297 110.61 C 22.415 110.755 22.585 110.812 22.747 110.762 L 23.812 110.416 C 23.98 110.365 24.111 110.205 24.153 110.001 L 24.261 109.266 L 25.317 108.95 Z M 31.129 99.808 L 29.34 101.115 L 28.836 100.091 L 30.627 98.784 L 31.129 99.808 Z M 28.199 98.864 L 27.309 98.365 L 28.203 96 L 29.093 96.501 L 28.199 98.864 Z M 31.945 103.861 L 29.81 103.72 L 29.864 102.528 L 32 102.67 L 31.945 103.861 Z"/>
    <path id="GDSId_22" fill="#FFFFFF" d="M 33.77 106.754 C 33.213 107.477 32.742 107.693 32 107.451 L 33.765 111.173 C 33.936 110.284 34.308 109.786 35.101 109.562 L 45.333 106.532 L 41.11 97.629 L 33.77 106.754 Z M 41.317 108.95 L 41.005 110.669 C 40.943 110.976 40.745 111.216 40.493 111.294 L 38.525 111.924 C 38.281 112 38.023 111.913 37.846 111.696 L 36.797 110.306 L 37.867 109.986 L 38.297 110.61 C 38.415 110.755 38.585 110.812 38.747 110.762 L 39.812 110.416 C 39.98 110.365 40.111 110.205 40.153 110.001 L 40.261 109.266 L 41.317 108.95 Z M 47.129 99.808 L 45.34 101.115 L 44.836 100.091 L 46.627 98.784 L 47.129 99.808 Z M 44.199 98.864 L 43.309 98.365 L 44.203 96 L 45.093 96.501 L 44.199 98.864 Z M 47.945 103.861 L 45.81 103.72 L 45.864 102.528 L 48 102.67 L 47.945 103.861 Z"/>
  </g>
  <g id="location">
    <path id="GDSId_23"  fill="#AAAAAA" d="M 8 112 C 4.851 112 2 114.269 2 117.068 C 2 119.867 4.602 123.208 8 128 C 11.398 123.208 14 119.867 14 117.068 C 14 114.269 11.15 112 8 112 Z M 8 119.333 C 6.758 119.333 5.75 118.438 5.75 117.333 C 5.75 116.229 6.758 115.333 8 115.333 C 9.242 115.333 10.25 116.229 10.25 117.333 C 10.25 118.438 9.242 119.333 8 119.333 Z"/>
    <path id="GDSId_24" d="M 24 112 C 20.851 112 18 114.269 18 117.068 C 18 119.867 20.602 123.208 24 128 C 27.398 123.208 30 119.867 30 117.068 C 30 114.269 27.15 112 24 112 Z M 24 119.333 C 22.758 119.333 21.75 118.438 21.75 117.333 C 21.75 116.229 22.758 115.333 24 115.333 C 25.242 115.333 26.25 116.229 26.25 117.333 C 26.25 118.438 25.242 119.333 24 119.333 Z"/>
    <path id="GDSId_25" fill="#FFFFFF" d="M 40 112 C 36.851 112 34 114.269 34 117.068 C 34 119.867 36.602 123.208 40 128 C 43.398 123.208 46 119.867 46 117.068 C 46 114.269 43.15 112 40 112 Z M 40 119.333 C 38.758 119.333 37.75 118.438 37.75 117.333 C 37.75 116.229 38.758 115.333 40 115.333 C 41.242 115.333 42.25 116.229 42.25 117.333 C 42.25 118.438 41.242 119.333 40 119.333 Z"/>
  </g>
  <g id="comment">
    <path id="GDSId_26"  fill="#AAAAAA" d="M 1.6 128 L 14.4 128 C 15.267 128 16 128.758 16 129.655 L 16 138.758 C 16 139.655 15.267 140.413 14.4 140.413 L 6.785 140.413 L 4.197 143.358 C 4.146 143.416 4.074 143.448 4 143.448 C 3.968 143.448 3.935 143.442 3.904 143.429 C 3.801 143.388 3.733 143.286 3.733 143.172 L 3.733 140.413 L 1.6 140.413 C 0.733 140.413 0 139.655 0 138.758 L 0 129.655 C 0 128.758 0.733 128 1.6 128 Z"/>
    <path id="GDSId_27" d="M 17.6 128 L 30.4 128 C 31.267 128 32 128.758 32 129.655 L 32 138.758 C 32 139.655 31.267 140.413 30.4 140.413 L 22.785 140.413 L 20.197 143.358 C 20.146 143.416 20.074 143.448 20 143.448 C 19.968 143.448 19.935 143.442 19.904 143.429 C 19.801 143.388 19.733 143.286 19.733 143.172 L 19.733 140.413 L 17.6 140.413 C 16.733 140.413 16 139.655 16 138.758 L 16 129.655 C 16 128.758 16.733 128 17.6 128 Z"/>
    <path id="GDSId_28" fill="#FFFFFF" d="M 33.6 128 L 46.4 128 C 47.267 128 48 128.758 48 129.655 L 48 138.758 C 48 139.655 47.267 140.413 46.4 140.413 L 38.785 140.413 L 36.197 143.358 C 36.146 143.416 36.074 143.448 36 143.448 C 35.968 143.448 35.935 143.442 35.904 143.429 C 35.801 143.388 35.733 143.286 35.733 143.172 L 35.733 140.413 L 33.6 140.413 C 32.733 140.413 32 139.655 32 138.758 L 32 129.655 C 32 128.758 32.733 128 33.6 128 Z"/>
  </g>
  <g id="calendar">
    <path id="GDSId_29"  fill="#AAAAAA" d="M 13.333 157.333 L 10.667 157.333 L 10.667 154.667 L 13.333 154.667 L 13.333 157.333 Z M 9.333 150.667 L 6.667 150.667 L 6.667 153.333 L 9.333 153.333 L 9.333 150.667 Z M 13.333 150.667 L 10.667 150.667 L 10.667 153.333 L 13.333 153.333 L 13.333 150.667 Z M 5.333 154.667 L 2.667 154.667 L 2.667 157.333 L 5.333 157.333 L 5.333 154.667 Z M 9.333 154.667 L 6.667 154.667 L 6.667 157.333 L 9.333 157.333 L 9.333 154.667 Z M 5.333 150.667 L 2.667 150.667 L 2.667 153.333 L 5.333 153.333 L 5.333 150.667 Z M 16 145.333 L 16 160 L 0 160 L 0 145.333 L 2 145.333 L 2 146 C 2 146.735 2.598 147.333 3.333 147.333 C 4.069 147.333 4.667 146.735 4.667 146 L 4.667 145.333 L 11.333 145.333 L 11.333 146 C 11.333 146.735 11.931 147.333 12.667 147.333 C 13.402 147.333 14 146.735 14 146 L 14 145.333 L 16 145.333 Z M 14.667 149.333 L 1.333 149.333 L 1.333 158.667 L 14.667 158.667 L 14.667 149.333 Z M 13.333 144.667 C 13.333 144.299 13.035 144 12.667 144 C 12.298 144 12 144.299 12 144.667 L 12 146 C 12 146.368 12.298 146.667 12.667 146.667 C 13.035 146.667 13.333 146.368 13.333 146 L 13.333 144.667 Z M 4 146 C 4 146.368 3.702 146.667 3.333 146.667 C 2.965 146.667 2.667 146.368 2.667 146 L 2.667 144.667 C 2.667 144.299 2.965 144 3.333 144 C 3.702 144 4 144.299 4 144.667 L 4 146 Z"/>
    <path id="GDSId_30" d="M 29.333 157.333 L 26.667 157.333 L 26.667 154.667 L 29.333 154.667 L 29.333 157.333 Z M 25.333 150.667 L 22.667 150.667 L 22.667 153.333 L 25.333 153.333 L 25.333 150.667 Z M 29.333 150.667 L 26.667 150.667 L 26.667 153.333 L 29.333 153.333 L 29.333 150.667 Z M 21.333 154.667 L 18.667 154.667 L 18.667 157.333 L 21.333 157.333 L 21.333 154.667 Z M 25.333 154.667 L 22.667 154.667 L 22.667 157.333 L 25.333 157.333 L 25.333 154.667 Z M 21.333 150.667 L 18.667 150.667 L 18.667 153.333 L 21.333 153.333 L 21.333 150.667 Z M 32 145.333 L 32 160 L 16 160 L 16 145.333 L 18 145.333 L 18 146 C 18 146.735 18.598 147.333 19.333 147.333 C 20.069 147.333 20.667 146.735 20.667 146 L 20.667 145.333 L 27.333 145.333 L 27.333 146 C 27.333 146.735 27.931 147.333 28.667 147.333 C 29.402 147.333 30 146.735 30 146 L 30 145.333 L 32 145.333 Z M 30.667 149.333 L 17.333 149.333 L 17.333 158.667 L 30.667 158.667 L 30.667 149.333 Z M 29.333 144.667 C 29.333 144.299 29.035 144 28.667 144 C 28.298 144 28 144.299 28 144.667 L 28 146 C 28 146.368 28.298 146.667 28.667 146.667 C 29.035 146.667 29.333 146.368 29.333 146 L 29.333 144.667 Z M 20 146 C 20 146.368 19.702 146.667 19.333 146.667 C 18.965 146.667 18.667 146.368 18.667 146 L 18.667 144.667 C 18.667 144.299 18.965 144 19.333 144 C 19.702 144 20 144.299 20 144.667 L 20 146 Z"/>
    <path id="GDSId_31" fill="#FFFFFF" d="M 45.333 157.333 L 42.667 157.333 L 42.667 154.667 L 45.333 154.667 L 45.333 157.333 Z M 41.333 150.667 L 38.667 150.667 L 38.667 153.333 L 41.333 153.333 L 41.333 150.667 Z M 45.333 150.667 L 42.667 150.667 L 42.667 153.333 L 45.333 153.333 L 45.333 150.667 Z M 37.333 154.667 L 34.667 154.667 L 34.667 157.333 L 37.333 157.333 L 37.333 154.667 Z M 41.333 154.667 L 38.667 154.667 L 38.667 157.333 L 41.333 157.333 L 41.333 154.667 Z M 37.333 150.667 L 34.667 150.667 L 34.667 153.333 L 37.333 153.333 L 37.333 150.667 Z M 48 145.333 L 48 160 L 32 160 L 32 145.333 L 34 145.333 L 34 146 C 34 146.735 34.598 147.333 35.333 147.333 C 36.069 147.333 36.667 146.735 36.667 146 L 36.667 145.333 L 43.333 145.333 L 43.333 146 C 43.333 146.735 43.931 147.333 44.667 147.333 C 45.402 147.333 46 146.735 46 146 L 46 145.333 L 48 145.333 Z M 46.667 149.333 L 33.333 149.333 L 33.333 158.667 L 46.667 158.667 L 46.667 149.333 Z M 45.333 144.667 C 45.333 144.299 45.035 144 44.667 144 C 44.298 144 44 144.299 44 144.667 L 44 146 C 44 146.368 44.298 146.667 44.667 146.667 C 45.035 146.667 45.333 146.368 45.333 146 L 45.333 144.667 Z M 36 146 C 36 146.368 35.702 146.667 35.333 146.667 C 34.965 146.667 34.667 146.368 34.667 146 L 34.667 144.667 C 34.667 144.299 34.965 144 35.333 144 C 35.702 144 36 144.299 36 144.667 L 36 146 Z"/>
  </g>
  <g id="rss">
    <path id="GDSId_32" fill="#FF6600" d="M 4.335 173.835 C 4.335 175.031 3.365 176 2.168 176 C 0.971 176 0 175.031 0 173.835 C 0 172.639 0.971 171.669 2.168 171.669 C 3.365 171.67 4.335 172.639 4.335 173.835 Z M 0 165.453 L 0 168.661 C 4.033 168.702 7.307 171.971 7.348 176 L 10.559 176 C 10.518 170.193 5.814 165.495 0 165.453 Z M 0 163.208 C 7.053 163.239 12.768 168.937 12.789 176 L 16 176 C 15.98 167.179 8.83 160.031 0 160 L 0 163.208 Z"/>
    <path id="GDSId_33" d="M 20.335 173.835 C 20.335 175.031 19.365 176 18.168 176 C 16.971 176 16 175.031 16 173.835 C 16 172.639 16.971 171.669 18.168 171.669 C 19.365 171.67 20.335 172.639 20.335 173.835 Z M 16 165.453 L 16 168.661 C 20.033 168.702 23.307 171.971 23.348 176 L 26.559 176 C 26.518 170.193 21.814 165.495 16 165.453 Z M 16 163.208 C 23.053 163.239 28.768 168.937 28.789 176 L 32 176 C 31.98 167.179 24.83 160.031 16 160 L 16 163.208 Z"/>
    <path id="GDSId_34" fill="#FFFFFF" d="M 36.335 173.835 C 36.335 175.031 35.365 176 34.168 176 C 32.971 176 32 175.031 32 173.835 C 32 172.639 32.971 171.669 34.168 171.669 C 35.365 171.67 36.335 172.639 36.335 173.835 Z M 32 165.453 L 32 168.661 C 36.033 168.702 39.307 171.971 39.348 176 L 42.559 176 C 42.518 170.193 37.814 165.495 32 165.453 Z M 32 163.208 C 39.053 163.239 44.768 168.937 44.789 176 L 48 176 C 47.98 167.179 40.83 160.031 32 160 L 32 163.208 Z"/>
  </g>
  <g id="facebook">
      <path id="SOCFcb_1" fill="#3B5998" d="M16,177v14c0,0.54688-0.45312,1-1,1h-4v-6.21875h2l0.33594-2.30469H11v-1.8125    c0-0.65625,0.33594-1.03125,1-1.03125h1.5v-2.07812c0,0-0.67188-0.10938-1.64062-0.10938    c-2.19531,0-3.30469,1.21875-3.30469,3.03906v1.99219h-2v2.30469h2V192H1c-0.54688,0-1-0.45312-1-1v-14c0-0.54688,0.45312-1,1-1    h14C15.54688,176,16,176.45312,16,177z"/>
      <path id="SOCFcb_2" d="M32,177v14c0,0.54688-0.45312,1-1,1h-4v-6.21875h2l0.33594-2.30469H27v-1.8125    c0-0.65625,0.33594-1.03125,1-1.03125h1.5v-2.07812c0,0-0.67188-0.10938-1.64062-0.10938    c-2.19531,0-3.30469,1.21875-3.30469,3.03906v1.99219h-2v2.30469h2V192H17c-0.54688,0-1-0.45312-1-1v-14c0-0.54688,0.45313-1,1-1    h14C31.54688,176,32,176.45312,32,177z"/>
      <path id="SOCFcb_3" fill="#FFFFFF" d="M47.99759,177v14c0,0.54688-0.45312,1-1,1h-4v-6.21875h2l0.33594-2.30469h-2.33594    v-1.8125c0-0.65625,0.33594-1.03125,1-1.03125h1.5v-2.07812c0,0-0.67188-0.10938-1.64062-0.10938    c-2.19531,0-3.30469,1.21875-3.30469,3.03906v1.99219h-2v2.30469h2V192h-7.55469c-0.54688,0-1-0.45312-1-1v-14    c0-0.54688,0.45312-1,1-1h14C47.54446,176,47.99759,176.45312,47.99759,177z"/>
  </g>
  <g id="bookmark">
    <path id="GDSId_35" fill="#3B5998" d="M13,192H3c-0.55,0-1,0.45-1,1v14.49904c0,0.42392,0.49443,0.6555,0.82009,0.38411l4.85982-4.04984   c0.18542-0.15453,0.45476-0.15453,0.64018,0l4.85982,4.04984C13.50557,208.15454,14,207.92296,14,207.49904V193   C14,192.45,13.55,192,13,192z"/>
    <path id="GDSId_36" d="M29,192H19c-0.55,0-1,0.45-1,1v14.49904c0,0.42392,0.49443,0.6555,0.82009,0.38411l4.85982-4.04984   c0.18542-0.15453,0.45476-0.15453,0.64018,0l4.85982,4.04984C29.50557,208.15454,30,207.92296,30,207.49904V193   C30,192.45,29.55,192,29,192z"/>
    <path id="GDSId_37" fill="#FFFFFF" d="M45,192H35c-0.55,0-1,0.45-1,1v14.49904c0,0.42392,0.49443,0.6555,0.82009,0.38411l4.85982-4.04984   c0.18542-0.15453,0.45476-0.15453,0.64018,0l4.85982,4.04984C45.50557,208.15454,46,207.92296,46,207.49904V193   C46,192.45,45.55,192,45,192z"/>
  </g>
  <g id="twitter">
    <path id="SOCTwt_1" fill="#55ACEE" d="M 16.004 211.037 C 15.416 211.3 14.782 211.475 14.12 211.553 C 14.798 211.147 15.317 210.503 15.564 209.737 C 14.93 210.112 14.226 210.387 13.48 210.534 C 12.88 209.896 12.027 209.5 11.083 209.5 C 9.27 209.5 7.802 210.969 7.802 212.781 C 7.802 213.037 7.83 213.287 7.886 213.528 C 5.158 213.39 2.739 212.084 1.12 210.097 C 0.839 210.581 0.676 211.147 0.676 211.747 C 0.676 212.885 1.254 213.891 2.135 214.478 C 1.597 214.462 1.091 214.312 0.647 214.069 C 0.647 214.082 0.647 214.097 0.647 214.11 C 0.647 215.701 1.778 217.029 3.281 217.329 C 3.006 217.404 2.715 217.445 2.415 217.445 C 2.203 217.445 1.999 217.423 1.796 217.386 C 2.215 218.689 3.427 219.639 4.862 219.667 C 3.737 220.548 2.324 221.073 0.784 221.073 C 0.518 221.073 0.259 221.057 0 221.026 C 1.456 221.96 3.181 222.501 5.034 222.501 C 11.071 222.501 14.375 217.498 14.375 213.16 C 14.375 213.016 14.372 212.876 14.366 212.735 C 15.007 212.276 15.563 211.697 16.003 211.038 Z"/>
    <path id="SOCTwt_2" d="M 32.004 211.037 C 31.416 211.3 30.782 211.475 30.12 211.553 C 30.798 211.147 31.317 210.503 31.564 209.737 C 30.93 210.112 30.226 210.387 29.48 210.534 C 28.88 209.896 28.027 209.5 27.083 209.5 C 25.27 209.5 23.802 210.969 23.802 212.781 C 23.802 213.037 23.83 213.287 23.886 213.528 C 21.158 213.39 18.739 212.084 17.12 210.097 C 16.839 210.581 16.676 211.147 16.676 211.747 C 16.676 212.885 17.254 213.891 18.135 214.478 C 17.597 214.462 17.091 214.312 16.647 214.069 C 16.647 214.082 16.647 214.097 16.647 214.11 C 16.647 215.701 17.778 217.029 19.281 217.329 C 19.006 217.404 18.715 217.445 18.415 217.445 C 18.203 217.445 17.999 217.423 17.796 217.386 C 18.215 218.689 19.427 219.639 20.862 219.667 C 19.737 220.548 18.324 221.073 16.784 221.073 C 16.518 221.073 16.259 221.057 16 221.026 C 17.456 221.96 19.181 222.501 21.034 222.501 C 27.071 222.501 30.375 217.498 30.375 213.16 C 30.375 213.016 30.372 212.876 30.366 212.735 C 31.007 212.276 31.563 211.697 32.003 211.038 Z"/>
    <path id="SOCTwt_3" fill="#FFFFFF" d="M 48.004 211.037 C 47.416 211.3 46.782 211.475 46.12 211.553 C 46.798 211.147 47.317 210.503 47.564 209.737 C 46.93 210.112 46.226 210.387 45.48 210.534 C 44.88 209.896 44.027 209.5 43.083 209.5 C 41.27 209.5 39.802 210.969 39.802 212.781 C 39.802 213.037 39.83 213.287 39.886 213.528 C 37.158 213.39 34.739 212.084 33.12 210.097 C 32.839 210.581 32.676 211.147 32.676 211.747 C 32.676 212.885 33.254 213.891 34.135 214.478 C 33.597 214.462 33.091 214.312 32.647 214.069 C 32.647 214.082 32.647 214.097 32.647 214.11 C 32.647 215.701 33.778 217.029 35.281 217.329 C 35.006 217.404 34.715 217.445 34.415 217.445 C 34.203 217.445 33.999 217.423 33.796 217.386 C 34.215 218.689 35.427 219.639 36.862 219.667 C 35.737 220.548 34.324 221.073 32.784 221.073 C 32.518 221.073 32.259 221.057 32 221.026 C 33.456 221.96 35.181 222.501 37.034 222.501 C 43.071 222.501 46.375 217.498 46.375 213.16 C 46.375 213.016 46.372 212.876 46.366 212.735 C 47.007 212.276 47.563 211.697 48.003 211.038 Z"/>
  </g>
  <g id="googleplus">
    <path id="SOCGpl_1" fill="#DC4E41" d="M 4.667 231.285 L 4.667 233 L 7.313 233 C 7.207 233.735 6.513 235.158 4.667 235.158 C 3.073 235.158 1.773 233.745 1.773 232 C 1.773 230.258 3.073 228.842 4.667 228.842 C 5.573 228.842 6.18 229.256 6.527 229.615 L 7.793 228.308 C 6.98 227.492 5.927 227 4.667 227 C 2.087 227 0 229.235 0 232 C 0 234.765 2.087 237 4.667 237 C 7.36 237 9.147 234.971 9.147 232.115 C 9.147 231.785 9.113 231.535 9.073 231.285 L 4.667 231.285 Z M 4.667 231.285 L 16 232.715 L 14 232.715 L 14 234.856 L 12.667 234.856 L 12.667 232.715 L 10.667 232.715 L 10.667 231.285 L 12.667 231.285 L 12.667 229.144 L 14 229.144 L 14 231.285 L 16 231.285 L 16 232.715 Z"/>
    <path id="SOCGpl_2" d="M 20.667 231.285 L 20.667 233 L 23.313 233 C 23.207 233.735 22.513 235.158 20.667 235.158 C 19.073 235.158 17.773 233.745 17.773 232 C 17.773 230.258 19.073 228.842 20.667 228.842 C 21.573 228.842 22.18 229.256 22.527 229.615 L 23.793 228.308 C 22.98 227.492 21.927 227 20.667 227 C 18.087 227 16 229.235 16 232 C 16 234.765 18.087 237 20.667 237 C 23.36 237 25.147 234.971 25.147 232.115 C 25.147 231.785 25.113 231.535 25.073 231.285 L 20.667 231.285 Z M 20.667 231.285 L 32 232.715 L 30 232.715 L 30 234.856 L 28.667 234.856 L 28.667 232.715 L 26.667 232.715 L 26.667 231.285 L 28.667 231.285 L 28.667 229.144 L 30 229.144 L 30 231.285 L 32 231.285 L 32 232.715 Z"/>
    <path id="SOCGpl_3" fill="#FFFFFF" d="M 36.667 231.285 L 36.667 233 L 39.313 233 C 39.207 233.735 38.513 235.158 36.667 235.158 C 35.073 235.158 33.773 233.745 33.773 232 C 33.773 230.258 35.073 228.842 36.667 228.842 C 37.573 228.842 38.18 229.256 38.527 229.615 L 39.793 228.308 C 38.98 227.492 37.927 227 36.667 227 C 34.087 227 32 229.235 32 232 C 32 234.765 34.087 237 36.667 237 C 39.36 237 41.147 234.971 41.147 232.115 C 41.147 231.785 41.113 231.535 41.073 231.285 L 36.667 231.285 Z M 36.667 231.285 L 48 232.715 L 46 232.715 L 46 234.856 L 44.667 234.856 L 44.667 232.715 L 42.667 232.715 L 42.667 231.285 L 44.667 231.285 L 44.667 229.144 L 46 229.144 L 46 231.285 L 48 231.285 L 48 232.715 Z"/>
  </g>
  <g id="youtube">
    <path id="SOCYtb_1" fill="#CD201F" d="M 13.077 242.163 C 10.674 242 5.323 242.001 2.923 242.163 C 0.325 242.339 0.019 243.898 0 248 C 0.019 252.095 0.323 253.66 2.923 253.837 C 5.323 253.999 10.674 254 13.077 253.837 C 15.675 253.661 15.981 252.102 16 248 C 15.981 243.905 15.677 242.34 13.077 242.163 Z M 6 250.648 L 6 245.352 L 11.333 247.995 L 6 250.648 Z"/>
    <path id="SOCYtb_2" d="M 29.077 242.163 C 26.674 242 21.323 242.001 18.923 242.163 C 16.325 242.339 16.019 243.898 16 248 C 16.019 252.095 16.323 253.66 18.923 253.837 C 21.323 253.999 26.674 254 29.077 253.837 C 31.675 253.661 31.981 252.102 32 248 C 31.981 243.905 31.677 242.34 29.077 242.163 Z M 22 250.648 L 22 245.352 L 27.333 247.995 L 22 250.648 Z"/>
    <path id="SOCYtb_3" fill="#FFFFFF" d="M 45.077 242.163 C 42.674 242 37.323 242.001 34.923 242.163 C 32.325 242.339 32.019 243.898 32 248 C 32.019 252.095 32.323 253.66 34.923 253.837 C 37.323 253.999 42.674 254 45.077 253.837 C 47.675 253.661 47.981 252.102 48 248 C 47.981 243.905 47.677 242.34 45.077 242.163 Z M 38 250.648 L 38 245.352 L 43.333 247.995 L 38 250.648 Z"/>
  </g>
  <g id="instagram">
    <path id="SOCIns_1" fill="#3F729B" d="M 14.154 256 L 1.846 256 C 0.827 256 0 256.827 0 257.846 L 0 270.153 C 0 271.173 0.827 272 1.846 272 L 14.155 272 C 15.174 272 16 271.173 16 270.153 L 16 257.846 C 16 256.827 15.174 256 14.154 256 Z M 8 260.923 C 9.699 260.923 11.077 262.3 11.077 264 C 11.077 265.699 9.699 267.077 8 267.077 C 6.301 267.077 4.923 265.699 4.923 264 C 4.923 262.3 6.301 260.923 8 260.923 Z M 14 269.385 C 14 269.725 13.725 270 13.384 270 L 2.616 270 C 2.275 270 2 269.725 2 269.385 L 2 262.667 L 3.265 262.667 C 3.206 262.877 3.163 263.093 3.131 263.314 C 3.098 263.539 3.077 263.767 3.077 264 C 3.077 266.719 5.281 268.923 8 268.923 C 10.719 268.923 12.923 266.719 12.923 264 C 12.923 263.767 12.902 263.539 12.869 263.315 C 12.837 263.094 12.794 262.877 12.735 262.667 L 14 262.667 L 14 269.385 Z M 14 260.065 C 14 260.405 13.725 260.681 13.384 260.681 L 11.935 260.681 C 11.594 260.681 11.319 260.405 11.319 260.065 L 11.319 258.615 C 11.319 258.275 11.594 258 11.935 258 L 13.384 258 C 13.725 258 14 258.275 14 258.615 L 14 260.065 Z"/>
    <path id="SOCIns_2" d="M 30.154 256 L 17.846 256 C 16.827 256 16 256.827 16 257.846 L 16 270.153 C 16 271.173 16.827 272 17.846 272 L 30.155 272 C 31.174 272 32 271.173 32 270.153 L 32 257.846 C 32 256.827 31.174 256 30.154 256 Z M 24 260.923 C 25.699 260.923 27.077 262.3 27.077 264 C 27.077 265.699 25.699 267.077 24 267.077 C 22.301 267.077 20.923 265.699 20.923 264 C 20.923 262.3 22.301 260.923 24 260.923 Z M 30 269.385 C 30 269.725 29.725 270 29.384 270 L 18.616 270 C 18.275 270 18 269.725 18 269.385 L 18 262.667 L 19.265 262.667 C 19.206 262.877 19.163 263.093 19.131 263.314 C 19.098 263.539 19.077 263.767 19.077 264 C 19.077 266.719 21.281 268.923 24 268.923 C 26.719 268.923 28.923 266.719 28.923 264 C 28.923 263.767 28.902 263.539 28.869 263.315 C 28.837 263.094 28.794 262.877 28.735 262.667 L 30 262.667 L 30 269.385 Z M 30 260.065 C 30 260.405 29.725 260.681 29.384 260.681 L 27.935 260.681 C 27.594 260.681 27.319 260.405 27.319 260.065 L 27.319 258.615 C 27.319 258.275 27.594 258 27.935 258 L 29.384 258 C 29.725 258 30 258.275 30 258.615 L 30 260.065 Z"/>
    <path id="SOCIns_3" fill="#FFFFFF" d="M 46.154 256 L 33.846 256 C 32.827 256 32 256.827 32 257.846 L 32 270.153 C 32 271.173 32.827 272 33.846 272 L 46.155 272 C 47.174 272 48 271.173 48 270.153 L 48 257.846 C 48 256.827 47.174 256 46.154 256 Z M 40 260.923 C 41.699 260.923 43.077 262.3 43.077 264 C 43.077 265.699 41.699 267.077 40 267.077 C 38.301 267.077 36.923 265.699 36.923 264 C 36.923 262.3 38.301 260.923 40 260.923 Z M 46 269.385 C 46 269.725 45.725 270 45.384 270 L 34.616 270 C 34.275 270 34 269.725 34 269.385 L 34 262.667 L 35.265 262.667 C 35.206 262.877 35.163 263.093 35.131 263.314 C 35.098 263.539 35.077 263.767 35.077 264 C 35.077 266.719 37.281 268.923 40 268.923 C 42.719 268.923 44.923 266.719 44.923 264 C 44.923 263.767 44.902 263.539 44.869 263.315 C 44.837 263.094 44.794 262.877 44.735 262.667 L 46 262.667 L 46 269.385 Z M 46 260.065 C 46 260.405 45.725 260.681 45.384 260.681 L 43.935 260.681 C 43.594 260.681 43.319 260.405 43.319 260.065 L 43.319 258.615 C 43.319 258.275 43.594 258 43.935 258 L 45.384 258 C 45.725 258 46 258.275 46 258.615 L 46 260.065 Z"/>
  </g>
  <g id="linkedin">
    <path id="SOCLkd_1" fill="#0077B5" d="M 3.32 290.13 C 3.32 291.031 2.58 291.761 1.667 291.761 C 0.753 291.761 0.013 291.031 0.013 290.13 C 0.013 289.23 0.753 288.5 1.667 288.5 C 2.58 288.5 3.32 289.23 3.32 290.13 Z M 3.333 293.065 L 0 293.065 L 0 303.5 L 3.333 303.5 L 3.333 293.065 Z M 8.655 293.065 L 5.343 293.065 L 5.343 303.5 L 8.655 303.5 L 8.655 298.022 C 8.655 294.977 12.675 294.728 12.675 298.022 L 12.675 303.5 L 16 303.5 L 16 296.893 C 16 291.754 10.052 291.941 8.655 294.471 L 8.655 293.065 Z"/>
    <path id="SOCLkd_2" d="M 19.32 290.13 C 19.32 291.031 18.58 291.761 17.667 291.761 C 16.753 291.761 16.013 291.031 16.013 290.13 C 16.013 289.23 16.753 288.5 17.667 288.5 C 18.58 288.5 19.32 289.23 19.32 290.13 Z M 19.333 293.065 L 16 293.065 L 16 303.5 L 19.333 303.5 L 19.333 293.065 Z M 24.655 293.065 L 21.343 293.065 L 21.343 303.5 L 24.655 303.5 L 24.655 298.022 C 24.655 294.977 28.675 294.728 28.675 298.022 L 28.675 303.5 L 32 303.5 L 32 296.893 C 32 291.754 26.052 291.941 24.655 294.471 L 24.655 293.065 Z"/>
    <path id="SOCLkd_3" fill="#FFFFFF" d="M 35.32 290.13 C 35.32 291.031 34.58 291.761 33.667 291.761 C 32.753 291.761 32.013 291.031 32.013 290.13 C 32.013 289.23 32.753 288.5 33.667 288.5 C 34.58 288.5 35.32 289.23 35.32 290.13 Z M 35.333 293.065 L 32 293.065 L 32 303.5 L 35.333 303.5 L 35.333 293.065 Z M 40.655 293.065 L 37.343 293.065 L 37.343 303.5 L 40.655 303.5 L 40.655 298.022 C 40.655 294.977 44.675 294.728 44.675 298.022 L 44.675 303.5 L 48 303.5 L 48 296.893 C 48 291.754 42.052 291.941 40.655 294.471 L 40.655 293.065 Z"/>
  </g>
  <g id="tumblr">
    <g id="SOCTmb_1" transform="matrix(0.037025, 0, 0, 0.036484, -0.118468, 304)">
      <path fill="#35465c" d="M288.078,367.164c-12.748,0-23.887-2.95-33.4-8.85c-7.427-4.381-12.368-10.089-14.842-17.132   c-2.673-6.852-4.001-23.223-4.001-49.115V179.58h103.921v-68.806H235.834V0h-62.53c-2.856,22.458-7.992,41.109-15.415,55.963   c-7.424,14.655-17.227,27.218-29.408,37.685c-12.183,10.282-26.934,18.276-44.255,23.984v61.955h48.535v153.889   c0,20.365,2.096,35.69,6.28,45.967c3.999,10.283,11.519,20.272,22.557,29.981c11.419,9.514,24.554,16.652,39.399,21.406   c15.418,5.14,33.12,7.713,53.105,7.713c18.274,0,34.735-1.813,49.392-5.428c14.466-3.237,31.409-9.424,50.823-18.562V345.46   C332.425,359.933,310.349,367.164,288.078,367.164z"/>
    </g>
    <g id="SOCTmb_2" transform="matrix(0.037025, 0, 0, 0.036484, 15.881533, 304)">
      <path d="M288.078,367.164c-12.748,0-23.887-2.95-33.4-8.85c-7.427-4.381-12.368-10.089-14.842-17.132   c-2.673-6.852-4.001-23.223-4.001-49.115V179.58h103.921v-68.806H235.834V0h-62.53c-2.856,22.458-7.992,41.109-15.415,55.963   c-7.424,14.655-17.227,27.218-29.408,37.685c-12.183,10.282-26.934,18.276-44.255,23.984v61.955h48.535v153.889   c0,20.365,2.096,35.69,6.28,45.967c3.999,10.283,11.519,20.272,22.557,29.981c11.419,9.514,24.554,16.652,39.399,21.406   c15.418,5.14,33.12,7.713,53.105,7.713c18.274,0,34.735-1.813,49.392-5.428c14.466-3.237,31.409-9.424,50.823-18.562V345.46   C332.425,359.933,310.349,367.164,288.078,367.164z"/>
    </g>
    <g id="SOCTmb_3" transform="matrix(0.037025, 0, 0, 0.036484, 31.881533, 304)">
      <path fill="#FFFFFF" d="M288.078,367.164c-12.748,0-23.887-2.95-33.4-8.85c-7.427-4.381-12.368-10.089-14.842-17.132   c-2.673-6.852-4.001-23.223-4.001-49.115V179.58h103.921v-68.806H235.834V0h-62.53c-2.856,22.458-7.992,41.109-15.415,55.963   c-7.424,14.655-17.227,27.218-29.408,37.685c-12.183,10.282-26.934,18.276-44.255,23.984v61.955h48.535v153.889   c0,20.365,2.096,35.69,6.28,45.967c3.999,10.283,11.519,20.272,22.557,29.981c11.419,9.514,24.554,16.652,39.399,21.406   c15.418,5.14,33.12,7.713,53.105,7.713c18.274,0,34.735-1.813,49.392-5.428c14.466-3.237,31.409-9.424,50.823-18.562V345.46   C332.425,359.933,310.349,367.164,288.078,367.164z"/>
    </g>
  </g>
  <g id="blogger">
    <path id="SOCBlg_1" fill="#f26500" d="M 15.209 326.021 L 13.909 326.021 C 13.243 326.021 13.119 325.511 13.119 324.883 C 13.12 322.186 10.938 320 8.247 320 L 4.873 320 C 2.181 320 0 322.186 0 324.883 L 0 331.117 C 0 333.814 2.181 336 4.873 336 L 11.128 336 C 13.819 336 16 333.814 16 331.117 L 16 326.813 C 16 326.375 15.646 326.021 15.209 326.021 Z M 4.924 324 L 7.743 324 C 8.253 324 8.667 324.447 8.667 325 C 8.667 325.553 8.253 326 7.743 326 L 4.924 326 C 4.413 326 4 325.553 4 325 C 4 324.447 4.413 324 4.924 324 Z M 11.013 332 L 4.987 332 C 4.442 332 4 331.552 4 331 C 4 330.447 4.442 330 4.987 330 L 11.013 330 C 11.557 330 11.999 330.447 11.999 331 C 12 331.552 11.558 332 11.013 332 Z"/>
    <path id="SOCBlg_2" d="M 31.209 326.021 L 29.909 326.021 C 29.243 326.021 29.119 325.511 29.119 324.883 C 29.12 322.186 26.938 320 24.247 320 L 20.873 320 C 18.181 320 16 322.186 16 324.883 L 16 331.117 C 16 333.814 18.181 336 20.873 336 L 27.128 336 C 29.819 336 32 333.814 32 331.117 L 32 326.813 C 32 326.375 31.646 326.021 31.209 326.021 Z M 20.924 324 L 23.743 324 C 24.253 324 24.667 324.447 24.667 325 C 24.667 325.553 24.253 326 23.743 326 L 20.924 326 C 20.413 326 20 325.553 20 325 C 20 324.447 20.413 324 20.924 324 Z M 27.013 332 L 20.987 332 C 20.442 332 20 331.552 20 331 C 20 330.447 20.442 330 20.987 330 L 27.013 330 C 27.557 330 27.999 330.447 27.999 331 C 28 331.552 27.558 332 27.013 332 Z"/>
    <path id="SOCBlg_3" fill="#FFFFFF" d="M 47.209 326.021 L 45.909 326.021 C 45.243 326.021 45.119 325.511 45.119 324.883 C 45.12 322.186 42.938 320 40.247 320 L 36.873 320 C 34.181 320 32 322.186 32 324.883 L 32 331.117 C 32 333.814 34.181 336 36.873 336 L 43.128 336 C 45.819 336 48 333.814 48 331.117 L 48 326.813 C 48 326.375 47.646 326.021 47.209 326.021 Z M 36.924 324 L 39.743 324 C 40.253 324 40.667 324.447 40.667 325 C 40.667 325.553 40.253 326 39.743 326 L 36.924 326 C 36.413 326 36 325.553 36 325 C 36 324.447 36.413 324 36.924 324 Z M 43.013 332 L 36.987 332 C 36.442 332 36 331.552 36 331 C 36 330.447 36.442 330 36.987 330 L 43.013 330 C 43.557 330 43.999 330.447 43.999 331 C 44 331.552 43.558 332 43.013 332 Z"/>
  </g>
  <g id="link">
    <path id="GDSId_38" fill="#AAAAAA" d="M 4.318 69.921 C 4.596 69.643 4.904 69.413 5.233 69.232 C 7.062 68.224 9.407 68.76 10.583 70.543 L 9.16 71.965 C 8.752 71.035 7.739 70.505 6.731 70.73 C 6.352 70.815 5.991 71.005 5.696 71.299 L 2.97 74.027 C 2.141 74.855 2.141 76.202 2.97 77.03 C 3.798 77.858 5.145 77.858 5.973 77.03 L 6.813 76.189 C 7.578 76.493 8.398 76.614 9.208 76.554 L 7.352 78.409 C 5.761 80 3.182 80 1.591 78.409 C 0 76.819 0 74.239 1.591 72.649 L 4.318 69.921 Z M 8.649 65.59 L 6.793 67.446 C 7.602 67.385 8.423 67.507 9.187 67.809 L 10.027 66.969 C 10.856 66.141 12.202 66.141 13.031 66.969 C 13.859 67.797 13.859 69.144 13.031 69.972 L 10.303 72.699 C 9.472 73.53 8.124 73.523 7.3 72.699 C 7.108 72.507 6.943 72.269 6.839 72.034 L 5.416 73.456 C 5.566 73.683 5.721 73.878 5.921 74.078 C 6.435 74.592 7.09 74.976 7.844 75.157 C 8.821 75.392 9.868 75.263 10.767 74.767 C 11.095 74.585 11.404 74.356 11.682 74.078 L 14.409 71.351 C 16 69.76 16 67.181 14.409 65.59 C 12.818 64 10.24 64 8.649 65.59 Z"/>
    <path id="GDSId_39" d="M 20.318 69.921 C 20.596 69.643 20.904 69.413 21.233 69.232 C 23.062 68.224 25.407 68.76 26.583 70.543 L 25.16 71.965 C 24.752 71.035 23.739 70.505 22.731 70.73 C 22.352 70.815 21.991 71.005 21.696 71.299 L 18.97 74.027 C 18.141 74.855 18.141 76.202 18.97 77.03 C 19.798 77.858 21.145 77.858 21.973 77.03 L 22.813 76.189 C 23.578 76.493 24.398 76.614 25.208 76.554 L 23.352 78.409 C 21.761 80 19.182 80 17.591 78.409 C 16 76.819 16 74.239 17.591 72.649 L 20.318 69.921 Z M 24.649 65.59 L 22.793 67.446 C 23.602 67.385 24.423 67.507 25.187 67.809 L 26.027 66.969 C 26.856 66.141 28.202 66.141 29.031 66.969 C 29.859 67.797 29.859 69.144 29.031 69.972 L 26.303 72.699 C 25.472 73.53 24.124 73.523 23.3 72.699 C 23.108 72.507 22.943 72.269 22.839 72.034 L 21.416 73.456 C 21.566 73.683 21.721 73.878 21.921 74.078 C 22.435 74.592 23.09 74.976 23.844 75.157 C 24.821 75.392 25.868 75.263 26.767 74.767 C 27.095 74.585 27.404 74.356 27.682 74.078 L 30.409 71.351 C 32 69.76 32 67.181 30.409 65.59 C 28.818 64 26.24 64 24.649 65.59 Z"/>
    <path id="GDSId_40" fill="#FFFFFF" d="M 36.318 69.921 C 36.596 69.643 36.904 69.413 37.233 69.232 C 39.062 68.224 41.407 68.76 42.583 70.543 L 41.16 71.965 C 40.752 71.035 39.739 70.505 38.731 70.73 C 38.352 70.815 37.991 71.005 37.696 71.299 L 34.97 74.027 C 34.141 74.855 34.141 76.202 34.97 77.03 C 35.798 77.858 37.145 77.858 37.973 77.03 L 38.813 76.189 C 39.578 76.493 40.398 76.614 41.208 76.554 L 39.352 78.409 C 37.761 80 35.182 80 33.591 78.409 C 32 76.819 32 74.239 33.591 72.649 L 36.318 69.921 Z M 40.649 65.59 L 38.793 67.446 C 39.602 67.385 40.423 67.507 41.187 67.809 L 42.027 66.969 C 42.856 66.141 44.202 66.141 45.031 66.969 C 45.859 67.797 45.859 69.144 45.031 69.972 L 42.303 72.699 C 41.472 73.53 40.124 73.523 39.3 72.699 C 39.108 72.507 38.943 72.269 38.839 72.034 L 37.416 73.456 C 37.566 73.683 37.721 73.878 37.921 74.078 C 38.435 74.592 39.09 74.976 39.844 75.157 C 40.821 75.392 41.868 75.263 42.767 74.767 C 43.095 74.585 43.404 74.356 43.682 74.078 L 46.409 71.351 C 48 69.76 48 67.181 46.409 65.59 C 44.818 64 42.24 64 40.649 65.59 Z"/>
  </g>
  <g id="clock">
	<path id="GDSId_41" fill="#AAAAAA" d="M3.98929,81.0752C5.21683,80.3584,6.55325,80,7.99759,80s2.78027,0.3584,4.0083,1.0752 c1.22754,0.7168,2.2002,1.68848,2.9165,2.91602c0.7168,1.22852,1.0752,2.56445,1.0752,4.00879s-0.3584,2.78027-1.0752,4.00879 c-0.71631,1.22754-1.68896,2.19922-2.9165,2.91602C10.77786,95.6416,9.44193,96,7.99759,96s-2.78076-0.3584-4.0083-1.0752 c-1.22803-0.7168-2.2002-1.68848-2.9165-2.91602C0.35599,90.78027-0.00241,89.44434-0.00241,88s0.3584-2.78027,1.0752-4.00879 C1.78909,82.76367,2.76126,81.79199,3.98929,81.0752z M3.79739,92.2002c1.17773,1.17773,2.57764,1.7666,4.2002,1.7666 c1.62207,0,3.02197-0.58887,4.2002-1.7666c1.17725-1.17773,1.7666-2.57812,1.7666-4.2002s-0.58936-3.02246-1.7666-4.2002 c-1.17822-1.17773-2.57812-1.7666-4.2002-1.7666c-1.62256,0-3.02246,0.58887-4.2002,1.7666S2.03079,86.37793,2.03079,88 S2.61966,91.02246,3.79739,92.2002z M11.06448,91.13379c-0.16699,0.15527-0.36426,0.23242-0.5918,0.23242 c-0.22803,0-0.42529-0.07715-0.5918-0.23242l-2.6333-2.10059c-0.2334-0.21094-0.33887-0.46094-0.31689-0.75l0.18359-4.2334 c0.01074-0.24414,0.10547-0.4502,0.2832-0.61621c0.17773-0.16699,0.38867-0.24414,0.6333-0.2334 c0.2334,0.01074,0.43066,0.09961,0.5918,0.2666s0.24707,0.36133,0.2583,0.58301l0.1665,3.7832l2.06689,2.0332 c0.1665,0.17871,0.24414,0.39258,0.2334,0.64258C11.33646,90.75879,11.24173,90.9668,11.06448,91.13379z"/>
    <path id="GDSId_42" d="M19.9917,81.0752C21.21924,80.3584,22.55566,80,24,80s2.78027,0.3584,4.0083,1.0752 c1.22754,0.7168,2.2002,1.68848,2.9165,2.91602C31.6416,85.21973,32,86.55566,32,88s-0.3584,2.78027-1.0752,4.00879 c-0.71631,1.22754-1.68896,2.19922-2.9165,2.91602C26.78027,95.6416,25.44434,96,24,96s-2.78076-0.3584-4.0083-1.0752 c-1.22803-0.7168-2.2002-1.68848-2.9165-2.91602C16.3584,90.78027,16,89.44434,16,88s0.3584-2.78027,1.0752-4.00879 C17.7915,82.76367,18.76367,81.79199,19.9917,81.0752z M19.7998,92.2002c1.17773,1.17773,2.57764,1.7666,4.2002,1.7666 c1.62207,0,3.02197-0.58887,4.2002-1.7666c1.17725-1.17773,1.7666-2.57812,1.7666-4.2002s-0.58936-3.02246-1.7666-4.2002 c-1.17822-1.17773-2.57812-1.7666-4.2002-1.7666c-1.62256,0-3.02246,0.58887-4.2002,1.7666S18.0332,86.37793,18.0332,88 S18.62207,91.02246,19.7998,92.2002z M27.06689,91.13379c-0.16699,0.15527-0.36426,0.23242-0.5918,0.23242 c-0.22803,0-0.42529-0.07715-0.5918-0.23242L23.25,89.0332c-0.2334-0.21094-0.33887-0.46094-0.31689-0.75l0.18359-4.2334 c0.01074-0.24414,0.10547-0.4502,0.2832-0.61621c0.17773-0.16699,0.38867-0.24414,0.6333-0.2334 c0.2334,0.01074,0.43066,0.09961,0.5918,0.2666s0.24707,0.36133,0.2583,0.58301l0.1665,3.7832l2.06689,2.0332 c0.1665,0.17871,0.24414,0.39258,0.2334,0.64258C27.33887,90.75879,27.24414,90.9668,27.06689,91.13379z"/>
    <path id="GDSId_43" fill="#FFFFFF" d="M35.98929,81.0752C37.21683,80.3584,38.55325,80,39.99759,80s2.78027,0.3584,4.0083,1.0752 c1.22754,0.7168,2.2002,1.68848,2.9165,2.91602c0.7168,1.22852,1.0752,2.56445,1.0752,4.00879s-0.3584,2.78027-1.0752,4.00879 c-0.71631,1.22754-1.68896,2.19922-2.9165,2.91602C42.77786,95.6416,41.44193,96,39.99759,96s-2.78076-0.3584-4.0083-1.0752 c-1.22803-0.7168-2.2002-1.68848-2.9165-2.91602c-0.7168-1.22852-1.0752-2.56445-1.0752-4.00879s0.3584-2.78027,1.0752-4.00879 C33.78909,82.76367,34.76126,81.79199,35.98929,81.0752z M35.79739,92.2002c1.17773,1.17773,2.57764,1.7666,4.2002,1.7666 c1.62207,0,3.02197-0.58887,4.2002-1.7666c1.17725-1.17773,1.7666-2.57812,1.7666-4.2002s-0.58936-3.02246-1.7666-4.2002 c-1.17822-1.17773-2.57812-1.7666-4.2002-1.7666c-1.62256,0-3.02246,0.58887-4.2002,1.7666s-1.7666,2.57812-1.7666,4.2002 S34.61966,91.02246,35.79739,92.2002z M43.06448,91.13379c-0.16699,0.15527-0.36426,0.23242-0.5918,0.23242 c-0.22803,0-0.42529-0.07715-0.5918-0.23242l-2.6333-2.10059c-0.2334-0.21094-0.33887-0.46094-0.31689-0.75l0.18359-4.2334 c0.01074-0.24414,0.10547-0.4502,0.2832-0.61621c0.17773-0.16699,0.38867-0.24414,0.6333-0.2334 c0.2334,0.01074,0.43066,0.09961,0.5918,0.2666s0.24707,0.36133,0.2583,0.58301l0.1665,3.7832l2.06689,2.0332 c0.1665,0.17871,0.24414,0.39258,0.2334,0.64258C43.33646,90.75879,43.24173,90.9668,43.06448,91.13379z"/>
  </g>
</svg>